<?xml version="1.0" encoding="UTF-8"?>
<svg id="Capa_1" data-name="Capa 1" xmlns="http://www.w3.org/2000/svg" viewBox="0 0 547.1 315.22">
  <defs>
    <style>
      .cls-1 {
        fill: #1d1d1b;
      }
    </style>
  </defs>
  <path class="cls-1" d="M244.5,152.06c-.21,4.7-.32,7.6-.35,8.69-.02,1.09-.04,2.05-.04,2.89v17.69h7.39v-37.38h-10.79l-9.38,28.58h-.16l-8.85-28.58h-10.79v37.38h7.09v-17.39h0c0-1.99-.16-5.97-.49-11.94h.23l9,29.32h7.26l9.64-29.27h.23Z"/>
  <path class="cls-1" d="M279.09,177.68h.41l1.05,3.66h5.98v-28.58h-7.79v13.45c0,3.38-.49,5.79-1.46,7.25-.97,1.46-2.55,2.18-4.73,2.18-1.61,0-2.77-.52-3.5-1.55s-1.1-2.58-1.1-4.64v-16.69h-7.79v18.64c0,3.38.85,5.97,2.55,7.76,1.7,1.8,4.23,2.69,7.59,2.69,1.96,0,3.71-.36,5.24-1.09,1.53-.73,2.72-1.75,3.55-3.08Z"/>
  <path class="cls-1" d="M321.1,181.33v-18.64c0-3.39-.86-5.99-2.58-7.79-1.72-1.8-4.24-2.69-7.56-2.69-1.94,0-3.68.35-5.2,1.06-1.52.71-2.73,1.75-3.59,3.13h-.44l-1.05-3.66h-5.96v28.58h7.79v-13.45c0-3.38.49-5.79,1.46-7.25.97-1.46,2.55-2.18,4.73-2.18,1.6,0,2.77.52,3.5,1.55h0c.73,1.03,1.1,2.58,1.1,4.64v16.69h7.79Z"/>
  <path class="cls-1" d="M333.04,149.19h0c1.42,0,2.48-.33,3.18-1.01.71-.68,1.06-1.61,1.06-2.83,0-2.54-1.42-3.81-4.24-3.81s-4.24,1.27-4.24,3.81,1.42,3.83,4.24,3.83Z"/>
  <rect class="cls-1" x="329.13" y="152.76" width="7.79" height="28.58"/>
  <path class="cls-1" d="M356.72,181.83v.02c1.96,0,3.58-.16,4.87-.46s2.56-.86,3.82-1.66v-6.67c-1.28.85-2.55,1.48-3.83,1.88-1.28.4-2.67.6-4.17.6-4.05,0-6.09-2.79-6.09-8.39s2.03-8.64,6.09-8.64c1.05,0,2.12.16,3.17.47,1.05.31,2.2.72,3.43,1.21l2.3-6.03c-2.63-1.29-5.59-1.94-8.9-1.94-4.52,0-7.98,1.29-10.41,3.85s-3.63,6.28-3.63,11.13c0,9.76,4.45,14.65,13.35,14.65Z"/>
  <rect class="cls-1" x="372.86" y="152.76" width="7.79" height="28.58"/>
  <path class="cls-1" d="M376.77,149.19h0c1.42,0,2.48-.33,3.18-1.01.71-.68,1.06-1.61,1.06-2.83,0-2.54-1.42-3.81-4.24-3.81s-4.24,1.27-4.24,3.81,1.42,3.83,4.24,3.83Z"/>
  <path class="cls-1" d="M413.49,156.13c-1.91-2.61-4.56-3.91-7.93-3.91-3.58,0-6.28,1.42-8.11,4.24h-.36l-1.1-3.71h-6.34v41.16h7.79v-11.58h0c0-.37-.14-1.75-.41-4.14h.41c1.91,2.44,4.54,3.66,7.9,3.66,2.23,0,4.18-.59,5.83-1.76,1.66-1.18,2.92-2.89,3.82-5.14.9-2.25,1.34-4.9,1.34-7.95,0-4.64-.96-8.26-2.86-10.87ZM403.16,175.54c-1.98,0-3.42-.67-4.33-1.99-.91-1.33-1.37-3.53-1.37-6.6v-.84c.03-2.73.49-4.68,1.38-5.87.89-1.19,2.29-1.78,4.22-1.78s3.19.7,4.05,2.11c.86,1.41,1.29,3.52,1.29,6.33,0,5.76-1.75,8.64-5.24,8.64Z"/>
  <path class="cls-1" d="M426.29,149.19h0c1.42,0,2.48-.33,3.18-1.01.71-.68,1.06-1.61,1.06-2.83,0-2.54-1.42-3.81-4.24-3.81s-4.24,1.27-4.24,3.81,1.42,3.83,4.24,3.83Z"/>
  <rect class="cls-1" x="422.39" y="152.76" width="7.79" height="28.58"/>
  <path class="cls-1" d="M443.55,180.04c2.09,1.2,4.52,1.8,7.26,1.8h0c4.38,0,7.79-1.31,10.25-3.94,2.46-2.62,3.68-6.26,3.68-10.92,0-3-.56-5.62-1.69-7.85-1.13-2.23-2.74-3.95-4.83-5.14-2.09-1.19-4.52-1.79-7.26-1.79-4.42,0-7.84,1.29-10.28,3.89-2.44,2.59-3.66,6.22-3.66,10.89,0,3,.56,5.63,1.69,7.88,1.13,2.25,2.74,3.98,4.83,5.17ZM446.37,160.62c.92-1.41,2.42-2.11,4.5-2.11s3.61.71,4.52,2.13c.92,1.42,1.38,3.53,1.38,6.37s-.45,4.99-1.37,6.43c-.91,1.44-2.41,2.16-4.48,2.16s-3.61-.73-4.54-2.18-1.39-3.58-1.39-6.42.46-4.98,1.38-6.38Z"/>
  <path class="cls-1" d="M508.13,141.56h-7.82v9.15c0,1.67.2,3.57.59,5.7h-.26c-1.9-2.79-4.64-4.19-8.23-4.19s-6.11,1.31-8.07,3.92c-1.95,2.62-2.92,6.27-2.92,10.96s.96,8.23,2.88,10.84c1.92,2.6,4.56,3.91,7.91,3.91h0c3.63,0,6.34-1.42,8.11-4.23h.33l1.51,3.71h5.98v-39.78ZM500.85,167.99c-.09,2.78-.59,4.75-1.52,5.91-.93,1.16-2.39,1.74-4.38,1.74-1.8,0-3.2-.7-4.17-2.11-.97-1.41-1.46-3.52-1.46-6.33s.49-4.95,1.44-6.43h0c.96-1.48,2.32-2.22,4.05-2.22,2.13,0,3.67.67,4.61,1.99.95,1.33,1.42,3.53,1.42,6.6v.84Z"/>
  <path class="cls-1" d="M529.58,176.05c-2.22,0-3.94-.62-5.17-1.87-1.23-1.24-1.89-2.97-1.97-5.19h18.43v-3.78c0-4.05-1.13-7.23-3.38-9.53-2.25-2.3-5.4-3.45-9.43-3.45s-7.54,1.31-9.94,3.92c-2.39,2.62-3.59,6.32-3.59,11.11s1.29,8.25,3.89,10.79c2.59,2.54,6.19,3.81,10.79,3.81h.02c2.23,0,4.13-.16,5.68-.49,1.55-.33,3.01-.84,4.37-1.52v-6.03c-1.67.78-3.27,1.35-4.8,1.71-1.53.35-3.16.54-4.89.54ZM524.24,159.34c.94-1.05,2.23-1.57,3.89-1.57s2.97.53,3.94,1.57c.97,1.05,1.47,2.54,1.51,4.46h-10.94c.14-1.93.68-3.41,1.61-4.46Z"/>
  <path class="cls-1" d="M224.48,218.59c-2.64-1.26-4.32-2.13-5.03-2.62-.71-.49-1.22-.99-1.55-1.51-.32-.52-.49-1.13-.49-1.83,0-1.13.4-2.04,1.2-2.74.8-.7,1.95-1.05,3.45-1.05,1.26,0,2.55.16,3.85.49,1.3.32,2.95.9,4.94,1.71l2.55-6.16c-1.93-.83-3.77-1.48-5.54-1.94s-3.62-.69-5.56-.69c-3.95,0-7.05.95-9.29,2.83-2.24,1.9-3.36,4.49-3.36,7.79,0,1.75.34,3.29,1.02,4.61.68,1.31,1.59,2.46,2.74,3.45s2.85,2.02,5.14,3.09c2.44,1.16,4.05,2,4.84,2.53.79.53,1.39,1.08,1.8,1.65s.62,1.22.62,1.95c0,1.31-.46,2.3-1.39,2.97s-2.26,1-4,1c-1.45,0-3.05-.23-4.8-.69s-3.88-1.25-6.4-2.38v7.37c3.07,1.5,6.6,2.25,10.59,2.25,4.33,0,7.71-.97,10.14-2.92v.02c2.43-1.94,3.64-4.6,3.64-7.98,0-2.44-.65-4.5-1.94-6.17-1.29-1.68-3.69-3.35-7.18-5.03Z"/>
  <path class="cls-1" d="M261.13,213.5c-2.04-1.67-4.98-2.5-8.82-2.5s-7.65.86-10.94,2.58l2.58,5.26c3.08-1.38,5.77-2.07,8.05-2.07,2.97,0,4.45,1.45,4.45,4.35v1.25l-4.96.16c-4.28.16-7.48.95-9.6,2.39-2.13,1.44-3.18,3.67-3.18,6.72s.79,5.13,2.36,6.7c1.57,1.57,3.74,2.35,6.48,2.35,2.23,0,4.05-.32,5.43-.96,1.39-.64,2.74-1.79,4.05-3.44h0s.21,0,.21,0l1.51,3.89h5.45v-19.05c0-3.41-1.02-5.95-3.07-7.62ZM256.45,229.28c0,1.72-.54,3.11-1.62,4.14s-2.53,1.56-4.33,1.56c-2.52,0-3.78-1.1-3.78-3.3,0-1.53.55-2.68,1.66-3.43,1.1-.75,2.79-1.16,5.06-1.23l3.02-.1v2.35Z"/>
  <path class="cls-1" d="M287.65,211.05c-1.94,0-3.68.35-5.2,1.06-1.52.71-2.73,1.75-3.59,3.13h-.44l-1.05-3.66h-5.96v28.58h7.79v-13.45c0-3.38.49-5.79,1.46-7.25.97-1.46,2.55-2.18,4.73-2.18,1.6,0,2.77.52,3.5,1.55s1.1,2.58,1.1,4.64v16.69h7.79v-18.64c0-3.39-.86-5.99-2.58-7.79-1.72-1.8-4.24-2.69-7.56-2.69Z"/>
  <path class="cls-1" d="M335.9,208.86c1.36,0,2.75.25,4.17.74,1.42.49,2.82,1.07,4.22,1.74l2.55-6.44c-3.67-1.75-7.31-2.64-10.94-2.64s-6.67.78-9.32,2.34c-2.65,1.56-4.68,3.8-6.1,6.72-1.42,2.92-2.13,6.33-2.13,10.22,0,6.17,1.44,10.9,4.33,14.2,2.88,3.3,7.04,4.94,12.47,4.94,3.78,0,7.21-.64,10.28-1.92v-6.65c-3.73,1.31-6.91,1.97-9.54,1.97-6.25,0-9.38-4.17-9.38-12.5,0-4,.82-7.13,2.46-9.37,1.64-2.24,3.95-3.36,6.93-3.36Z"/>
  <path class="cls-1" d="M363.81,212.51h0c-1.51.99-2.71,2.28-3.59,3.88h-.38l-1.15-4.8h-5.91v28.58h7.79v-14.55c0-2.3.69-4.09,2.08-5.37,1.39-1.28,3.33-1.92,5.82-1.92.91,0,1.67.08,2.3.26l.59-7.31c-.7-.16-1.57-.23-2.64-.23-1.77,0-3.41.49-4.92,1.47Z"/>
  <rect class="cls-1" x="376.56" y="211.59" width="7.79" height="28.58"/>
  <path class="cls-1" d="M380.47,200.38c-2.83,0-4.24,1.27-4.24,3.81h0c0,2.56,1.42,3.84,4.24,3.84,1.42,0,2.48-.34,3.18-1.01.71-.68,1.06-1.61,1.06-2.83,0-2.54-1.42-3.81-4.24-3.81Z"/>
  <path class="cls-1" d="M411.75,228.03c-.49-1.02-1.26-1.93-2.3-2.71-1.04-.78-2.68-1.63-4.91-2.53-2.5-1.01-4.13-1.76-4.87-2.27-.74-.51-1.11-1.11-1.11-1.81,0-1.24,1.15-1.86,3.45-1.86,1.29,0,2.56.2,3.81.58,1.24.4,2.58.9,4.01,1.51l2.36-5.63c-3.25-1.5-6.61-2.25-10.05-2.25-3.62,0-6.4.69-8.37,2.08-1.97,1.39-2.95,3.35-2.95,5.89,0,1.48.23,2.74.7,3.75.47,1.01,1.22,1.91,2.25,2.69,1.03.78,2.64,1.64,4.84,2.55,1.53.65,2.76,1.21,3.68,1.7.92.49,1.57.92,1.94,1.3.38.39.56.88.56,1.49,0,1.64-1.42,2.46-4.24,2.46-1.38,0-2.98-.23-4.8-.69s-3.44-1.03-4.89-1.71v6.44c1.28.54,2.65.96,4.12,1.24,1.47.28,3.24.42,5.31.42,4.05,0,7.1-.77,9.14-2.3,2.04-1.53,3.06-3.77,3.06-6.7,0-1.42-.25-2.64-.74-3.66h0Z"/>
  <path class="cls-1" d="M428.14,233.69c-.62-.53-.93-1.34-.93-2.46v-13.78h8v-5.86h-8v-6.09h-4.98l-2.25,6.03-4.29,2.61v3.3h3.73v13.78h0c0,3.16.71,5.52,2.13,7.09,1.43,1.57,3.7,2.36,6.81,2.36,2.83,0,5.22-.44,7.16-1.3v-5.8c-1.91.6-3.54.9-4.91.9-1.02,0-1.85-.26-2.46-.79Z"/>
  <path class="cls-1" d="M466.42,217.98c-1.13-2.23-2.74-3.95-4.83-5.14s-4.52-1.79-7.26-1.79c-4.42,0-7.84,1.29-10.28,3.89-2.44,2.59-3.66,6.22-3.66,10.89,0,3,.56,5.63,1.69,7.88,1.13,2.25,2.74,3.98,4.83,5.17,2.09,1.2,4.52,1.8,7.26,1.8,4.38,0,7.79-1.31,10.25-3.94,2.46-2.62,3.68-6.26,3.68-10.92,0-3-.56-5.62-1.69-7.85h0ZM458.76,232.26h0c-.91,1.44-2.41,2.16-4.48,2.16s-3.61-.73-4.54-2.18-1.39-3.58-1.39-6.42.46-4.98,1.38-6.38c.92-1.41,2.42-2.11,4.5-2.11s3.61.71,4.52,2.13c.92,1.42,1.38,3.53,1.38,6.37s-.45,4.99-1.37,6.43Z"/>
  <path class="cls-1" d="M449.98,207.76h0s0,.68,0,.68h5.19c1.21-.85,2.88-2.15,5.03-3.9,2.14-1.75,3.65-3.07,4.54-3.95v-.54h-8.74c-1.07,1.72-3.08,4.28-6.01,7.7Z"/>
  <path class="cls-1" d="M498.38,215c-1.91-2.64-4.56-3.95-7.93-3.95-3.58,0-6.28,1.42-8.11,4.24h-.3c.21-2.59.3-4.47.3-5.65v-9.25h-7.79v39.78h5.96l1.3-3.15h.54c1.91,2.44,4.54,3.66,7.9,3.66s6.07-1.29,8.04-3.89c1.97-2.59,2.95-6.25,2.95-10.97s-.96-8.2-2.86-10.83h0ZM491.87,232.15h0c-.95,1.48-2.22,2.22-3.82,2.22-1.98,0-3.42-.67-4.33-1.99s-1.37-3.53-1.37-6.6v-.84c.03-2.73.49-4.68,1.38-5.87.89-1.19,2.29-1.78,4.22-1.78,1.66,0,2.96.7,3.91,2.11.96,1.41,1.43,3.52,1.43,6.33s-.47,4.95-1.42,6.43Z"/>
  <path class="cls-1" d="M528.21,213.51h0c-2.04-1.68-4.98-2.51-8.82-2.51s-7.65.86-10.94,2.58l2.58,5.26c3.08-1.38,5.77-2.07,8.05-2.07,2.97,0,4.45,1.45,4.45,4.35v1.25l-4.96.16c-4.28.16-7.48.95-9.6,2.39-2.13,1.44-3.18,3.67-3.18,6.72s.79,5.13,2.36,6.7c1.57,1.57,3.74,2.35,6.48,2.35,2.23,0,4.05-.32,5.43-.96,1.39-.64,2.74-1.79,4.05-3.44h.21l1.51,3.89h5.45v-19.05c0-3.41-1.02-5.95-3.07-7.62ZM523.53,229.28c0,1.72-.54,3.11-1.62,4.14s-2.53,1.56-4.33,1.56c-2.52,0-3.78-1.1-3.78-3.3,0-1.53.55-2.68,1.66-3.43,1.1-.75,2.79-1.16,5.06-1.23l3.02-.1v2.35Z"/>
  <rect class="cls-1" x="539.31" y="200.39" width="7.79" height="39.78"/>
  <polygon class="cls-1" points="82.79 36.04 94.25 29.88 105.71 36.04 103.52 23 112.79 13.77 99.98 11.87 94.25 0 88.52 11.87 75.7 13.77 84.97 23 82.79 36.04"/>
  <path class="cls-1" d="M140.4,98.91l1.4-3.77c-9-4.96-27.74-8.51-47.56-8.72-19.81.21-38.56,3.76-47.56,8.72l1.4,3.77c7.23-4.23,24.96-8.26,46.16-8.48,21.2.23,38.92,4.25,46.16,8.48Z"/>
  <path class="cls-1" d="M32.15,63.31h.03l2.97,1.08,10.81,28.47c8.68-5.18,27.91-8.92,48.28-9.14,20.37.22,39.6,3.96,48.28,9.14l10.81-28.47,2.97-1.08,1.67-4.4,1.82-4.79-5.08-2.01-1.82,4.79-4.05-1.6,1.82-4.79-5.08-2.01-1.82,4.79-3.73-1.48,1.82-4.79-5.08-2.01-3.49,9.19,1.48,2.84-3.91,10.29c-2.72-.7-5.63-1.38-8.68-2.02l2-10.61,2.74-1.6.87-4.64.96-5.05-5.35-1.05-.96,5.05-4.26-.84.96-5.05-5.35-1.05-.96,5.05-3.93-.77.96-5.05-5.35-1.05-1.83,9.68,1.95,2.53-2.18,11.56c-2.59-.19-5.17-.3-7.72-.3-.17,0-.35,0-.53,0-.17,0-.35,0-.53,0-2.55,0-5.13.11-7.72.3l-2.18-11.56,1.95-2.53-1.83-9.68-5.35,1.05.96,5.05-3.93.77-.96-5.05-5.35,1.05.96,5.05-4.26.84-.96-5.05-5.35,1.05.96,5.05.87,4.64,2.74,1.6,2,10.61c-3.04.64-5.96,1.32-8.68,2.02l-3.91-10.29,1.48-2.84-3.49-9.19-5.08,2.01,1.82,4.79-3.73,1.48-1.82-4.79-5.08,2.01,1.82,4.79-4.05,1.6-1.82-4.79-5.08,2.01,1.82,4.79,1.67,4.4ZM139.35,64.92c.5-1.54,2.13-2.37,3.63-1.87,1.51.51,2.32,2.17,1.83,3.71l-1.98,6.1-5.46-1.84,1.98-6.1ZM134.73,78.5h0c.49-1.5,2.08-2.31,3.54-1.82,1.47.5,2.27,2.12,1.79,3.62l-1.93,5.96-5.33-1.8,1.93-5.96ZM109.74,57.9h0c.29-1.59,1.79-2.65,3.35-2.36,1.57.29,2.6,1.83,2.31,3.43l-1.15,6.32-5.65-1.07,1.15-6.32ZM106.96,72.01c.28-1.56,1.75-2.58,3.27-2.3,1.52.29,2.53,1.78,2.25,3.34l-1.11,6.17-5.52-1.04,1.11-6.17ZM80.47,70.4h0l1.12,6.17-5.52,1.04-1.11-6.17c-.28-1.56.73-3.06,2.25-3.34,1.52-.29,2.99.74,3.27,2.3ZM74.35,53.94h0c1.57-.29,3.07.76,3.35,2.36l1.15,6.32-5.65,1.07-1.15-6.32c-.29-1.6.74-3.13,2.31-3.43ZM52.69,76.9h0s1.93,5.95,1.93,5.95l-5.33,1.8-1.93-5.96c-.49-1.51.31-3.12,1.79-3.62,1.47-.5,3.06.32,3.54,1.83ZM44.43,61.44h0c1.51-.51,3.13.33,3.63,1.87l1.97,6.1-5.46,1.84-1.98-6.1c-.49-1.54.32-3.2,1.83-3.71Z"/>
  <path class="cls-1" d="M94.38,284.53h0s3.57,0,3.57,0c19.52,0,37.88-11.41,49.65-27.24-4.03,1.71-8.49,3.33-16.6,3.33-8.88,0-13.38-1.94-17.74-3.82-4.13-1.78-8.4-3.62-16.78-3.62s-12.65,1.84-16.78,3.62c-4.36,1.88-8.86,3.82-17.74,3.82s-13.24-1.88-17.53-3.73c11.76,16.08,30.23,27.64,49.94,27.64Z"/>
  <path class="cls-1" d="M31.05,215.93c0,3.94.38,7.95,1.12,11.94,5.52.6,8.96,2.08,12.28,3.52,4.16,1.79,8.47,3.65,16.92,3.65h0c8.45,0,12.75-1.86,16.92-3.66,3.6-1.55,8.71-3.16,15.02-3.64h.07l-.14-16.52h-.07c-5.88.49-10.81,2.01-14.22,3.48-4.32,1.86-8.78,3.79-17.58,3.79s-13.27-1.93-17.58-3.79c-3.39-1.46-6.91-2.98-12.74-3.48v4.71Z"/>
  <path class="cls-1" d="M41.25,251.51h0c1.2.45,2.33.93,3.33,1.36,4.13,1.78,8.4,3.62,16.78,3.62s12.64-1.84,16.77-3.62c3.6-1.55,9.1-3.15,15.36-3.65l-.16-18.04h-.78c-5.71.51-10.1,1.99-13.45,3.44-4.36,1.88-8.86,3.82-17.74,3.82s-13.38-1.94-17.74-3.82c-2.96-1.28-6.01-2.59-10.62-3.22.94,4.19,2.28,8.27,4,12.14,1.21,2.73,2.64,5.4,4.25,7.97Z"/>
  <path class="cls-1" d="M158.55,215.92h0s0-4.7,0-4.7c-5.83.5-9.34,2.01-12.74,3.48-4.32,1.86-8.78,3.79-17.58,3.79s-13.27-1.93-17.58-3.79c-3.42-1.47-8.07-3-13.94-3.48h-.07l-.14,16.52h.07c6.31.49,11.15,2.09,14.74,3.64,4.17,1.79,8.47,3.65,16.92,3.65s12.75-1.85,16.92-3.65c3.33-1.44,6.77-2.92,12.28-3.52.74-3.99,1.12-8.01,1.12-11.94Z"/>
  <path class="cls-1" d="M152.56,243.52h0c1.72-3.86,3.07-7.94,4-12.13-4.61.63-7.66,1.95-10.62,3.22-4.35,1.88-8.86,3.82-17.74,3.82s-13.38-1.94-17.74-3.82c-3.35-1.45-6.81-2.94-12.52-3.44h-1.43l-.16,18.04c6.25.51,11.48,2.1,15.08,3.65,4.13,1.78,8.4,3.62,16.77,3.62s12.64-1.84,16.78-3.62c1.01-.43,2.13-.92,3.33-1.37,1.61-2.56,3.03-5.24,4.25-7.97Z"/>
  <path class="cls-1" d="M168.65,114.87h9.63v15.13h-13.87v6.55h13.87v7.61h-13.87v6.55h13.87v7.61h-13.87v6.55h13.87v7.61h-13.87v6.55h13.87v7.61h-13.87v6.55h13.87v6.37l-13.94-.64-.3,6.54,14.25.66v8.5l-13.13-1.84-.87,6.49,13.93,1.95c-.02.43-.03.85-.05,1.28-.13,2.59-.4,5.15-.75,7.69l-11.68-3.6-1.85,6.27,12.35,3.81c-.54,2.47-1.18,4.91-1.92,7.29l-11.42-4.59-2.35,6.09,11.58,4.65c-1.19,2.99-2.51,5.9-4.01,8.71l-10.44-5.24-2.83,5.88,9.96,4.99c-1.91,3.02-4,5.92-6.26,8.65l-10.59-7.62-3.69,5.36,9.94,7.15c-2.49,2.58-5.14,5.01-7.93,7.26l-8.33-7.06-4.1,5.04,7.09,6.01c-3.03,2.07-6.2,3.94-9.5,5.61l-4.71-8.33-5.55,3.27,4.38,7.74c-3.67,1.51-7.45,2.76-11.35,3.73l-.63-10.95-6.4.39.68,11.89c-3.4.56-6.87.93-10.4,1.06v-11.98h-6.41v11.99c-3.53-.13-7-.48-10.4-1.04l.68-11.91-6.4-.39-.63,10.98c-3.91-.97-7.7-2.21-11.36-3.72l4.39-7.78-5.55-3.27-4.73,8.38c-3.3-1.67-6.48-3.54-9.52-5.61l7.14-6.04-4.1-5.04-8.38,7.1c-2.79-2.25-5.45-4.67-7.93-7.26l9.99-7.19-3.69-5.36-10.65,7.66c-2.27-2.74-4.36-5.64-6.28-8.66l10.04-5.03-2.83-5.88-10.52,5.27c-1.5-2.81-2.83-5.72-4.02-8.71l11.66-4.68-2.35-6.09-11.51,4.62c-.75-2.39-1.38-4.82-1.93-7.3l12.45-3.84-1.85-6.27-11.77,3.63c-.35-2.53-.62-5.08-.75-7.69-.02-.43-.03-.86-.05-1.29l14.03-1.96-.87-6.49-13.24,1.84v-8.39l14.11-.77-.3-6.54-13.8.66v-6.4h13.97v-6.55h-13.97v-7.61h13.97v-6.55h-13.97v-7.61h13.97v-6.55h-13.97v-7.61h13.97v-6.55h-13.97v-7.61h13.97v-6.55h-13.97v-15.13h9.74v-9.3H0v114.04c0,52.8,41.9,95.6,93.57,95.6.22,0,.44,0,.68,0,.22,0,.44,0,.68,0,51.68,0,93.57-42.8,93.57-95.6v-114.04h-19.85v9.29Z"/>
  <path class="cls-1" d="M31.25,207.77c6.18.45,9.83,2.02,13.37,3.54,4.12,1.78,8.38,3.61,16.74,3.61s12.62-1.84,16.74-3.61c3.42-1.47,6.97-2.97,12.77-3.48.25-.03.48-.05.73-.07v-.03h1.81v-67.44c0-4.07,2.72-7.37,6.06-7.37s6.06,3.31,6.06,7.37v4.31h-3.03v-3.54c0-2.18-1.36-3.96-3.03-3.96s-3.03,1.78-3.03,3.96v66.68h1.47c6.77.35,10.65,1.99,14.37,3.59,4.12,1.78,8.38,3.61,16.74,3.61s12.63-1.84,16.74-3.61c3.42-1.47,6.94-2.99,12.75-3.5v-102.24h.02s-127.29,0-127.29,0v102.2ZM112.01,161.13s-2.76-3.82-1.82-6.55c.94-2.73,4.35-6.04,11.82-7.79,0,0-6.42,4.71-6.92,7.15-.41,1.96.53,2.94.91,3.24.01.01.03.02.04.03.03.02.06.05.11.08.51.39,2.08,1.57,3.05,1.99,1.17.5,1.79.2,1.79.2v.02c.18-.59.71-1.02,1.35-1.02h10.48c.64,0,1.17.43,1.35,1.02v-.02s.62.3,1.79-.2c.97-.42,2.54-1.6,3.05-1.99.05-.04.08-.06.11-.08.01,0,.03-.02.04-.03.38-.31,1.31-1.28.91-3.24-.5-2.44-6.92-7.15-6.92-7.15,7.47,1.75,10.89,5.06,11.82,7.79.94,2.73-1.82,6.55-1.82,6.55l-2.44,2.69,4.64,1.63s-2.54,2.21-4.43,2.05c-1.89-.16-3.06-.53-3.06-.53l-3.14,15.28s.47,1.39.95,1.54c.47.15-1.23,3.96-1.23,3.96,0,0-1.57.18-2.23,1.24-.37.6-.64,1.02-.93,1.3.11.37.19.76.19,1.17,0,2.19-1.74,3.97-3.89,3.97s-3.89-1.78-3.89-3.97c0-.41.08-.8.19-1.17-.29-.28-.56-.7-.93-1.3-.66-1.06-2.23-1.24-2.23-1.24,0,0-1.7-3.8-1.23-3.96.47-.15.95-1.54.95-1.54l-3.14-15.28s-1.17.37-3.06.53c-1.89.16-4.43-2.05-4.43-2.05l4.64-1.63-2.44-2.69ZM46.64,161.13s-2.76-3.82-1.82-6.55c.94-2.73,4.35-6.04,11.82-7.79,0,0-6.42,4.71-6.92,7.15-.41,1.96.53,2.94.91,3.24.01.01.03.02.04.03.03.02.06.05.11.08.51.39,2.08,1.57,3.05,1.99,1.17.5,1.79.2,1.79.2v.02c.18-.59.71-1.02,1.35-1.02h10.48c.64,0,1.17.43,1.35,1.02v-.02s.62.3,1.79-.2c.97-.42,2.54-1.6,3.05-1.99.05-.04.08-.06.11-.08.01,0,.03-.02.04-.03.38-.31,1.31-1.28.91-3.24-.51-2.44-6.92-7.15-6.92-7.15,7.47,1.75,10.89,5.06,11.82,7.79.94,2.73-1.82,6.55-1.82,6.55l-2.44,2.69,4.64,1.63s-2.54,2.21-4.43,2.05c-1.89-.16-3.06-.53-3.06-.53l-3.14,15.28s.47,1.39.95,1.54c.47.15-1.23,3.96-1.23,3.96,0,0-1.57.18-2.23,1.24-.37.6-.64,1.02-.93,1.3.11.37.19.76.19,1.17,0,2.19-1.74,3.97-3.89,3.97s-3.89-1.78-3.89-3.97c0-.41.08-.8.19-1.17-.29-.28-.56-.7-.93-1.3-.66-1.06-2.23-1.24-2.23-1.24,0,0-1.7-3.8-1.23-3.96.47-.15.95-1.54.95-1.54l-3.14-15.28s-1.17.37-3.06.53c-1.89.16-4.43-2.05-4.43-2.05l4.64-1.63-2.44-2.69Z"/>
  <path class="cls-1" d="M127.58,194.21c1.9,0,3.43-1.57,3.43-3.51,0-.07-.01-.13-.01-.2-.15.08-.31.14-.49.16-.71.08-2.93,0-2.93,0,0,0-2.22.08-2.93,0-.19-.02-.35-.08-.49-.16,0,.07-.01.13-.01.2,0,1.94,1.54,3.51,3.43,3.51Z"/>
  <path class="cls-1" d="M122.4,172.7c.61-.62-1.6-2.88-2.21-2.25-.61.62-.61,1.63,0,2.25.61.62,1.6.62,2.21,0Z"/>
  <path class="cls-1" d="M135.21,172.7c.61-.62.61-1.63,0-2.25-.61-.62-2.82,1.63-2.21,2.25.61.62,1.6.62,2.21,0Z"/>
  <path class="cls-1" d="M69.84,172.7c.61-.62.61-1.63,0-2.25-.61-.62-2.82,1.63-2.21,2.25.61.62,1.6.62,2.21,0Z"/>
  <path class="cls-1" d="M57.03,172.7c.61-.62-1.6-2.88-2.21-2.25-.61.62-.61,1.63,0,2.25.61.62,1.6.62,2.21,0Z"/>
  <path class="cls-1" d="M62.21,194.21c1.9,0,3.43-1.57,3.43-3.51,0-.07-.01-.13-.01-.2-.15.08-.31.14-.49.16-.71.08-2.93,0-2.93,0,0,0-2.22.08-2.93,0-.19-.02-.35-.08-.49-.16,0,.07-.01.13-.01.2,0,1.94,1.54,3.51,3.43,3.51Z"/>
</svg>