<?xml version="1.0" encoding="UTF-8"?>
<svg id="Capa_1" data-name="Capa 1" xmlns="http://www.w3.org/2000/svg" viewBox="0 0 577.97 81.2">
  <path d="M214.08,5.44h.01c-6.03-4.61-13.35-5.44-46.33-5.44s-40.3.83-46.33,5.44c-6.03,4.61-7.8,12.65-7.8,34.63,0,23.16,1.65,30.96,7.8,35.69,6.03,4.61,13.36,5.44,46.56,5.44s40.06-.83,46.09-5.44c6.03-4.61,7.8-12.53,7.8-35.22s-1.77-30.49-7.8-35.1ZM194.35,57.92h.01c-3.07,2.35-7.09,2.83-26.36,2.83s-23.64-.35-26.83-2.84c-2.72-2.24-3.55-5.44-3.55-15.24,0-15.96,1.3-19.62,7.21-21.15,3.31-.95,6.62-1.06,22.93-1.06,22.22,0,24.94.35,27.42,3.78,2.13,2.72,2.72,7.21,2.72,18.55,0,9.57-.83,13-3.55,15.13Z"/>
  <polygon points="290.97 60.15 286.36 60.15 257.64 1.18 231.29 1.18 270.29 80.01 307.04 80.01 345.57 1.18 319.34 1.18 290.97 60.15"/>
  <polygon points="538.26 40.18 576.08 1.18 542.87 1.18 518.41 28.84 494.18 1.18 461.33 1.18 498.55 40.18 458.25 80.01 492.76 80.01 518.41 51.65 544.29 80.01 577.97 80.01 538.26 40.18"/>
  <rect x="406.64" y="31.2" width="40.03" height="17.37"/>
  <polygon points="383.09 48.57 383.1 48.57 383.1 31.2 383.09 31.2 383.09 19.74 446.68 19.74 446.68 1.18 359.46 1.18 359.46 80.01 447.15 80.01 447.15 61.1 383.09 61.1 383.09 48.57"/>
  <path d="M90.29,4.26c-3.39-2.05-14.14-3.07-32.26-3.07H0v78.83h23.99V20.92h33.8c11.11.12,11.35.12,13.12.95,2.36,1.06,3.19,3.31,3.19,8.51s-.71,7.45-2.84,8.75c-1.1.63-5.59,1.03-13.47,1.18h-10.25v19.74h10.37c14.89-.24,15.72.59,15.72,15.84v4.14h23.64v-7.33c.47-18.2-1.65-21.75-13.83-23.16,4.96-.71,7.21-1.65,9.57-3.55,3.9-3.31,5.08-7.68,5.08-19.15h0c0-13.72-1.77-18.92-7.8-22.58Z"/>
</svg>