<?xml version="1.0" encoding="UTF-8"?>
<svg id="Capa_1" data-name="Capa 1" xmlns="http://www.w3.org/2000/svg" viewBox="0 0 256.43 175.29">
  <defs>
    <style>
      .cls-1 {
        fill: #1d1d1b;
      }
    </style>
  </defs>
  <path class="cls-1" d="M243.36,66.4c-6.44,0-12.49,1.64-17.76,4.53-11.51,6.29-19.32,18.51-19.32,32.55v57.07h22.66v-44.65c0-1.73.1-3.31.26-4.8.68-3.89,1.95-7.58,3.74-10.96,3.65-4.93,9.66-6.73,17.5-6.73h5.99v-24.6c-4.07-1.54-8.47-2.42-13.08-2.42Z"/>
  <path class="cls-1" d="M165.89,86.71c-.23-.18-.46-.35-.7-.52-6.99-5.21-15.63-8.33-25.01-8.33-19.73,0-36.24,13.64-40.72,32-.78,3.2-1.24,6.52-1.24,9.95,0,9.53,3.22,18.3,8.57,25.34,7.08,10.5,18.28,16.68,31.06,16.68.58,0,1.11-.07,1.67-.1.22,0,.43.03.65.03,9.7,0,18.6-3.32,25.71-8.85v7.52h21.86V47.6h-21.86v39.11ZM141.93,142.13c-2.78,0-5.43-.51-7.9-1.41-8.95-3.24-15.36-11.79-15.36-21.85,0-5.8,2.14-11.09,5.65-15.17,4.27-4.95,10.56-8.09,17.61-8.09,12.84,0,23.26,10.41,23.26,23.26s-10.41,23.26-23.26,23.26Z"/>
  <path class="cls-1" d="M41.74,41.05c-6.24,5.83-6.57,15.61-.74,21.84,5.83,6.24,15.6,6.57,21.84.74,6.24-5.83,6.57-15.61.74-21.84-5.83-6.24-15.6-6.57-21.84-.74Z"/>
  <path class="cls-1" d="M101.93,65.88l.22-.6h-.07l-27.54-.37-11.31,37.71-11.11,32.29-11.14-32.2-12.95-37.43h0c-2.05-6.11-3.46-8.49-3.46-13.33,0-4.29,1.01-8.34,2.77-11.96,4.45-9.17,13.82-15.5,24.69-15.5s20.24,6.34,24.69,15.5h25.7C97.03,17.07,76.5,0,51.94,0S6.85,17.07,1.44,39.98c-.91,3.85-1.44,7.84-1.44,11.96,0,4.62.66,9.07,1.79,13.33h-.04l.15.4c.77,2.82,1.77,5.54,2.99,8.15l31.81,86.74h30.51l31.88-86.93c1.15-2.49,2.1-5.07,2.84-7.75Z"/>
  <path class="cls-1" d="M248.06,158.44c-4.9,0-8.37,3.54-8.37,8.4s3.46,8.45,8.37,8.45,8.32-3.58,8.32-8.45-3.46-8.4-8.32-8.4ZM248.06,173.65c-4.04,0-6.6-2.8-6.6-6.8s2.56-6.8,6.6-6.8,6.63,2.8,6.63,6.8-2.63,6.8-6.63,6.8Z"/>
  <path class="cls-1" d="M251.77,165.12c0-1.69-1.24-2.76-3.09-2.76h-3.96v8.86h2.15v-3.29h.7l1.98,3.29,2.6-.04-2.31-3.42c1.19-.37,1.94-1.31,1.94-2.63ZM248.56,166.14h-1.69v-1.85h1.69c.58,0,1.07.25,1.07.91s-.49.95-1.07.95Z"/>
</svg>