<?xml version="1.0" encoding="UTF-8"?>
<svg id="Capa_1" data-name="Capa 1" xmlns="http://www.w3.org/2000/svg" viewBox="0 0 382.23 83.62">
  <path d="M373.47,66.08c1.5,0,2.95.38,4.33,1.13,1.38.75,2.47,1.83,3.26,3.23.79,1.41,1.18,2.87,1.18,4.41s-.39,2.98-1.16,4.37c-.77,1.39-1.85,2.47-3.24,3.24-1.39.77-2.84,1.16-4.37,1.16s-2.98-.39-4.37-1.16c-1.39-.77-2.47-1.85-3.24-3.24-.77-1.39-1.16-2.84-1.16-4.37s.39-3,1.18-4.41c.79-1.41,1.88-2.48,3.26-3.23,1.38-.75,2.82-1.13,4.33-1.13h.01ZM373.48,67.8c-1.2,0-2.36.3-3.47.91-1.11.6-1.98,1.47-2.62,2.6-.64,1.13-.95,2.31-.95,3.55s.31,2.4.93,3.51c.62,1.11,1.49,1.98,2.61,2.61,1.11.62,2.28.94,3.5.94s2.4-.31,3.51-.94,1.98-1.5,2.61-2.61c.62-1.11.94-2.29.94-3.51s-.32-2.42-.95-3.55c-.64-1.13-1.51-1.99-2.62-2.6-1.11-.6-2.27-.91-3.47-.91h0ZM369.51,79.54v-9.3h1.89c1.77,0,2.76,0,2.98.02.62.05,1.11.18,1.46.37.35.2.64.49.87.9.23.4.35.85.35,1.33,0,.67-.22,1.25-.66,1.72-.44.48-1.05.77-1.85.88.28.11.5.22.65.35s.36.36.63.71c.07.09.3.47.69,1.13l1.1,1.88h-2.33l-.78-1.51c-.53-1.01-.96-1.65-1.31-1.92-.34-.26-.78-.39-1.31-.39h-.49v3.82h-1.89,0ZM371.4,74.25h.77c1.09,0,1.77-.04,2.03-.13s.47-.23.62-.44c.15-.21.23-.45.23-.71s-.07-.49-.22-.69-.36-.35-.63-.44-.95-.13-2.02-.13h-.77v2.54h0Z"/>
  <g>
    <path d="M46.93,58c-6.22.46-9.32.7-15.54,1.21-5.66-7.83-8.49-11.89-14.15-20.38-1.83.05-2.74.07-4.57.12v21.89c-5.07.47-7.61.71-12.68,1.21V0c8.17.76,12.25,1.12,20.42,1.81,2.82.23,5.27.63,7.36,1.19,2.09.56,4.03,1.52,5.8,2.88,1.82,1.4,3.26,3.11,4.33,5.12,1.07,2.01,1.6,4.5,1.6,7.49,0,4.23-.87,7.64-2.62,10.29-1.75,2.65-4.09,4.79-7.02,6.44,6.83,9.56,10.25,14.09,17.08,22.79h0ZM26.42,19.85c0-1.44-.25-2.69-.74-3.75-.49-1.06-1.31-1.91-2.43-2.53-.79-.43-1.68-.72-2.66-.87-.97-.15-2.2-.27-3.65-.35-1.7-.09-2.56-.13-4.26-.23v16.08c1.46.01,2.19.01,3.65.02,1.77.01,3.28-.11,4.52-.35,1.24-.24,2.29-.78,3.15-1.55.8-.71,1.43-1.57,1.82-2.56.39-1,.6-2.3.6-3.92Z"/>
    <path d="M76.44,57.09c-6.81.42-12.06-.88-15.73-4.06-3.67-3.19-5.5-8.15-5.5-14.77V4.4c5.1.34,7.65.5,12.75.8v32.04c0,3.56.67,6.21,1.99,7.9,1.33,1.69,3.5,2.46,6.49,2.34,2.93-.12,5.08-1.01,6.46-2.68,1.37-1.67,2.06-4.27,2.06-7.83V6.14c5.1.26,7.65.38,12.75.61v30.72c0,5.93-1.79,10.52-5.37,13.88-3.58,3.37-8.88,5.3-15.9,5.72h0Z"/>
    <path d="M156.21,53.03c-4.91.09-7.36.13-12.27.25-6.63-10.44-13.17-20.95-19.56-31.55v32.1c-4.66.15-7,.24-11.66.43V7.37c6.26.23,9.39.34,15.64.53,6.48,10.69,9.71,15.89,16.19,26.16V8.32c4.66.1,7,.14,11.66.22v44.49h0Z"/>
    <path d="M166.29,52.88c5.68-14.71,11.41-29.4,17.14-44.09,5.56.02,8.34.01,13.91-.02,5.74,14.71,11.47,29.43,17.14,44.16-5.25-.07-7.87-.1-13.12-.13-1.27-3.61-1.9-5.41-3.17-9-6.38-.02-9.57-.02-15.95-.01-1.27,3.6-1.9,5.39-3.17,8.99-5.11.03-7.67.05-12.78.11h0ZM195.39,35.81c-2.07-5.8-3.11-8.7-5.18-14.5-2.07,5.8-3.11,8.69-5.18,14.5h10.36,0Z"/>
    <path d="M269.24,54.48c-6.16-.26-9.24-.38-15.41-.59-5.54-7.69-8.3-11.44-13.84-18.84-1,1.24-1.49,1.85-2.49,3.08v15.27c-5.1-.13-7.65-.19-12.74-.29V8.47c5.1-.09,7.65-.14,12.74-.27v20.06c6.49-8.04,9.73-12.12,16.22-20.53,5.9-.19,8.85-.3,14.76-.53-7.24,9.06-10.86,13.42-18.1,21.95,7.54,9.84,11.31,14.86,18.85,25.32Z"/>
    <path d="M275.94,54.77c5.89-16.18,11.56-32.42,17.14-48.7,5.56-.29,8.34-.44,13.91-.77,5.88,17.38,11.59,34.81,17.14,52.3-5.25-.37-7.87-.55-13.12-.89-1.27-4.3-1.9-6.43-3.17-10.67-6.38-.24-9.57-.35-15.95-.56-1.27,4-1.9,5.98-3.17,9.93-5.11-.27-7.67-.39-12.78-.63h0ZM305.04,36.7c-2.07-6.75-3.11-10.08-5.18-16.67-2.07,6.69-3.11,9.98-5.18,16.52,4.15.06,6.22.09,10.36.15h0Z"/>
    <path d="M376.61,0c-5.68,12.02-11.4,24.02-17.52,35.83v24.58c-5.1-.46-7.65-.68-12.75-1.1v-22.96c-5.69-10.93-11.64-21.77-17.83-32.42,5.81-.4,8.71-.62,14.52-1.06,3.98,7.73,5.97,11.69,9.95,19.86,3.83-8.34,5.75-12.63,9.58-21.46,5.62-.48,8.42-.74,14.04-1.26h0Z"/>
  </g>
</svg>