<?xml version="1.0" encoding="UTF-8"?>
<svg id="Capa_1" data-name="Capa 1" xmlns="http://www.w3.org/2000/svg" viewBox="0 0 274.31 274.31">
  <polygon points="83.02 126.59 64.2 126.59 64.2 118.95 82.27 118.95 82.27 113.87 64.2 113.87 64.2 106.18 83.02 106.18 83.02 100.92 58.28 100.92 58.28 131.85 83.02 131.85 83.02 126.59"/>
  <path d="M107.21,126.02c.4-5.97-5.3-6.63-10.21-6.98-2.83-.18-5.39-.44-5.39-1.86,0-1.59,2.17-2.25,4.6-2.25,1.33,0,4.73.26,5.17,2.74l5.3-.18c-.44-5.7-5.79-7.11-10.52-7.11-4.33,0-10.21,1.59-10.21,6.85s5.74,6.1,10.47,6.36c3.54.13,4.9.84,4.9,1.9,0,1.28-1.9,2.21-4.95,2.21-2.7,0-5.21-.53-5.35-2.65l-5.48-.09c.35,5.52,5.21,7.34,10.69,7.34,5.04,0,10.34-1.99,10.96-6.28Z"/>
  <path d="M133.77,121.34c0-5.17-3.27-10.38-10.47-10.87-2.7-.18-5.52.66-7.25,3.27l-.58-2.92h-4.77v30.93h5.7v-12.37c1.5,2.25,3.62,2.87,5.92,2.87,6.98,0,11.45-4.81,11.45-10.91ZM122.15,127.21c-3.76,0-5.97-2.61-5.97-5.92s2.3-5.83,5.97-5.83c3.93,0,5.88,3.09,5.88,5.88s-1.94,5.88-5.88,5.88Z"/>
  <path d="M145.37,132.29c2.87,0,5.97-1.1,7.42-3.41l.53,2.96h5.13l-.22-4.51v-8c0-5.97-5.61-9.23-11.05-9.23-3.62,0-7.25.97-9.5,4.46l3.62,3.14c1.15-1.55,3.36-2.43,5.48-2.43,2.43,0,4.82,1.1,5.57,3.58h-6.67c-4.64,0-9.1,1.63-9.1,6.45s4.42,6.94,8.79,6.98ZM145.5,123.01h6.98c-.49,3.58-3.93,4.42-6.54,4.42-1.41,0-3.67-.53-3.67-2.17,0-1.46,1.68-2.25,3.22-2.25Z"/>
  <path d="M173.39,132.29c4.37,0,8.75-2.03,10.25-7.34l-4.99-1.1c-1.28,3.1-3.49,3.49-5.26,3.49-3.32,0-5.44-2.65-5.44-5.92s1.99-6.05,5.44-6.05c1.86,0,4.15.4,5.21,3.09l4.9-.84c-1.55-5.39-5.66-7.25-10.12-7.25-6.72,0-11.18,4.42-11.18,11.05s4.73,10.87,11.18,10.87Z"/>
  <path d="M208.32,132.21c6.59,0,11.49-4.46,11.49-10.92s-4.9-10.87-11.49-10.87-11.58,4.46-11.58,10.87,4.9,10.92,11.58,10.92ZM208.32,115.33c3.31,0,5.7,2.47,5.7,5.97s-2.39,6.01-5.7,6.01-5.74-2.52-5.74-6.01,2.39-5.97,5.74-5.97Z"/>
  <rect x="187.39" y="110.8" width="5.61" height="21.03"/>
  <path d="M190.19,108.5c1.84,0,3.34-1.49,3.34-3.34s-1.49-3.34-3.34-3.34-3.33,1.49-3.33,3.34,1.49,3.34,3.33,3.34Z"/>
  <polygon points="76.3 157.61 64.24 141.75 58.28 141.75 58.28 172.68 64.42 172.68 64.42 155.71 64.2 151.07 74.54 164.51 77.94 164.51 88.32 150.94 88.1 155.49 88.1 172.68 94.24 172.68 94.24 141.75 88.41 141.75 76.3 157.61"/>
  <path d="M120.25,160.18c0-5.97-5.61-9.24-11.05-9.24-3.62,0-7.25.97-9.5,4.46l3.63,3.14c1.15-1.55,3.36-2.43,5.48-2.43,2.43,0,4.82,1.1,5.57,3.58h-6.67c-4.64,0-9.1,1.63-9.1,6.45s4.42,6.94,8.79,6.98c2.87,0,5.97-1.1,7.42-3.4l.53,2.96h5.13l-.22-4.51v-8ZM107.97,168.26c-1.41,0-3.67-.53-3.67-2.17,0-1.46,1.68-2.25,3.23-2.25h6.98c-.49,3.58-3.93,4.42-6.54,4.42Z"/>
  <path d="M145.1,168.53c-2.7,0-5.21-.53-5.35-2.65l-5.48-.09c.35,5.52,5.21,7.34,10.69,7.34,5.04,0,10.34-1.99,10.96-6.28.4-5.97-5.3-6.63-10.21-6.98-2.83-.18-5.39-.44-5.39-1.86,0-1.59,2.17-2.25,4.6-2.25,1.32,0,4.73.26,5.17,2.74l5.3-.18c-.44-5.7-5.79-7.11-10.52-7.11-4.33,0-10.21,1.59-10.21,6.85s5.74,6.1,10.47,6.36c3.54.13,4.9.84,4.9,1.9,0,1.28-1.9,2.21-4.95,2.21Z"/>
  <path d="M165.17,161.85c0-4.06,2.74-5.74,5.39-5.74,2.48.05,4.86,1.63,4.82,5.79v10.78h5.79v-10.74c0-8.04-5.39-10.65-10.52-10.65-2.12,0-4.51,1.06-5.48,2.74v-12.29h-5.74v30.93h5.74v-10.83Z"/>
  <path d="M193.56,173.12c2.87,0,5.96-1.1,7.42-3.4l.53,2.96h5.13l-.22-4.51v-8c0-5.97-5.61-9.24-11.05-9.24-3.62,0-7.25.97-9.5,4.46l3.63,3.14c1.15-1.55,3.36-2.43,5.48-2.43,2.43,0,4.82,1.1,5.57,3.58h-6.67c-4.64,0-9.1,1.63-9.1,6.45s4.42,6.94,8.79,6.98ZM193.69,163.84h6.98c-.49,3.58-3.93,4.42-6.54,4.42-1.41,0-3.67-.53-3.67-2.17,0-1.46,1.68-2.25,3.23-2.25Z"/>
  <rect x="124.57" y="151.74" width="5.61" height="20.94"/>
  <circle cx="127.37" cy="146.01" r="3.34"/>
  <path d="M226.83,47.48C203.41,18.55,167.67,0,127.64,0,57.26,0,0,57.26,0,127.64c0,40.03,18.55,75.77,47.48,99.19,23.42,28.92,59.16,47.48,99.19,47.48,70.38,0,127.64-57.26,127.64-127.64,0-40.03-18.55-75.77-47.48-99.19ZM7.51,127.64C7.51,61.4,61.4,7.51,127.64,7.51c25.37,0,48.9,7.96,68.31,21.44-15.17-6.38-31.82-9.92-49.28-9.92-70.38,0-127.64,57.26-127.64,127.64,0,17.46,3.54,34.11,9.92,49.28-13.48-19.41-21.44-42.94-21.44-68.31ZM52.83,221.48c-16.41-20.55-26.3-46.53-26.3-74.81,0-66.24,53.89-120.13,120.13-120.13,28.28,0,54.26,9.88,74.81,26.3,16.41,20.55,26.3,46.53,26.3,74.81,0,66.24-53.89,120.13-120.13,120.13-28.28,0-54.26-9.88-74.81-26.3ZM146.67,266.8c-25.37,0-48.9-7.96-68.31-21.44,15.17,6.38,31.82,9.92,49.28,9.92,70.38,0,127.64-57.26,127.64-127.64,0-17.46-3.54-34.11-9.92-49.28,13.48,19.41,21.44,42.94,21.44,68.31,0,66.24-53.89,120.13-120.13,120.13Z"/>
</svg>