<?xml version="1.0" encoding="UTF-8"?>
<svg id="Capa_1" data-name="Capa 1" xmlns="http://www.w3.org/2000/svg" viewBox="0 0 662.25 145.55">
  <rect width="7.65" height="145.55"/>
  <polygon points="46.99 47.07 55.52 47.07 55.52 16.49 67.32 16.49 67.32 8.72 35.19 8.72 35.19 16.49 46.99 16.49 46.99 47.07"/>
  <path d="M107.21,47.11l-9.47-13.71c2.47-.91,4.46-2.34,6-4.31,1.54-1.97,2.3-4.48,2.3-7.6v-.1c0-4-1.27-7.09-3.84-9.33-2.57-2.24-6.14-3.36-10.77-3.36h-17.73v38.38h8.54v-12.29h6.69l8.3,12.29v.03h9.98ZM95.68,25.9c-1.13.98-2.74,1.49-4.83,1.49h-8.64v-11.03h8.47c2.13,0,3.77.44,4.94,1.36,1.2.92,1.78,2.28,1.78,4.11l-.03.03v.1c0,1.63-.55,2.95-1.68,3.94Z"/>
  <polygon points="143.04 39.5 121.99 39.5 121.99 31.46 140.27 31.46 140.27 23.96 121.99 23.96 121.99 16.19 142.77 16.19 142.77 8.69 113.58 8.69 113.58 47 143.04 47 143.04 39.5"/>
  <polygon points="158.92 22.67 177.71 47.07 184.95 47.07 184.95 8.69 176.51 8.69 176.51 32.31 158.34 8.69 150.48 8.69 150.48 47.07 158.92 47.07 158.92 22.67"/>
  <polygon points="223.57 39.5 202.51 39.5 202.51 31.46 220.79 31.46 220.79 23.96 202.51 23.96 202.51 16.19 223.29 16.19 223.29 8.69 194.11 8.69 194.11 47 223.57 47 223.57 39.5"/>
  <path d="M250.69,46.83c1.71-.54,3.22-1.29,4.46-2.31,1.23-1.02,2.23-2.24,2.92-3.73.69-1.46,1.03-3.16,1.03-5.06v-.1c0-1.7-.24-3.12-.79-4.34-.55-1.22-1.34-2.27-2.4-3.16-1.03-.92-2.33-1.66-3.87-2.31-1.54-.65-3.29-1.22-5.25-1.73-1.68-.44-3.05-.81-4.15-1.15-1.1-.34-1.95-.68-2.57-1.05-.62-.34-1.06-.78-1.3-1.22-.24-.48-.38-1.02-.38-1.63v-.1c0-.95.41-1.73,1.24-2.37.82-.64,2.09-.95,3.74-.95s3.33.34,4.97,1.02c1.68.68,3.36,1.63,5.11,2.78l4.42-6.35c-1.99-1.6-4.18-2.78-6.55-3.63-2.4-.85-5.01-1.26-7.85-1.26-2.02,0-3.84.27-5.49.82-1.68.54-3.09,1.33-4.29,2.34-1.2,1.02-2.13,2.24-2.78,3.63-.65,1.43-.99,2.99-.99,4.75v.1c0,1.9.31,3.49.92,4.78.62,1.29,1.47,2.37,2.57,3.22,1.1.88,2.47,1.6,4.05,2.17,1.61.58,3.39,1.12,5.35,1.6,1.65.41,2.95.78,3.98,1.15,1.03.34,1.82.71,2.4,1.08.58.37.96.78,1.16,1.19.21.44.31.92.31,1.46v.1c0,1.12-.48,2-1.47,2.65-.96.64-2.33.95-4.12.95-2.2,0-4.25-.41-6.1-1.25-1.85-.85-3.67-1.97-5.45-3.39l-5.04,5.97c2.33,2.07,4.9,3.6,7.75,4.61,2.85.98,5.76,1.49,8.71,1.49,2.13,0,4.05-.24,5.76-.78Z"/>
  <path d="M291.67,38.45h16.39l3.53,8.62h8.95l-16.63-38.65h-7.85l-16.63,38.65h8.71l3.53-8.62ZM299.87,18.56l5.15,12.45h-10.29l5.14-12.45Z"/>
  <path d="M334.85,34.79h6.69l8.3,12.29v.03h9.98l-9.47-13.71c2.47-.91,4.46-2.34,6-4.31,1.54-1.97,2.3-4.48,2.3-7.6v-.1c0-4-1.27-7.09-3.84-9.33-2.57-2.24-6.14-3.36-10.77-3.36h-17.73v38.38h8.54v-12.29ZM334.81,16.36h8.47c2.12,0,3.77.44,4.94,1.36,1.2.92,1.78,2.28,1.78,4.11l-.03.03v.1c0,1.63-.55,2.95-1.68,3.94-1.13.98-2.74,1.49-4.83,1.49h-8.64v-11.03Z"/>
  <path d="M384.85,47.71c3.53,0,6.69-.58,9.43-1.76l-.03-.07c2.78-1.19,5.14-2.61,7.13-4.31v-16.66h-16.84v7.29h8.57v5.53c-2.16,1.53-4.83,2.31-8.02,2.31-1.75,0-3.33-.31-4.73-.92-1.4-.61-2.64-1.46-3.7-2.54-1.06-1.09-1.85-2.38-2.44-3.87-.58-1.46-.86-3.09-.86-4.85v-.1c0-1.66.28-3.19.86-4.65.55-1.46,1.37-2.71,2.37-3.8.99-1.08,2.2-1.93,3.53-2.58,1.34-.65,2.81-.95,4.36-.95,1.1,0,2.13.1,3.05.27.93.2,1.78.44,2.57.78.79.34,1.54.75,2.3,1.22.76.48,1.47,1.02,2.23,1.63l5.39-6.41c-.99-.85-2.02-1.59-3.09-2.24-1.07-.64-2.2-1.19-3.43-1.63-1.23-.44-2.57-.78-3.98-1.02-1.41-.24-2.98-.37-4.73-.37-2.95,0-5.66.51-8.13,1.56-2.47,1.05-4.6,2.48-6.41,4.27-1.82,1.83-3.22,3.9-4.25,6.31-.99,2.41-1.51,4.96-1.51,7.7v.1c0,2.85.51,5.5,1.51,7.91.99,2.41,2.4,4.48,4.18,6.24,1.78,1.77,3.94,3.12,6.41,4.11,2.47.99,5.25,1.49,8.26,1.49Z"/>
  <polygon points="417.84 31.46 436.12 31.46 436.12 23.96 417.84 23.96 417.84 16.19 438.62 16.19 438.62 8.69 409.44 8.69 409.44 47 438.9 47 438.9 39.5 417.84 39.5 417.84 31.46"/>
  <polygon points="472.33 32.31 454.16 8.69 446.3 8.69 446.3 47.07 454.74 47.07 454.74 22.67 473.53 47.07 480.77 47.07 480.77 8.69 472.33 8.69 472.33 32.31"/>
  <polygon points="487.12 16.49 498.91 16.49 498.91 47.07 507.45 47.07 507.45 16.49 519.25 16.49 519.25 8.72 487.12 8.72 487.12 16.49"/>
  <rect x="525.94" y="8.69" width="8.54" height="38.38"/>
  <polygon points="570 32.31 551.83 8.69 543.98 8.69 543.98 47.07 552.41 47.07 552.41 22.67 571.21 47.07 578.44 47.07 578.44 8.69 570 8.69 570 32.31"/>
  <path d="M621.34,13.85c-1.82-1.77-4.01-3.16-6.52-4.21-2.54-1.05-5.25-1.56-8.26-1.56s-5.76.51-8.3,1.56c-2.54,1.05-4.73,2.48-6.55,4.28-1.82,1.83-3.26,3.9-4.29,6.31-1.03,2.41-1.54,4.95-1.54,7.7v.1c0,2.75.48,5.3,1.51,7.7.99,2.37,2.43,4.48,4.25,6.24,1.85,1.76,4.01,3.16,6.52,4.21,2.54,1.05,5.28,1.56,8.26,1.56s5.73-.51,8.26-1.56c2.54-1.05,4.73-2.48,6.55-4.28,1.82-1.83,3.26-3.9,4.29-6.31h.03c1.03-2.41,1.54-4.95,1.54-7.7v-.1c0-2.75-.48-5.29-1.51-7.7-.99-2.37-2.43-4.48-4.25-6.24ZM618.16,27.86v.1c0,1.66-.28,3.19-.86,4.65-.55,1.43-1.37,2.71-2.37,3.8-.99,1.08-2.23,1.97-3.67,2.58-1.44.61-2.95.92-4.7.92s-3.33-.31-4.73-.95c-1.4-.64-2.64-1.53-3.7-2.61-1.06-1.09-1.85-2.38-2.44-3.84-.58-1.46-.86-3.02-.86-4.65v-.1c0-1.63.28-3.16.86-4.61.55-1.43,1.34-2.71,2.37-3.8,1.03-1.08,2.26-1.97,3.67-2.58,1.41-.61,3.05-.92,4.73-.92s3.26.31,4.7.95c1.44.65,2.67,1.53,3.74,2.61,1.06,1.09,1.85,2.37,2.43,3.84.58,1.46.86,3.02.86,4.65l-.03-.03Z"/>
  <path d="M661.47,31.29c-.55-1.22-1.34-2.27-2.4-3.16-1.03-.92-2.33-1.66-3.87-2.31-1.54-.65-3.29-1.22-5.25-1.73-1.68-.44-3.05-.81-4.15-1.15-1.1-.34-1.95-.68-2.57-1.05-.62-.34-1.06-.78-1.3-1.22-.24-.48-.38-1.02-.38-1.63v-.1c0-.95.41-1.73,1.24-2.37.82-.64,2.09-.95,3.74-.95s3.33.34,4.97,1.02c1.68.68,3.36,1.63,5.11,2.78l4.42-6.35c-1.99-1.6-4.18-2.78-6.55-3.63-2.4-.85-5.01-1.26-7.85-1.26-2.02,0-3.84.27-5.49.82-1.68.54-3.09,1.33-4.29,2.34-1.2,1.02-2.13,2.24-2.78,3.63-.65,1.43-.99,2.99-.99,4.75v.1c0,1.9.31,3.49.92,4.78.62,1.29,1.48,2.37,2.57,3.22,1.1.88,2.47,1.6,4.05,2.17,1.61.58,3.39,1.12,5.35,1.6,1.65.41,2.95.78,3.98,1.15,1.03.34,1.82.71,2.4,1.08.58.37.96.78,1.16,1.19.21.44.31.92.31,1.46v.1c0,1.12-.48,2-1.47,2.65-.96.64-2.33.95-4.12.95-2.19,0-4.25-.41-6.1-1.25-1.85-.85-3.67-1.97-5.45-3.39l-5.04,5.97c2.33,2.07,4.9,3.6,7.75,4.61,2.85.98,5.76,1.49,8.71,1.49,2.13,0,4.05-.24,5.76-.78,1.71-.54,3.22-1.29,4.46-2.31,1.23-1.02,2.23-2.24,2.92-3.73.69-1.46,1.03-3.16,1.03-5.06v-.1c0-1.7-.24-3.12-.79-4.34Z"/>
  <path d="M79.12,122.95c-2.44,1.29-5.42,1.93-8.95,1.93-2.67,0-5.11-.51-7.3-1.53-2.23-1.02-4.11-2.37-5.66-4.14-1.58-1.73-2.78-3.77-3.67-6.11-.89-2.34-1.34-4.82-1.34-7.43v-.17c0-2.65.44-5.09,1.34-7.4.89-2.31,2.12-4.31,3.7-6.07,1.58-1.73,3.5-3.12,5.69-4.1,2.19-.98,4.6-1.49,7.2-1.49,3.12,0,5.93.61,8.44,1.83,2.5,1.22,4.97,2.89,7.37,5.06l8.64-9.88c-1.41-1.39-2.95-2.68-4.59-3.84-1.65-1.19-3.43-2.17-5.39-2.99-1.92-.82-4.08-1.46-6.48-1.93-2.4-.48-5.04-.71-7.92-.71-4.77,0-9.12.82-13.07,2.48-3.94,1.66-7.34,3.94-10.15,6.82-2.81,2.88-5.04,6.24-6.62,10.04-1.61,3.84-2.4,7.91-2.4,12.28v.17c0,4.38.82,8.48,2.4,12.32,1.58,3.84,3.81,7.2,6.62,10.01,2.85,2.82,6.21,5.06,10.08,6.69,3.88,1.63,8.09,2.44,12.62,2.44,3.02,0,5.73-.24,8.13-.75,2.4-.48,4.59-1.19,6.65-2.17,2.06-.99,3.91-2.1,5.62-3.46l.03.03c1.72-1.36,3.36-2.85,4.94-4.55l-8.64-8.65c-2.43,2.24-4.87,3.97-7.3,5.26Z"/>
  <path d="M127.13,74.56l-26.51,61.63h13.85l5.66-13.71h26.13l5.66,13.71h14.27l-26.51-61.63h-12.55ZM124.97,110.56l8.21-19.81,8.21,19.81h-16.43Z"/>
  <path d="M223.6,107.47c2.44-3.12,3.67-7.16,3.67-12.11v-.17c0-6.35-2.06-11.3-6.14-14.86-4.08-3.56-9.81-5.33-17.18-5.33h-28.26v61.19h13.61v-19.58h10.7l13.24,19.58h15.88l-15.09-21.85c3.94-1.46,7.13-3.73,9.57-6.86ZM213.55,96.07c0,2.61-.92,4.72-2.71,6.28-1.78,1.59-4.35,2.37-7.71,2.37h-13.79v-17.58h13.51c3.36,0,5.97.71,7.85,2.17,1.88,1.46,2.81,3.63,2.81,6.55l.03.03v.17Z"/>
  <path d="M268.87,112.57h13.68v8.79c-3.46,2.48-7.72,3.7-12.79,3.7-2.78,0-5.28-.51-7.55-1.46-2.3-.95-4.25-2.31-5.93-4.07-1.68-1.77-2.95-3.8-3.88-6.18-.93-2.34-1.37-4.92-1.37-7.74v-.17c0-2.61.44-5.09,1.37-7.4.93-2.31,2.2-4.31,3.81-6.04,1.61-1.7,3.5-3.09,5.66-4.1,2.13-1.02,4.46-1.53,6.93-1.53,1.78,0,3.39.14,4.87.44,1.48.31,2.85.71,4.12,1.22,1.27.54,2.5,1.19,3.67,1.93,1.17.75,2.37,1.63,3.53,2.61l8.58-10.22c-1.58-1.36-3.22-2.55-4.94-3.59-1.72-1.05-3.53-1.9-5.49-2.62-1.92-.71-4.05-1.25-6.31-1.63-2.26-.37-4.77-.58-7.54-.58-4.73,0-9.06.82-13,2.48-3.94,1.66-7.37,3.94-10.25,6.82-2.88,2.88-5.15,6.24-6.76,10.05-1.61,3.83-2.44,7.91-2.44,12.28v.17c0,4.55.82,8.76,2.4,12.59,1.58,3.87,3.81,7.2,6.65,9.98,2.85,2.78,6.28,4.95,10.25,6.55,3.98,1.59,8.37,2.37,13.2,2.37,5.66,0,10.66-.95,15.05-2.85l-.03-.03c4.39-1.9,8.16-4.18,11.35-6.86v-26.57h-26.85v11.64Z"/>
  <path d="M330.05,74.56l-26.51,61.63h13.85l5.66-13.71h26.13l5.66,13.71h14.27l-26.51-61.63h-12.55ZM327.89,110.56l8.21-19.81,8.21,19.81h-16.43Z"/>
  <path d="M417.39,105.88c-1.68-1.42-3.77-2.65-6.21-3.66-2.43-1.02-5.25-1.94-8.37-2.75-2.64-.71-4.83-1.32-6.58-1.83-1.75-.54-3.12-1.09-4.12-1.66-1.03-.58-1.71-1.22-2.09-1.97-.38-.71-.58-1.59-.58-2.58v-.17c0-1.53.65-2.78,1.99-3.8,1.34-1.02,3.33-1.53,5.97-1.53s5.31.54,7.96,1.63c2.64,1.09,5.35,2.54,8.13,4.41l7.06-10.15c-3.16-2.51-6.65-4.41-10.46-5.77-3.77-1.33-7.96-2-12.48-2-3.19,0-6.1.44-8.75,1.33-2.64.88-4.94,2.14-6.82,3.77-1.89,1.63-3.36,3.56-4.42,5.8-1.06,2.24-1.58,4.79-1.58,7.57v.17c0,3.02.51,5.56,1.48,7.6.96,2.04,2.33,3.77,4.11,5.13,1.78,1.39,3.94,2.55,6.48,3.46,2.54.95,5.39,1.8,8.51,2.55,2.61.64,4.73,1.25,6.34,1.83,1.61.61,2.88,1.19,3.81,1.77.89.57,1.54,1.19,1.85,1.87.31.68.48,1.43.48,2.31v.17c0,1.8-.79,3.22-2.33,4.24-1.58,1.02-3.77,1.53-6.59,1.53-3.53,0-6.79-.64-9.77-2-2.98-1.36-5.9-3.16-8.71-5.43l-8.03,9.54c3.74,3.33,7.85,5.8,12.38,7.4,4.53,1.6,9.15,2.41,13.85,2.41,3.33,0,6.41-.41,9.16-1.26,2.78-.85,5.14-2.07,7.13-3.67,1.99-1.59,3.57-3.56,4.66-5.94l-.07-.14c1.13-2.34,1.68-5.06,1.68-8.08v-.17c0-2.65-.41-4.96-1.27-6.89-.86-1.94-2.13-3.6-3.81-5.02Z"/>
</svg>