<?xml version="1.0" encoding="UTF-8"?>
<svg id="Capa_1" data-name="Capa 1" xmlns="http://www.w3.org/2000/svg" viewBox="0 0 420.24 206.94">
  <polygon points="44.92 90.25 0 206.92 29.37 206.92 37.3 184.26 67.38 184.26 59.97 159.92 45.82 159.92 58.88 122.62 88.4 206.92 118.35 206.92 73.28 90.25 44.92 90.25"/>
  <polygon points="185.39 166.92 195.49 141.42 151.76 141.42 151.76 115.75 202.79 115.75 213.04 90.25 122.97 90.25 122.97 206.92 151.76 206.92 151.76 166.92 185.39 166.92"/>
  <polygon points="228.93 90.25 184 206.92 213.37 206.92 221.31 184.26 251.38 184.26 243.97 159.92 229.82 159.92 242.88 122.62 272.4 206.92 302.35 206.92 257.28 90.25 228.93 90.25"/>
  <polygon points="76.82 58.35 87.8 50.42 98.77 58.35 94.62 45.47 105.56 37.48 92.02 37.44 87.8 24.58 83.58 37.44 70.04 37.48 80.97 45.47 76.82 58.35"/>
  <polygon points="203.57 58.35 214.55 50.42 225.52 58.35 221.37 45.47 232.31 37.48 218.77 37.44 214.55 24.58 210.33 37.44 196.79 37.48 207.72 45.47 203.57 58.35"/>
  <polygon points="135.31 59.66 154.7 45.65 174.09 59.66 166.75 36.9 186.07 22.79 162.15 22.72 154.7 0 147.25 22.72 123.33 22.79 142.64 36.9 135.31 59.66"/>
  <polygon points="315.93 192.5 315.93 200.39 315.93 206.94 415.2 206.94 415.2 200.39 415.2 192.5 415.2 185.95 315.93 185.95 315.93 192.5"/>
  <path d="M415.31,108.63c-3.28-5.93-7.85-10.53-13.68-13.8-5.84-3.27-12.6-4.91-20.3-4.91h-32.94v79.85h32.94c7.69,0,14.46-1.63,20.3-4.91,5.84-3.27,10.4-7.89,13.68-13.86,3.28-5.97,4.93-13.02,4.93-21.16s-1.64-15.29-4.93-21.22ZM397.85,141.65c-1.66,3.31-3.96,5.82-6.92,7.53-2.95,1.71-6.42,2.57-10.4,2.57h-12.44v-43.81h12.44c3.98,0,7.45.86,10.4,2.57,2.95,1.71,5.26,4.2,6.92,7.47,1.66,3.27,2.49,7.23,2.49,11.86s-.83,8.5-2.49,11.81Z"/>
  <rect x="316.1" y="90.21" width="19.7" height="17.76"/>
  <rect x="316.1" y="117.54" width="19.7" height="52.31"/>
</svg>