<?xml version="1.0" encoding="UTF-8"?>
<svg id="Capa_1" data-name="Capa 1" xmlns="http://www.w3.org/2000/svg" viewBox="0 0 376.3 312.38">
  <defs>
    <style>
      .cls-1 {
        fill: #1d1d1b;
      }
    </style>
  </defs>
  <path class="cls-1" d="M37.61,68h.01v50.77h-13.88v-.02h-4.75v.02H1.94c-.82,0-1.52.45-1.94,1.08v58.4h0v66.79c.07,37.11,30.49,67.35,67.79,67.35,19.27,0,36.68-8.12,49.06-21.04,11.22-11.71,18.25-27.38,18.71-44.65v-111.44s0-.03,0-.04v-14.11s0-.03,0-.04c-.03-1.27-1.06-2.3-2.34-2.3h-35.62l-.02-50.81c.08-6.13,5-11.09,11.14-11.09s10.56,4.47,11.1,10.17c.03.31.1.62.1.94h15.66v-4.07c-.56-10.32-6.85-19.09-15.76-23.2-3.42-1.57-7.21-2.48-11.22-2.49-16.4.06-29.71,13.44-29.71,29.8h0v52.91c-.02.07-.02.13-.02.19v14.11c0,1.28,1.05,2.34,2.36,2.34h35.6v107.88c-.54,26.64-21.65,48.17-48.56,48.17s-49.1-21.6-49.28-48.46h-.03v-66.9h0v-40.69h34.99c1.29,0,2.36-1.06,2.36-2.34v-14.11c0-.07,0-.13-.02-.21v-53.03h-.04c.08-27.02,22-49.01,49.06-49.01,5.05,0,9.9.8,14.48,2.22,5.79,1.79,11.13,4.59,15.79,8.24V7.17c-9.11-4.59-19.4-7.17-30.27-7.17C67.99,0,37.5,30.64,37.61,68Z"/>
  <path class="cls-1" d="M36.2,155.2v87.95c0,17.51,12.83,31.71,28.87,32.39.39.04.78.07,1.18.07h2.73c.4,0,.79-.02,1.18-.07,16.04-.68,28.87-14.89,28.87-32.39v-87.95h-18.69s-1.53,0-1.53,0v31.02c-.03.3-.05.61-.05.92s.02.62.05.92v55.95c0,6.08-4.84,11.02-10.87,11.22h-.64c-6.03-.19-10.87-5.13-10.87-11.22v-88.81h-1.53s-18.69,0-18.69,0Z"/>
  <path class="cls-1" d="M186.57,233.57c14.47,0,20.01-9.58,20.01-18.62v-59.81h-12.98v58.43c0,3.4-1.7,7.34-7.02,7.34s-7.02-3.94-7.02-7.34v-58.43h-12.98v59.81c0,9.05,5.53,18.62,20.01,18.62Z"/>
  <polygon class="cls-1" points="255.02 231.96 255.02 155.14 244.02 155.14 244.02 201.43 243.8 201.43 227.19 155.14 216.61 155.14 216.61 231.96 227.62 231.96 227.62 185.78 227.83 185.78 244.66 231.96 255.02 231.96"/>
  <rect class="cls-1" x="265.06" y="155.14" width="13.12" height="76.82"/>
  <polygon class="cls-1" points="324.95 136.05 310.32 136.05 302.37 148.41 314.41 148.41 324.95 136.05"/>
  <path class="cls-1" d="M328.6,171.53c0-9.14-5.59-18.82-20.22-18.82s-20.22,9.68-20.22,18.82v43.23c0,9.14,5.59,18.82,20.22,18.82s20.22-9.68,20.22-18.82v-43.23ZM315.49,213.36c0,3.44-1.72,7.42-7.1,7.42s-7.1-3.98-7.1-7.42v-40.43c0-3.44,1.72-7.42,7.1-7.42s7.1,3.98,7.1,7.42v40.43Z"/>
  <polygon class="cls-1" points="365.29 155.14 365.29 201.43 365.08 201.43 348.46 155.14 337.89 155.14 337.89 231.96 348.89 231.96 348.89 185.78 349.11 185.78 365.94 231.96 376.3 231.96 376.3 155.14 365.29 155.14"/>
  <path class="cls-1" d="M192.83,247.42c-6.56,0-9.07,4.34-9.07,8.44v19.38c0,4.1,2.51,8.44,9.07,8.44s9.07-4.34,9.07-8.44v-2.56h-5.79v1.93c0,1.54-.77,3.33-3.28,3.33s-3.18-1.79-3.18-3.33v-4.68h12.25v-14.08c0-4.1-2.51-8.44-9.07-8.44ZM196.11,264.35h-6.46v-7.86c0-1.54.77-3.33,3.18-3.33s3.28,1.78,3.28,3.33v7.86Z"/>
  <path class="cls-1" d="M216.95,248.15h-10.61v34.81h5.88v-13.07h3.14c2.02,0,2.22,1.93,2.22,3.66v9.4h5.88v-9.69c0-3.23-1.21-5.69-3.23-6.12,2.03-.48,3.23-2.8,3.23-6.12v-6.12c0-3.62-1.88-6.75-6.51-6.75ZM217.58,260.73c0,1.79-.2,3.66-2.27,3.66h-3.09v-10.66h3.28c1.79,0,2.08.77,2.08,1.98v5.01Z"/>
  <path class="cls-1" d="M238.52,248.15h-10.61v34.81h5.88v-13.07h3.14c2.02,0,2.22,1.93,2.22,3.66v9.4h5.88v-9.69c0-3.23-1.2-5.69-3.23-6.12,2.03-.48,3.23-2.8,3.23-6.12v-6.12c0-3.62-1.88-6.75-6.51-6.75ZM239.15,260.73c0,1.79-.2,3.66-2.27,3.66h-3.09v-10.66h3.28c1.78,0,2.07.77,2.07,1.98v5.01Z"/>
  <path class="cls-1" d="M258.2,247.42c-6.56,0-9.07,4.34-9.07,8.44v19.38c0,4.1,2.51,8.44,9.07,8.44s9.07-4.34,9.07-8.44v-19.38c0-4.1-2.51-8.44-9.07-8.44ZM261.39,274.62c0,1.54-.77,3.33-3.18,3.33s-3.18-1.79-3.18-3.33v-18.13c0-1.54.77-3.33,3.18-3.33s3.18,1.78,3.18,3.33v18.13Z"/>
  <path class="cls-1" d="M280.64,275.25c-.19,1.97-.38,2.7-.92,2.7s-.72-.73-.91-2.7l-2.46-27.1h-5.69l2.55,28.2c.29,2.89.82,7.33,6.51,7.33s6.22-4.44,6.51-7.33l2.56-28.2h-5.69l-2.46,27.1Z"/>
  <rect class="cls-1" x="292.51" y="248.15" width="5.88" height="34.81"/>
  <path class="cls-1" d="M312.19,247.42c-6.56,0-9.06,4.34-9.06,8.44v27.1h5.88v-8.2h6.36v8.2h5.88v-27.1c0-4.1-2.51-8.44-9.07-8.44ZM315.37,269.17h-6.36v-12.68c0-1.54.77-3.33,3.18-3.33s3.18,1.78,3.18,3.33v12.68Z"/>
  <path class="cls-1" d="M336.6,248.15h-10.61v34.81h5.88v-13.07h3.14c2.02,0,2.22,1.93,2.22,3.66v9.4h5.88v-9.69c0-3.23-1.21-5.69-3.23-6.12,2.03-.48,3.23-2.8,3.23-6.12v-6.12c0-3.62-1.88-6.75-6.51-6.75ZM337.23,260.73c0,1.79-.2,3.66-2.27,3.66h-3.09v-10.66h3.28c1.78,0,2.07.77,2.07,1.98v5.01Z"/>
  <rect class="cls-1" x="347.56" y="248.15" width="5.88" height="34.81"/>
  <path class="cls-1" d="M367.23,247.42c-6.56,0-9.07,4.34-9.07,8.44v27.1h5.89v-8.2h6.36v8.2h5.88v-27.1c0-4.1-2.51-8.44-9.07-8.44ZM370.42,269.17h-6.36v-12.68c0-1.54.77-3.33,3.18-3.33s3.18,1.78,3.18,3.33v12.68Z"/>
  <path class="cls-1" d="M172.52,248.15c-3.25,0-5.88,2.63-5.88,5.88v28.93h5.88v-13.02h0s7.52-.01,7.52-.01v-5.58h-7.52v-.57h0v-10.04h8.24v-5.59h-8.24Z"/>
</svg>