<?xml version="1.0" encoding="UTF-8"?>
<svg id="Capa_1" xmlns="http://www.w3.org/2000/svg" version="1.1" viewBox="0 0 685.7 428.4">
  <!-- Generator: Adobe Illustrator 30.4.0, SVG Export Plug-In . SVG Version: 2.1.4 Build 226)  -->
  <path d="M681.4,163c-1,0-2.5,1-3.1,1.8l-14.3,17.5-12.8,12.8c-3.3,3.3-7.9,5.1-12.3,3.4-4.9-1.9-3.3-11.1,1-16.4l16.8-21,10.9-13.1c4.4-5.2-3.8-16.9-11.1-19.1-7.2-2-23.1,6-29.6,11.2l-21.4,17.2,15.2-20.2c1.5-1.9,1.9-4,0-5.7-4.1-3.4-8.6-6.4-13.9-8.1-1.5.3-3.6,2-4.5,3.6l-26.1,39.6c-3.6,5.3-12.4,13.5-19.4,14.3,9.4-13.9,16.3-30,6-44.2-10.4-14.5-25.5-13.8-40.8-4.9-15.3,8.7-27,22.5-34.3,38.6-6.3,7.8-12.6,15-19.7,21.8-5.1,4.1-11.3,7.9-15.6,4.1-3.4-3.1-1.8-10.5,1-14.6l10.1-15.2,17.2-22.4c1.9-2.6,3.4-6.3,1.6-9.3-1.9-3.1-5.5-5.1-8.5-6.8h0c-3.1-1.9-6.7-1.2-9.4,1.5-9.1,9.4-17.1,20.1-23.6,31.5-1.6,3-2.9,5.7-5.1,8.2-10.4,12-23.1,26.4-39.3,27.6-8.5.7-15.6-4.6-15.8-13.4-.3-12.7,11.6-28.4,21.2-37.1,6-5.5,15-11.9,23.4-11.5-1.5,4.2-4.1,7.1-7.1,10.1l-4.6,4.6-6.6,5.6c-1.4,1.1-2.2,3.1-1.5,4.8,2.6,6.6,24.9-1.2,29.9-12.2,1.6-3.4,1-7.2.5-10.9-.8-7-5.6-12-12.8-12.4-26.1-1.8-53,18-61.6,42.7l-18.4,21c-3.7,4.2-11.7,9.6-15.7,7.1-1-.7-2.3-2.5-2.5-4-1.1-9.3,5.1-17.5,9.7-24.9l7.1-11.5c6.8-11.1-6.4-26.9-19.3-30.3-6.8-1.8-13.9-.3-20.3,2.2-8.7,3.4-15.8,9-22.3,15.7-5.2,5.5-9.1,11.5-13.5,17.8-7.4,10.7-18.6,24-29.5,30.3-6,3.4-12.7,6-19.7,4.9-4.6-.7-8.7-7.2-7.6-11.7,6.1-10.5,12.8-20.2,20.8-29.2l13.5-15.4,21.3,1.2c6-2.9,11.2-7.5,13.9-13.8l-27.2-2.2c3-5.7,6.3-10.2,10-15.2,1.2-1.8,2-3.4,1.1-5.6-2.7-6-10.4-15.7-13-14.5-.5.3-1.6,1.1-1.9,1.8l-12.3,21.2c-2.2,3.8-4.6,7.2-7.6,10.4l-27-2c-1.1,5.5.3,10.7,3.7,14.7l12.3,1.4c-4.4,7.8-9.1,14.1-15,20.1l-12.6,12.6c-2.7,2.7-6.3,5.2-9.7,6.7l-1.1.4c-.1,0,0-.7,0-1l1-16.5.5-10.2c.3-5.6,3.4-10.2,7.4-13.9,5.6-4.9.7-14.6-5.3-19.7-1.5-1.2-3.7-1.8-5.3-1.4-1.4.4-3.1,1.6-4,3l-9,14.6c-7,11.3-16.3,20.3-25.9,29.5-14.5,13.8-29,26.9-44.7,39.2-7.9,6.3-16.8,10.7-26.5,13-11.9,2.9-23.6-2.2-25-13.8-.7-5.9,0-11.6,2-17.3,8.7-25,32.4-47.8,57.2-56.3,10.5-3.6,20.2-1,25.1-5.6,3-2.9,4.4-7.4,3.4-11.5-1.1-4.6-13.8,1-27-7.9-14.9-10.1-10.5-31.3,0-45.3,7-9.4,15.3-17.6,24.6-24.6,9.4-7.1,24-15,35-11.1,8.3,3.1,6.8,14.1,3.1,22.7-2,4.6-4.1,9.1-7.4,13-4.6,5.5-10.7,9.1-17.2,11.7-4.5,1.8-8.5,1.6-13.5.3,2.3,9.3,2.5,17.5,12.2,16.4,16.5-1.6,31.7-17.2,40-31.3,7.4-12.4,11.7-29.6,2.2-41-4.4-5.1-9.6-8.3-16.1-9.8-8.6-2-17.3-1.8-26.1.3-22.9,5.5-40.8,19-56.5,36.3-7.4,8.1-13.4,16.8-17.6,26.8-5.5,13-6.4,28.7,3.3,39.1,3.1,3.3,6.8,6,10.7,8.7-28.7,9-54.9,26.9-69.2,53.4-7.1,13.1-10.7,27.6-9.3,42.3,1.9,21,16.7,33.7,37.3,35.1,23.4,1.6,43.4-10,60.4-25.3,6.3-5.6,11.3-11.9,17.6-17.3l4.9-4.2c2.9,9.1,10.7,14.7,19.9,14.9,5.9,0,10.9-1.2,16.3-3.7,13.1-6.3,25.4-13.8,37-22.8,1.4,14.1,10.4,26.9,24.7,25.9,16.7-.8,31.5-12.6,43-25,1.9,7.4,5.6,13.7,11.6,18,4.2,3.3,9.6,3.8,14.6,2,7.4-3,13.5-7.5,19.9-13.1,3,10.5,11.9,17.1,22.8,15.7,12.2-1.5,21-12.2,29.4-21.4,2.2,8.6,7.5,16,15.8,19.7,21.2,9.4,41.9-1.2,57.6-17.8,1.1,7.6,4.2,14.1,10.5,18.2,7.6,4.5,16.7,4.2,24.2-.4,6.7-3.8,11.7-9.1,16.9-15.3,2.5,8.9,9,16.5,18.4,17.6,15.3,1.9,33.3-6.8,44.1-17.8,5.3.8,10.2,0,15.3-1.6-.8,2.3-2.3,4.5-2.2,6.3.1,4.4,3,7.6,5.3,10.9,1.8,2.6,4.1,4.8,7.6,4.6,9.6-14.7,20.6-27.6,32.6-40.4,8.2-8.7,16.5-16.5,25.8-24.2l10.4-7.1c.4-.3,1.6-.1,1.9.3.1.3.3,1.5,0,1.8l-3.7,4.9-16.4,19.3c-4,4.6-6.4,10.4-7.6,16.4-1.6,7.8.3,15.3,5.6,21.2,6.4,7,16,10.1,25.3,7.6,6-1.6,10.9-5.1,15.4-9.4,8.3-8.2,15-17.6,21.3-27.3,3.4-5.2,1.1-11.5-2.2-11.6h-.4ZM146.3,196.1c-2.6,1.4-6.1,1.8-9.1.7h0c-4.1-1.4-5.3-5.2-5.2-8.9,0-2.9.8-5.2,3-7,3.1-3.4,6-7.1,9.4-10.4,4.4-4.2,8.7-7.9,13.4-11.9.1,14.3,1.4,30.2-11.5,37.4ZM319.4,151.1c-7.4,11.6-15.2,22.5-23.8,33.2h0c-3.4,4.2-9.1,10.7-12.6,9.3-4.9-1.9-3.1-10.9-.5-17.5,6.1-15.3,16.5-28.7,29.8-38.5,3-2.2,8.1-3.8,9.7-2.3,2.6,2.6.4,11.2-2.7,15.8h.1ZM550.5,147.7c-11.3,6-24,19.4-20.8,32.2h0c-6.3,6.4-13.2,14.6-21.8,16.1-10-2.6-4.6-15.3.5-24,6.6-11.1,14.7-20.8,24.4-29.2,3.4-3,7-5.5,11.2-6.8,3.6-1.2,7,1,7.6,4.5.4,2.5-.1,5.1-1.1,7.4h-.1Z"/>
  <path d="M463.5,355c-1.5-1.1-4.1,1.1-4.9,2.5-7.2,10.5-15.2,19.9-24.7,28.4-4.8,4.2-13.9,9.7-17.2,7.1-2.3-1.9.1-9.1,2.5-13.7,7.4-14.3,15.8-27.9,24.9-41.4,3.6-5.5,9.1-13.7,7-17.9-1.9-3.8-9.8-4-15.4-4.4l-17.5-1.6,5.2-13.8c1.4-3.6,2-10.8-.5-13.1-5.3-4.9-31.8,10.5-34.4,29.6-.8,5.6,1.9,10,7.5,10.9-7.5,14.9-44.9,75.2-58.3,63.6-4.4-3.8-1.1-13.5,2.6-19.1l16.1-24.4,13-19.9,3.6-7.5c.3-.7.3-2.5-.3-3-2.6-2.7-16-1.6-21.7,1-6.8,3.1-26.1,33.5-33,43.7-5.6,8.2-22,33-29.2,27.6-4-2.9-1.1-12.6,2.2-18.4,4.8-8.6,10.9-16.3,16.9-24l8.9-11.5c3-4,5.2-8.1,6.1-13.4-6.4-3.1-16-2.2-23.5-1.1-2.6,1.9-5.1,4.6-7.1,7.1-5.7,6.8-10.8,13.7-15.4,21.4-7.6,13-13.4,30.7-7.5,44.7,2.7,6.6,8.6,10.7,15.7,10.8,12,0,22.4-10.2,31.7-18.7,1.6,6.3,4.1,12.2,9.4,16,7.6,5.6,18.2,5.7,26.4,1.1,4.2-2.5,7.9-5.2,11.1-8.6l7.6-8.3c14.5-18.3,27.4-37.4,39.1-57.8l7.6.8c2.3.3,4,2.6,3,4.9-1.2,3.1-2.7,6.1-4.6,9.1-9,14.1-21,33-20.2,49.2.4,7,4.4,12.4,11.1,13.9,9.6,2.2,18.8,0,27.2-5.1,6.4-3.8,12.2-8.6,16.7-14.6l13.7-18.3c3-4.1,3.6-10.1-1.1-13.4l.3-.4Z"/>
  <path d="M247.5,321.5l-7.8-17.5c-3-6.7-3-13.5-1.2-20.5,4-15.3,18.3-24.7,33.9-22.1,3.7.5,6.6,2.3,7.4,6.4,1,4.4.3,9.3-1.4,13.8-3.7,10.5-11.5,18.7-21,24.4-1.9,1.2-3.3,4-2.3,6,2.5,5.5,15.2,1.1,22.1-2,16.4-7.4,31.5-20.8,33.2-39.2,1.4-15.7-10.7-23.5-25.5-25-13.5-1.4-26.5,1.2-38.9,6.6-22.9,9.8-39.9,28.1-37.1,54.1.8,8.3,3.6,16.1,7,23.8l11.9,27c10.9,24.6-4,56.4-25.9,57.2-4.9.1-9.1-1.8-11.6-6.3-8.3-16.1.4-38.6,12.3-52.3l10.7-10.8v-2.5c0-1.1-6-1.5-10.7.3-12.2,4.6-23.2,11.6-32.1,21-6.4,7-11.6,14.9-13,24.2-2.3,15,5.3,29.5,19,35.6,21.6,9.7,48.2,3.4,65.7-13h0c6.8-6.4,11.3-14.1,14.3-22.7,4.6-12.7,5.1-25.8,1.6-38.9-2.5-9.7-6.7-18.4-10.7-27.6h.3Z"/>
  <path d="M555.9,104.4c11.1-4.4,26.6-18.6,30.7-29.5h0c1.6-4.4,1.1-8.7,0-9l-2.7-.5c-7,2.2-13.2,5.1-19.7,8.6-3.4,12-9.8,22.1-18.2,31.5,3.7,1.6,6.7.1,9.8-1.1h0Z"/>
  <path d="M481.9,121.9c6-2.6,11.2-5.5,16-9.4,5.7-6.1-1.1-15.8-6.1-23.5-6.1,5.9-11.7,11.5-16.8,18-1.8,2.3-2,5.1,0,7.2l7,7.6h0Z"/>
</svg>