<?xml version="1.0" encoding="UTF-8"?>
<svg id="Capa_1" data-name="Capa 1" xmlns="http://www.w3.org/2000/svg" viewBox="0 0 581.14 178.18">
  <path d="M148.02,20.4h-.01c-2.44-1.99-5-3.79-7.61-5.5-8.52,3.06-17.27,6.37-25.76,9.57-27.07,10.17-55.03,18.92-69.64,35.36-3.53,3.97-6.38,8.48-9.28,12.93-11.78,18.06-18.69,39.25-25.29,60.09.84,1.59,1.71,3.17,2.65,4.73,9.38,15.52,22.69,27.2,37.87,34.58.14-.94.33-1.87.41-2.49,1.4-12.16,4.01-25.08,6.1-36.7,1.93-10.36,4.14-20.84,7.31-31.04,3.15-10.1,6.98-20.19,13.4-29.46,13.02-18.78,41.16-33.14,65.42-49.39.93-.62,2.73-1.68,4.43-2.69Z"/>
  <path d="M32.99,58.17h0c23.2-21.19,64.8-32.1,102.5-46.29-27.6-15.67-62.63-16.41-91.72,1.18C11.91,32.33-3.84,68.06.8,102.73c1.48-2.79,3-5.57,4.58-8.31,7.48-12.88,15.9-25.55,27.62-36.25Z"/>
  <path d="M152.9,24.72c-9.85,5.72-19.24,12.17-28.33,18.33-7.86,5.33-14.72,9.89-19.02,15.8-4.12,5.67-5.94,11.94-6.37,18.82-.43,6.82-.36,13.81.37,20.59,1.48,13.8,4.07,28.19,7.04,42.62,2.55,12.44,5.46,25,7.86,37.31,7.94-2.16,15.74-5.43,23.15-9.9,42.86-25.9,56.6-81.66,30.69-124.51-4.35-7.2-9.56-13.54-15.38-19.05Z"/>
  <path d="M254.89,89.05h-.01c-2.56-1.42-5.45-2.53-8.67-3.29-3.22-.76-6.4-1.36-9.56-1.82-2.43-.4-4.63-.8-6.6-1.22s-3.65-.98-5.03-1.65c-1.39-.68-2.44-1.48-3.17-2.41s-1.1-2.1-1.1-3.51c0-1.53.54-2.76,1.61-3.72,1.07-.96,2.35-1.7,3.85-2.24,1.49-.53,3.03-.92,4.61-1.14,1.57-.22,2.9-.34,3.98-.34,3.33,0,6.79.62,10.41,1.86,3.61,1.25,7.05,3.3,10.32,6.18l7.19-5.92c-3.04-3.55-6.98-6.46-11.8-8.72-4.82-2.26-10.14-3.38-15.94-3.38-3.95,0-7.48.47-10.62,1.4-3.14.93-5.79,2.19-7.99,3.76s-3.89,3.41-5.08,5.5c-1.19,2.09-1.77,4.29-1.77,6.59,0,3.38.82,6.2,2.46,8.46,1.63,2.26,3.74,4.1,6.3,5.55,2.56,1.43,5.45,2.54,8.67,3.3,3.22.76,6.4,1.36,9.56,1.82,2.48.4,4.7.8,6.64,1.22,1.95.42,3.61.98,4.99,1.65,1.39.68,2.44,1.48,3.17,2.41.73.93,1.1,2.1,1.1,3.51,0,1.53-.54,2.76-1.61,3.72-1.07.96-2.36,1.7-3.85,2.24-1.49.54-3.03.92-4.61,1.14-1.57.22-2.9.34-3.97.34-3.33,0-6.8-.62-10.41-1.86-3.61-1.23-7.05-3.3-10.32-6.18l-7.19,5.92c3.04,3.55,6.98,6.46,11.8,8.72,4.82,2.26,10.14,3.38,15.94,3.38,3.95,0,7.48-.47,10.62-1.4,3.14-.93,5.79-2.19,7.99-3.76,2.2-1.57,3.89-3.41,5.08-5.5,1.19-2.08,1.77-4.29,1.77-6.6,0-3.38-.82-6.2-2.46-8.46-1.63-2.26-3.74-4.1-6.3-5.55Z"/>
  <path d="M330.84,93.5v-34.1h-11.26v34.1c0,2.15-.38,4.18-1.14,6.13-.76,1.95-1.84,3.67-3.25,5.16-1.41,1.49-3.09,2.68-5.03,3.55-1.95.87-4.08,1.32-6.39,1.32s-4.44-.43-6.39-1.32c-1.95-.87-3.61-2.06-4.99-3.55-1.39-1.49-2.46-3.22-3.22-5.16-.76-1.95-1.14-3.98-1.14-6.13v-34.1h-11.34v34.1c0,3.72.69,7.2,2.07,10.45s3.3,6.07,5.76,8.51h.01c2.46,2.43,5.33,4.35,8.62,5.76,3.3,1.41,6.84,2.11,10.62,2.11s7.4-.7,10.7-2.11,6.16-3.33,8.59-5.76c2.42-2.42,4.32-5.25,5.71-8.51,1.39-3.24,2.07-6.72,2.07-10.45Z"/>
  <path d="M403.17,93.5v-34.1h-11.26v34.1h.01c0,2.15-.38,4.18-1.14,6.13-.76,1.95-1.84,3.67-3.25,5.16-1.41,1.49-3.09,2.68-5.03,3.55-1.94.87-4.08,1.32-6.39,1.32s-4.44-.43-6.39-1.32c-1.95-.88-3.61-2.06-4.99-3.55-1.39-1.49-2.46-3.22-3.22-5.16-.76-1.94-1.14-3.98-1.14-6.13v-34.1h-11.34v34.1c0,3.72.69,7.2,2.07,10.45,1.39,3.24,3.3,6.07,5.76,8.51,2.46,2.42,5.33,4.35,8.62,5.76,3.3,1.41,6.84,2.11,10.62,2.11s7.4-.71,10.7-2.11c3.3-1.41,6.16-3.33,8.59-5.76,2.42-2.42,4.32-5.25,5.71-8.51,1.39-3.24,2.07-6.72,2.07-10.45Z"/>
  <polygon points="521.94 98.4 498.84 59.4 487.58 59.4 487.58 118.62 498.84 118.62 498.84 79.28 517.2 110.16 526.75 110.16 545.02 79.28 545.02 118.62 556.28 118.62 556.28 59.4 545.02 59.4 521.94 98.4"/>
  <polygon points="473.95 118.78 449.33 59.56 437.57 59.56 412.96 118.78 424.64 118.78 427.07 113.02 433.34 98.05 438.11 86.65 443.49 74.02 449.32 87.8 453.59 98.05 459.84 113.03 462.28 118.78 473.95 118.78"/>
  <path d="M574.66,58.08v-.02c-.28-.33-.57-.51-.86-.58v-.04c.83-.18,1.49-.51,1.95-1.02.47-.51.7-1.12.7-1.83,0-.88-.34-1.57-1-2.09-.66-.51-1.6-.77-2.82-.77h-2.96v10.48h1.61v-4.41h.71c.34,0,.66.16.97.48.31.32.61.79.9,1.42l1.14,2.52h1.9l-1.37-2.79c-.28-.58-.57-1.03-.87-1.36ZM572.57,56.44h-1.28v-3.37h1.03c.84,0,1.46.11,1.84.35.38.23.58.67.58,1.33,0,.56-.18.98-.54,1.26-.36.28-.91.43-1.63.43Z"/>
  <path d="M578.87,51.27c-1.52-1.64-3.5-2.46-5.95-2.46s-4.45.82-5.97,2.46c-1.52,1.64-2.27,3.56-2.27,5.78s.76,4.12,2.27,5.77,3.51,2.46,5.97,2.46,4.44-.82,5.95-2.46c1.52-1.64,2.27-3.56,2.27-5.77s-.76-4.14-2.27-5.78ZM577.78,62.07c-1.37,1.27-2.99,1.92-4.85,1.92s-3.5-.64-4.88-1.92c-1.38-1.28-2.08-2.95-2.08-5.02s.69-3.76,2.08-5.03c1.38-1.27,3.01-1.92,4.88-1.92s3.48.64,4.85,1.92c1.37,1.27,2.07,2.96,2.07,5.03s-.69,3.74-2.07,5.02Z"/>
  <path d="M216.79,145.01c-.74-.28-1.76-.62-1.76-1.45,0-.6.52-.97,2.09-.97,1,0,1.95.16,2.81.52v-1.29c-.79-.29-1.9-.43-2.88-.43-2.26,0-3.57.76-3.57,2.26,0,1.74,1.74,2.19,3.23,2.78,1.05.43,2.02.69,2.02,1.54,0,.66-.55,1.05-1.95,1.05-.85,0-2.18-.16-3.23-.52l.17,1.29c.88.29,2,.43,2.95.43,2.28,0,3.61-.79,3.61-2.37,0-1.74-1.68-2.19-3.49-2.85Z"/>
  <polygon points="222.86 139.76 224.42 139.76 224.42 138.03 222.86 138.55 222.86 139.76"/>
  <rect x="222.86" y="141.48" width="1.55" height="8.63"/>
  <path d="M229.97,145.01c-.74-.28-1.76-.62-1.76-1.45,0-.6.52-.97,2.09-.97,1,0,1.95.16,2.81.52v-1.29c-.79-.29-1.9-.43-2.88-.43-2.26,0-3.57.76-3.57,2.26,0,1.74,1.74,2.19,3.23,2.78,1.05.43,2.02.69,2.02,1.54,0,.66-.55,1.05-1.95,1.05-.85,0-2.18-.16-3.23-.52l.17,1.29c.88.29,2,.43,2.95.43,2.28,0,3.61-.79,3.61-2.37,0-1.74-1.68-2.19-3.49-2.85Z"/>
  <path d="M236.91,147.61v-4.92h2.95v-1.21h-2.95v-2.38l-1.55.52v7.82c0,1.86,1.26,2.78,2.93,2.78.55,0,1.19-.07,1.74-.29l.17-1.21c-.6.21-1.21.29-1.88.29-.91,0-1.42-.54-1.42-1.4Z"/>
  <path d="M245.21,141.38c-2.37,0-3.97,1.28-3.97,3.95v.93c0,2.68,1.62,3.95,4.02,3.95,1.28,0,2.4-.22,3.3-.64l.17-1.28c-1.05.47-2.05.71-3.52.71s-2.24-.74-2.4-2.26l6.37-.93v-.48c0-2.68-1.61-3.95-3.97-3.95ZM242.79,145.51v-.1c0-1.9.79-2.81,2.42-2.81,1.45,0,2.23.73,2.38,2.23l-4.8.69Z"/>
  <path d="M260.55,141.38c-1.19,0-2.26.31-3.37.69-.5-.47-1.21-.69-2.16-.69-1.45,0-2.78.21-4.13.43v8.3h1.55v-7.32c.72-.09,1.45-.21,2.18-.21,1.21,0,1.8.64,1.8,1.95v5.58h1.55v-5.65c0-.52-.05-.97-.17-1.35.78-.28,1.57-.54,2.35-.54,1.21,0,1.8.64,1.8,1.95v5.58h1.55v-5.65c0-2.09-.95-3.09-2.95-3.09Z"/>
  <path d="M268.97,141.38c-.86,0-1.93.14-3.12.43v1.29c1.3-.36,2.21-.52,3.18-.52,1.16,0,1.73.52,1.73,1.61v.36l-2.78.36c-1.92.24-2.92,1.38-2.92,2.76s1.1,2.64,3.26,2.64c1.33,0,2.68-.22,3.99-.4v-5.68c-.02-1.93-1.36-2.87-3.33-2.87ZM270.75,148.91c-.69.09-1.33.21-2.02.21-1.43,0-2.07-.71-2.07-1.43,0-.81.47-1.43,1.73-1.61l2.37-.31v3.14Z"/>
  <path d="M284.09,148.81c-.79.09-1.57.21-2.37.21-1.31,0-1.95-.64-1.95-1.95v-5.58h-1.55v5.65c0,2.09,1,3.09,3.09,3.09,1.52,0,2.92-.21,4.33-.43v-8.3h-1.55v7.32Z"/>
  <polygon points="284.28 138.36 282.31 138.36 280.98 140.29 282.34 140.29 284.28 138.36"/>
  <path d="M292.04,141.38c-1.52,0-2.92.21-4.33.43v8.3h1.55v-7.32c.79-.09,1.57-.21,2.37-.21,1.31,0,1.95.64,1.95,1.95v5.58h1.55v-5.65c0-2.09-1-3.09-3.09-3.09Z"/>
  <polygon points="297.89 139.76 299.44 139.76 299.44 138.03 297.89 138.55 297.89 139.76"/>
  <rect x="297.89" y="141.48" width="1.55" height="8.63"/>
  <path d="M303.41,146.2v-.79c0-1.9.79-2.81,2.42-2.81,1.1,0,1.86.16,2.66.52v-1.29c-.71-.29-1.61-.43-2.61-.43-2.4,0-4.02,1.28-4.02,3.95v.93c0,2.68,1.62,3.95,4.02,3.95,1,0,1.9-.16,2.61-.45l.17-1.28c-.85.35-1.66.52-2.83.52-1.62,0-2.42-.91-2.42-2.81Z"/>
  <path d="M314.49,141.38c-2.45,0-4.11,1.28-4.11,3.95v.93c0,2.68,1.66,3.95,4.11,3.95s4.11-1.28,4.11-3.95v-.93c0-2.73-1.66-3.95-4.11-3.95ZM317.05,146.2c0,1.9-.83,2.81-2.55,2.81s-2.56-.91-2.56-2.81v-.79c0-1.9.83-2.81,2.56-2.81s2.55.91,2.55,2.81v.79Z"/>
  <polygon points="328.11 148.34 325.09 141.48 323.48 141.48 327.31 150.12 325.9 153.52 327.49 153.52 332.54 141.48 330.94 141.48 328.11 148.34"/>
  <path d="M343.64,148.81c-.79.09-1.57.21-2.37.21-1.31,0-1.95-.64-1.95-1.95v-5.58h-1.55v5.65c0,2.09,1,3.09,3.09,3.09,1.52,0,2.92-.21,4.33-.43v-8.3h-1.55v7.32Z"/>
  <path d="M351.59,141.38c-1.52,0-2.92.21-4.33.43v8.3h1.55v-7.32c.79-.09,1.57-.21,2.37-.21,1.31,0,1.95.64,1.95,1.95v5.58h1.55v-5.65c0-2.09-1-3.09-3.09-3.09Z"/>
  <polygon points="356.75 139.76 358.3 139.76 358.3 138.03 356.75 138.55 356.75 139.76"/>
  <rect x="356.75" y="141.48" width="1.55" height="8.63"/>
  <path d="M360.37,140.74v9.38h1.55v-7.42h2.95v-1.21h-2.95v-.91c0-.86.5-1.4,1.42-1.4.6,0,1.16.09,1.71.29v-1.21c-.38-.23-1.19-.29-1.74-.29-1.67,0-2.93.91-2.93,2.78Z"/>
  <rect x="366.6" y="141.48" width="1.55" height="8.63"/>
  <polygon points="366.6 139.76 368.16 139.76 368.16 138.03 366.6 138.55 366.6 139.76"/>
  <path d="M371.43,146.2v-.79c0-1.9.79-2.81,2.42-2.81,1.1,0,1.86.16,2.66.52v-1.29c-.71-.29-1.61-.43-2.61-.43-2.4,0-4.02,1.28-4.02,3.95v.93c0,2.68,1.62,3.95,4.02,3.95,1,0,1.9-.16,2.61-.45l.17-1.28c-.85.35-1.66.52-2.83.52-1.62,0-2.42-.91-2.42-2.81Z"/>
  <path d="M381.46,141.38c-.86,0-1.93.14-3.12.43v1.29c1.3-.36,2.21-.52,3.18-.52,1.16,0,1.73.52,1.73,1.61v.36l-2.78.36c-1.92.24-2.92,1.38-2.92,2.76s1.1,2.64,3.26,2.64c1.33,0,2.68-.22,3.99-.4v-5.68c-.02-1.93-1.36-2.87-3.33-2.87ZM383.24,148.91c-.69.09-1.33.21-2.02.21-1.43,0-2.07-.71-2.07-1.43,0-.81.47-1.43,1.73-1.61l2.37-.31v3.14Z"/>
  <path d="M392.9,141.59c-.9-.12-1.81-.21-2.78-.21-2.44,0-3.61,1.23-3.61,3.78v1.38c0,2.56,1.17,3.78,3.61,3.78,1.45,0,2.9-.22,4.33-.4v-11.9l-1.55.52v3.04ZM392.9,148.91c-.79.09-1.57.21-2.37.21-1.66,0-2.47-.86-2.47-2.64v-1.24c0-1.78.81-2.64,2.47-2.64.79,0,1.57.12,2.37.21v6.11Z"/>
  <path d="M400.29,141.38c-2.45,0-4.11,1.28-4.11,3.95v.93c0,2.68,1.66,3.95,4.11,3.95s4.11-1.28,4.11-3.95v-.93c0-2.73-1.66-3.95-4.11-3.95ZM402.84,146.2c0,1.9-.83,2.81-2.55,2.81s-2.56-.91-2.56-2.81v-.79c0-1.9.83-2.81,2.56-2.81s2.55.91,2.55,2.81v.79Z"/>
  <path d="M417.04,141.59c-.9-.12-1.81-.21-2.78-.21-2.44,0-3.61,1.23-3.61,3.78v1.38c0,2.56,1.17,3.78,3.61,3.78,1.45,0,2.9-.22,4.33-.4v-11.9l-1.55.52v3.04ZM417.04,148.91c-.79.09-1.57.21-2.37.21-1.66,0-2.47-.86-2.47-2.64v-1.24c0-1.78.81-2.64,2.47-2.64.79,0,1.57.12,2.37.21v6.11Z"/>
  <path d="M424.29,141.38c-2.37,0-3.97,1.28-3.97,3.95v.93c0,2.68,1.62,3.95,4.02,3.95,1.28,0,2.4-.22,3.3-.64l.17-1.28c-1.05.47-2.05.71-3.52.71s-2.24-.74-2.4-2.26l6.37-.93v-.48c0-2.68-1.61-3.95-3.97-3.95ZM421.87,145.51v-.1c0-1.9.79-2.81,2.42-2.81,1.45,0,2.23.73,2.38,2.23l-4.8.69Z"/>
  <path d="M436.54,141.38c-.86,0-1.93.14-3.12.43v1.29c1.3-.36,2.21-.52,3.18-.52,1.16,0,1.73.52,1.73,1.61v.36l-2.78.36c-1.92.24-2.92,1.38-2.92,2.76s1.1,2.64,3.26,2.64c1.33,0,2.68-.22,3.99-.4v-5.68c-.02-1.93-1.36-2.87-3.33-2.87ZM438.32,148.91c-.69.09-1.33.21-2.02.21-1.43,0-2.07-.71-2.07-1.43,0-.81.47-1.43,1.73-1.61l2.37-.31v3.14Z"/>
  <path d="M447.81,148.81c-.79.09-1.57.21-2.37.21-1.31,0-1.95-.64-1.95-1.95v-5.58h-1.55v5.65c0,2.09,1,3.09,3.09,3.09,1.52,0,2.92-.21,4.33-.43v-8.3h-1.55v7.32Z"/>
  <polygon points="459.18 141.48 457.44 141.48 455.05 144.56 452.65 141.48 450.91 141.48 454.17 145.7 450.74 150.12 452.48 150.12 455.05 146.82 457.61 150.12 459.35 150.12 455.92 145.7 459.18 141.48"/>
  <polygon points="461.08 139.76 462.63 139.76 462.63 138.03 461.08 138.55 461.08 139.76"/>
  <rect x="461.08" y="141.48" width="1.55" height="8.63"/>
  <polygon points="465.04 150.12 466.6 150.12 466.6 138.03 465.04 138.55 465.04 150.12"/>
  <polygon points="469.01 139.76 470.57 139.76 470.57 138.03 469.01 138.55 469.01 139.76"/>
  <rect x="469.01" y="141.48" width="1.55" height="8.63"/>
  <path d="M476.74,141.38c-2.45,0-4.11,1.28-4.11,3.95v.93c0,2.68,1.66,3.95,4.11,3.95s4.11-1.28,4.11-3.95v-.93c0-2.73-1.66-3.95-4.11-3.95ZM479.3,146.2c0,1.9-.83,2.81-2.55,2.81s-2.56-.91-2.56-2.81v-.79c0-1.9.83-2.81,2.56-2.81s2.55.91,2.55,2.81v.79Z"/>
  <path d="M496.07,141.38c-1.19,0-2.26.31-3.37.69-.5-.47-1.21-.69-2.16-.69-1.45,0-2.78.21-4.13.43v8.3h1.55v-7.32c.72-.09,1.45-.21,2.17-.21,1.21,0,1.8.64,1.8,1.95v5.58h1.55v-5.65c0-.52-.05-.97-.17-1.35.78-.28,1.57-.54,2.35-.54,1.21,0,1.8.64,1.8,1.95v5.58h1.55v-5.65c0-2.09-.95-3.09-2.95-3.09Z"/>
  <path d="M504.72,141.38c-2.37,0-3.97,1.28-3.97,3.95v.93c0,2.68,1.62,3.95,4.02,3.95,1.28,0,2.4-.22,3.3-.64l.17-1.28c-1.05.47-2.05.71-3.52.71s-2.24-.74-2.4-2.26l6.37-.93v-.48c0-2.68-1.61-3.95-3.97-3.95ZM502.3,145.51v-.1c0-1.9.79-2.81,2.42-2.81,1.45,0,2.23.73,2.38,2.23l-4.8.69Z"/>
  <path d="M511.62,146.2v-.79c0-1.9.79-2.81,2.42-2.81,1.1,0,1.86.16,2.66.52v-1.29c-.71-.29-1.61-.43-2.61-.43-2.4,0-4.02,1.28-4.02,3.95v.93c0,2.68,1.62,3.95,4.02,3.95,1,0,1.9-.16,2.61-.45l.17-1.28c-.85.35-1.66.52-2.83.52-1.62,0-2.42-.91-2.42-2.81Z"/>
  <polygon points="524.13 138.36 522.16 138.36 520.83 140.29 522.19 140.29 524.13 138.36"/>
  <path d="M521.64,141.38c-.86,0-1.93.14-3.12.43v1.29c1.3-.36,2.21-.52,3.18-.52,1.16,0,1.73.52,1.73,1.61v.36l-2.78.36c-1.92.24-2.92,1.38-2.92,2.76s1.1,2.64,3.26,2.64c1.33,0,2.68-.22,3.99-.4v-5.68c-.02-1.93-1.36-2.87-3.33-2.87ZM523.42,148.91c-.69.09-1.33.21-2.02.21-1.43,0-2.07-.71-2.07-1.43,0-.81.47-1.43,1.73-1.61l2.37-.31v3.14Z"/>
  <path d="M531.37,141.38c-1.52,0-2.92.21-4.33.43v8.3h1.55v-7.32c.79-.09,1.57-.21,2.37-.21,1.31,0,1.95.64,1.95,1.95v5.58h1.55v-5.65c0-2.09-1-3.09-3.09-3.09Z"/>
  <polygon points="536.53 139.76 538.09 139.76 538.09 138.03 536.53 138.55 536.53 139.76"/>
  <rect x="536.53" y="141.48" width="1.55" height="8.63"/>
  <path d="M541.36,146.2v-.79c0-1.9.79-2.81,2.42-2.81,1.1,0,1.86.16,2.66.52v-1.29c-.71-.29-1.61-.43-2.61-.43-2.4,0-4.02,1.28-4.02,3.95v.93c0,2.68,1.62,3.95,4.02,3.95,1,0,1.9-.16,2.61-.45l.17-1.28c-.85.35-1.66.52-2.83.52-1.62,0-2.42-.91-2.42-2.81Z"/>
  <path d="M551.75,141.38c-2.45,0-4.11,1.28-4.11,3.95v.93c0,2.68,1.66,3.95,4.11,3.95s4.11-1.28,4.11-3.95v-.93c0-2.73-1.66-3.95-4.11-3.95ZM554.31,146.2c0,1.9-.83,2.81-2.55,2.81s-2.56-.91-2.56-2.81v-.79c0-1.9.83-2.81,2.56-2.81s2.55.91,2.55,2.81v.79Z"/>
</svg>