<?xml version="1.0" encoding="UTF-8"?>
<svg id="Capa_1" data-name="Capa 1" xmlns="http://www.w3.org/2000/svg" viewBox="0 0 629.21 103.38">
  <path d="M103.56,39.86c-.37.37-.72.74-1.04,1.11-.33.37-.67.74-1.04,1.11v-9.55h-17.3v69.18h18.4v-31.55c1.11-6.65,3.88-11.77,8.31-15.36,4.52-3.69,9.91-5.53,16.19-5.53v-18.4c-6.09,0-11.49,1.25-16.19,3.74-2.67,1.38-5.12,3.13-7.33,5.25Z"/>
  <path d="M38.18,52c7.48,0,13.82,4.83,16.12,11.52l17.83-11.96c-6.34-12.29-19.16-20.7-33.94-20.7C17.1,30.87,0,47.96,0,69.06c0,14.88,8.52,27.77,20.95,34.07l8.49-6.91c4.89-3.98,11.86-4.13,16.93-.38l9.51,7.05c6.03-3.16,11.1-7.87,14.69-13.61l-17.21-12.49c-2.82,5.52-8.56,9.32-15.19,9.32-9.42,0-17.05-7.63-17.05-17.05s7.63-17.05,17.05-17.05Z"/>
  <polygon points="20.95 103.13 20.95 103.13 20.94 103.13 20.95 103.13"/>
  <path d="M168.32,30.87c-10.06,0-18.45,3.55-25.18,10.65-6.91,7.01-10.38,15.55-10.38,25.59s3.46,18.59,10.38,25.59c6.73,7.1,15.23,10.65,25.18,10.65s18.3-3.55,25.04-10.65c6.91-7.01,10.38-15.55,10.38-25.59s-3.46-18.58-10.38-25.59c-6.73-7.1-14.98-10.65-25.04-10.65ZM184.02,74.04c-.79,2.12-2.01,4.01-3.67,5.67-3.23,3.5-7.14,5.25-12.03,5.25s-8.95-1.75-12.18-5.25c-3.24-3.42-4.84-7.62-4.84-12.6,0-2.49.39-4.79,1.17-6.91.79-2.12,2.01-4.01,3.67-5.67,3.23-3.5,7.38-5.25,12.18-5.25s8.81,1.75,12.03,5.25c3.23,3.41,4.84,7.61,4.84,12.59,0,2.5-.39,4.8-1.17,6.92Z"/>
  <polygon points="296.85 32.53 283.44 72.1 270.71 32.53 251.34 32.53 237.91 72.1 225.18 32.53 205.81 32.53 228.09 101.71 247.46 101.71 260.88 62.13 273.61 101.71 292.98 101.71 316.23 32.53 316.22 32.53 296.85 32.53"/>
  <path d="M371.85,38.33c-.46-.46-.95-.9-1.45-1.32-.51-.42-1.04-.76-1.59-1.04-4.25-3.41-9.37-5.12-15.36-5.12-9.87,0-18.08,3.5-24.63,10.51-6.55,7.01-9.82,15.59-9.82,25.74s3.27,18.73,9.82,25.74c6.55,7.01,14.76,10.52,24.63,10.52,7.1,0,13.01-2.03,17.71-6.08.46-.36.92-.75,1.38-1.17.46-.42.92-.85,1.38-1.32v6.92h16.33V4.85h-18.4v33.48ZM370.61,74.1c-.83,2.17-1.99,4.08-3.46,5.74-3.24,3.5-7.2,5.25-12.18,5.25s-9.08-1.75-12.31-5.25c-3.23-3.5-4.84-7.66-4.84-12.73s1.62-9.36,4.84-12.86c3.23-3.41,7.33-5.12,12.31-5.12s8.95,1.71,12.18,5.12c1.47,1.75,2.63,3.69,3.46,5.81.83,2.12,1.25,4.57,1.25,7.06s-.42,4.82-1.25,6.99Z"/>
  <polygon points="353.45 30.86 353.45 30.86 353.46 30.86 353.45 30.86"/>
  <path d="M416.27,0c-3.05,0-5.63,1.06-7.75,3.18-2.21,2.21-3.32,4.93-3.32,7.89s1.11,5.54,3.32,7.75c2.22,2.21,4.71,3.32,7.75,3.32s5.67-1.11,7.89-3.32,3.18-4.62,3.18-7.75-1.06-5.77-3.18-7.89c-2.12-2.12-4.84-3.18-7.89-3.18Z"/>
  <rect x="406.99" y="32.53" width="18.54" height="69.18"/>
  <path d="M487.53,69.19h0c0,4.7-1.34,8.49-4.01,11.35-2.68,2.95-5.99,4.43-9.96,4.43s-7.29-1.48-9.96-4.43c-2.68-2.86-4.01-6.65-4.01-11.35v-36.67h-18.4v35.98c0,10.06,3.13,18.36,9.41,24.91,6.28,6.65,13.93,9.96,22.97,9.96s16.69-3.32,22.97-9.96c6.28-6.55,9.41-14.85,9.41-24.91v-35.98h-18.4v36.67Z"/>
  <path d="M627.27,51.7h0c-1.29-4.2-3.23-7.91-5.81-11.14-5.16-6.46-12.22-9.69-20.89-9.69s-15.36,3.18-20.06,9.55c-.37.55-.74,1.13-1.11,1.73s-.7,1.27-.97,2c-.37-.65-.74-1.27-1.11-1.87-.38-.6-.79-1.17-1.25-1.73-5.25-6.46-12.23-9.69-20.89-9.69-7.01,0-12.6,2.26-16.74,6.78-.18.18-.39.37-.62.55-.23.18-.44.41-.62.69v-6.36h-17.3v69.18h18.4v-36.67c0-4.79,1.29-8.62,3.87-11.48,2.58-2.86,5.81-4.29,9.69-4.29s7.11,1.43,9.69,4.29c2.49,2.86,3.74,6.69,3.74,11.48v36.67h18.55v-36.67c0-4.79,1.24-8.62,3.73-11.48,2.58-2.86,5.81-4.29,9.69-4.29s7.11,1.43,9.69,4.29c2.58,2.86,3.87,6.69,3.87,11.48v36.68h18.4v-35.98c0-5.16-.65-9.85-1.94-14.05Z"/>
</svg>