<?xml version="1.0" encoding="UTF-8"?>
<svg id="Capa_1" data-name="Capa 1" xmlns="http://www.w3.org/2000/svg" viewBox="0 0 358.94 237.54">
  <rect x="74.78" y="15.89" width="2.87" height="22.96"/>
  <path d="M99.07,6.73c2.57,3.74,3.87,8.23,3.87,13.35v14.6c0,6.98-2.34,12.7-6.95,16.98-1.21,1.13-2.53,2.09-3.96,2.93,3.05-.9,5.68-2.36,7.89-4.42,3.92-3.64,5.88-8.49,5.88-14.54v-14.6h0c0-4.46-1.1-8.27-3.29-11.46-.2-.29-.41-.57-.63-.86-.61-.78-1.29-1.52-2.04-2.22-.8-.74-1.65-1.41-2.55-2,.36.39.7.8,1.02,1.22.24.32.49.65.74,1.02Z"/>
  <path d="M74.77,58.02v24.49c0,2.27.27,4.07.81,5.41.53,1.33,1.29,2.09,2.27,2.28h.01l2.94.44v-.43h0v-.02h-.01c-.98-.18-1.73-.94-2.27-2.28-.53-1.34-.81-3.14-.81-5.41l-.08-4.96v-19.53h-2.87Z"/>
  <path d="M132.1,4.19c-.08.16-.16.33-.23.51-.15.39-.29.83-.4,1.3-.27,1.14-.41,2.51-.41,4.11v72.39c0,2.27.27,4.07.81,5.41.53,1.33,1.29,2.09,2.27,2.28h.01l2.94.44v-.44h-.01c-.98-.18-1.73-.94-2.27-2.28-.53-1.34-.81-3.14-.81-5.41l-.08-4.96v-24.57h.08V10.12c0-1.6.14-2.97.41-4.11.11-.47.25-.91.4-1.3.07-.18.15-.35.23-.51.52-1.02,1.2-1.62,2.05-1.77v-.49h-2.94s-1.53,1.24-2.05,2.26h0Z"/>
  <path d="M165.66,66.43v16.08c0,2.27.27,4.07.81,5.41.53,1.33,1.29,2.09,2.27,2.28h.02l2.94.44v-.44h-.01c-.98-.18-1.73-.94-2.27-2.28-.53-1.34-.81-3.14-.81-5.41l-.08-4.96v-1.76l-2.87-9.36Z"/>
  <path d="M168.33,7.53l3.3,10.77,3.25,10.63v-7.9c-.12-.4-.52-1.71-1.05-3.43l-1.97-6.64c-.48-1.53-.77-2.87-.85-4.05-.04-.48-.05-.94-.01-1.36.01-.19.04-.38.06-.55.19-1.13.66-1.9,1.42-2.31l-.15-.47-2.8.89s-.15.23-.35.56c-.33.58-.81,1.49-.93,2.21-.03.17-.05.36-.06.55-.03.42.13,1.08.13,1.08h0Z"/>
  <path d="M197.18,5.21c-.34,1.4-.5,3.13-.5,5.14v72.16c0,2.27.27,4.07.81,5.41.53,1.33,1.29,2.09,2.27,2.28h.01l2.94.44v-.44h-.01c-.98-.18-1.73-.94-2.27-2.28-.53-1.34-.81-3.14-.81-5.41l-.08-4.96V17.32l.08-6.91c0-.82.04-1.59.11-2.29l.53-2.67c.05-.15.1-.31.16-.45.07-.18.15-.35.23-.51.52-1.02,1.2-1.62,2.05-1.77v-.5l-4.35.34c-.05.04-.26.23-.53.76-.09.17-.16.34-.23.5-.15.39-.3.85-.42,1.38Z"/>
  <path d="M259.02,15.16c.72.2,1.2.37,1.5.51l.49-3.55-2.25-11.16h-2.6l2.71,13.43.15.77Z"/>
  <path d="M243.95,23.76c0-.82.04-1.59.11-2.29l.53-2.67c.05-.15.1-.31.16-.45.07-.18.15-.35.23-.51.52-1.02,1.2-1.62,2.05-1.77v-.49l-4.35.34c-.05.04-.26.23-.53.76-.09.17-.16.34-.23.5-.15.39-.3.85-.42,1.38-.33,1.4-.5,3.13-.5,5.14v58.46c0,2.27.27,4.07.81,5.41.53,1.33,1.29,2.09,2.27,2.28h.01l2.94.44v-.44h-.01c-.98-.18-1.73-.94-2.27-2.28-.53-1.34-.81-3.14-.81-5.41l-.08-4.96V30.67l.08-6.91Z"/>
  <path d="M75.86,91.6c-1.37-.26-2.45-1.39-3.25-3.38-.79-1.99-1.19-4.56-1.19-7.69v-25.86h6.56c6.56,0,11.8-1.82,15.72-5.47,3.92-3.64,5.88-8.49,5.88-14.54v-14.6c0-4.46-1.1-8.27-3.29-11.46-.2-.29-.41-.57-.62-.86h.02c-.61-.77-1.29-1.52-2.04-2.22C89.68,1.86,84.46,0,77.98,0h-26.05v.71c1.37.26,2.44,1.36,3.18,3.31s1.13,4.54,1.13,7.75v68.76c0,3.22-.37,5.8-1.13,7.75-.75,1.95-1.81,3.05-3.18,3.31v.64h23.92v-.64ZM71.43,12.55h6.56c2.89,0,4.81,1.22,5.77,3.65.26.65.44,1.39.56,2.2.1.71.16,1.48.16,2.31v13.31c0,5.44-2.16,8.17-6.5,8.17h-6.56V12.55Z"/>
  <path d="M111.49,3.93v.04h.01c.69,1.84,1.04,4.44,1.04,7.8v68.76c0,6.86-1.44,10.55-4.31,11.06v.64h23.92v-.64h-.02c-1.4-.26-2.49-1.35-3.27-3.27-.77-1.93-1.16-4.52-1.16-7.78V11.78c0-2.31.2-4.27.59-5.92.16-.68.35-1.31.57-1.87.1-.26.21-.5.33-.73.74-1.48,1.73-2.33,2.95-2.55V0h-23.92v.71h0c1.45.26,2.54,1.33,3.25,3.22Z"/>
  <path d="M197.7,91.61c-1.37-.26-2.44-1.36-3.22-3.31-.77-1.95-1.16-4.54-1.16-7.75V11.78c0-2.29.2-4.26.59-5.92.15-.66.34-1.28.57-1.84.11-.27.23-.53.34-.77.73-1.48,1.69-2.33,2.87-2.55V0h-23.99v.71h0c1.4.24,2.49,1.29,3.25,3.11v.15s.04.01.07.02c0,.01.01.03.02.04.77,1.95,1.16,4.54,1.16,7.75v39.49l-13.9-45.4-.68-2.24c.06-.13.12-.25.17-.37.74-1.48,1.73-2.33,2.95-2.55V0h-24.88v.71c1.37.26,2.44,1.36,3.18,3.31.75,1.95,1.13,4.54,1.13,7.75v68.76c0,3.22-.37,5.8-1.13,7.75-.75,1.95-1.81,3.05-3.18,3.31v.64h24.88v-.64h-.02c-1.4-.26-2.49-1.35-3.27-3.27-.77-1.93-1.16-4.52-1.16-7.78v-36.44l2.3,7.51,3.25,10.63,9.18,30h20.64v-.64Z"/>
  <path d="M212.01,13.15c3.38-.5,6.83-.72,9.77-.81v68.19c0,3.22-.37,5.8-1.13,7.75-.75,1.95-1.81,3.05-3.18,3.31v.64h23.86v-.64s-.04-.01-.06-.01c-2.88-.59-4.32-4.27-4.32-11.04V12.32c3.08.08,6.78.3,10.41.83h0c6.91,1.01,7.51,1.9,7.51,1.9h.72l-3.03-15.05h-45.74l-3.03,15.05h.72s.59-.89,7.51-1.9Z"/>
  <path d="M265.41,3.41c.26,1.55.13,4.29-.39,8.23l-9.52,69.01c-.86,6.77-2.57,10.42-5.14,10.93v.64h22.64v-.64c-2.4-.47-3.18-4.07-2.31-10.81l1.03-8.04h12.67l.42,3.25.33,2.6.28,2.18c.86,6.69.06,10.29-2.38,10.81v.64h22.64v-.64c-2.53-.47-4.22-4.12-5.08-10.93h0s-10.32-74.79-10.32-74.79l-.36-2.6-.45-3.25h-26.05v.71c1.07.26,1.74,1.16,1.99,2.7ZM278.02,22l1.84,14.77,1.8,14.45,1.12,8.99h-2.22s-7.23,0-7.23,0l4.7-38.2Z"/>
  <path d="M277.62,76.1h-2.96l-.77,6.02c-.32,2.24-.3,4.07.05,5.47.35,1.4.99,2.26,1.93,2.57h.01l2.85.85.06-.42v-.02h0c-.95-.32-1.59-1.17-1.93-2.57h0c-.35-1.42-.36-3.24-.05-5.48l.82-6.42Z"/>
  <polygon points="278.05 49.22 277.1 56.86 279 56.86 278.34 51.62 278.05 49.22"/>
  <path d="M293.58,5.41l10.32,74.79v.04c.41,3.23.95,5.19,1.42,6.37h0s0,.03,0,.03c.1.26.21.48.3.67.97,1.99,2.34,3.02,3.23,3.03h.01l2.78-.08v-.53c-2.98-.3-4.03-6.05-4.05-6.1h.02s-6.29-43.78-6.29-43.78l-5.49-38.98-2.87.08.25,1.84.36,2.6Z"/>
  <path d="M117.98,207.73h0c-1.3-1.37-2.74-3.03-3.36-4.19-1.24-2.33-13.03-80.47-13.23-83.63-.06-1,.21-2.2.61-3.4.35-1.03.79-2.04,1.2-2.89.62-1.28,1.15-2.17,1.15-2.17h-26.22s2.95,6.51,3.34,8.09c.4,1.58-13.34,87.57-14.72,93.78-1.39,6.21-3.1,7.33-3.1,7.33l3.98-.83,2.51-.53,9.56-2s-1.98-3.59-2.29-5.57c-.32-1.97,3.35-25.26,3.35-25.26l14.31-.73s.14.88.35,2.26c.13.82.28,1.84.46,2.94.74,4.77,1.77,11.39,2.05,13.44.45,3.32-2.82,9.36-2.82,9.36l3.43-.48,2.61-.37,18.27-2.57.98-.14s-1.13-1.08-2.43-2.45ZM86.5,176.54h0l-1.88.21-2.51.27,5.71-40.29,1.26,8.61.94,6.45,3.5,24-7.01.75Z"/>
  <path d="M168.96,116.46c.06-1,.88-1.96,1.8-2.84.81-.79,1.7-1.51,2.22-2.17h-4.05v-.02h-16.71c.52.66,1.45,1.39,2.34,2.17.63.55,1.24,1.14,1.68,1.75.27.37.48.76.58,1.15,0,0,.06.15.06.37,0,.06.02.12.02.18v75.23c0,4.97-4.03,9-9,9-1.51,0-2.93-.37-4.18-1.03-.35-.19-.69-.39-1.01-.62-2.31-1.63-3.82-4.31-3.82-7.35v-75.23c0-.18.03-.37.08-.55.25-1.02,1.15-1.99,2.12-2.89.84-.79,1.73-1.51,2.25-2.17h-25.13c.52.66,1.7,1.39,2.83,2.17,1.09.75,2.13,1.57,2.51,2.4.07.16.12.32.14.49,0,0,.02,0,.02,1.01v73.64c0,.11.01.22.01.33v.16c0,.14.01.28.02.43.14,3.09,1.02,6,2.44,8.55.37.66.77,1.31,1.21,1.92.9,1.24,1.95,2.37,3.12,3.37.13.15.28.3.41.45-.04-.08-.09-.15-.14-.23,1.76,1.45,3.77,2.61,5.97,3.38.26.09.53.17.81.25,2.74,1.07,5.71,1.67,8.82,1.67,3.52,0,6.86-.76,9.89-2.11.06-.03.12-.05.18-.06.06-.03.12-.05.18-.07.2-.08.41-.17.61-.26.1-.05.2-.09.3-.14.15-.07.31-.15.46-.23.15-.07.3-.15.44-.23.1-.05.2-.11.3-.16.21-.12.42-.23.62-.36.03-.02.06-.04.1-.06.44-.27.88-.57,1.3-.88.21-.15.41-.3.61-.45.16-.13.32-.26.47-.39.25-.21.5-.39.73-.61,1.9-1.53,3.47-3.47,4.57-5.66,1.15-2.29,1.79-4.86,1.79-7.59v-75.7Z"/>
  <path d="M59.39,166.94h-13.01s-13.22.01-13.22.01c-.01.43,4.28,7.82,4.63,9.36,0,.03.01.06.02.09.02.1.03.19.05.28.04.25.08.51.1.77,0,.04,0,.08,0,.11.01.19.02.39.03.58v.6h0v10.31c0,2.07,0,4.26,0,6.53-.02,11.09-.2,16.53-.87,19.44-1.04,4.54-4.19,6.67-6.6,6.67-.26,0-.53-.04-.79-.1-.11-.03-.21-.05-.32-.08-5.43-1.71-9.92-15.81-11.55-34.84-.42-4.94-.65-10.19-.65-15.66,0-12.24.97-23.1,2.41-32.4,1.37-10.09,5.7-17.35,10.14-18.18.05-.01.1-.02.15-.03.15-.03.3-.04.45-.05.05,0,.1-.01.15-.01h.08c1.63,0,3.18.9,4.57,2.49.21.24.42.5.62.77.45.61.88,1.28,1.29,2.03,1.28,2.34,2.35,5.34,3.11,8.81.85,3.86,1.34,8.29,1.34,13,0,2.64-.15,5.17-.44,7.58,0,.04,0,.08-.01.12.1-.03,2.2-.41,3.16-.71.82-.26,1.6-.59,2.34-.99,3.37-1.82,5.88-5.03,6.75-8.86.22-.97.35-1.97.35-3.01v-20.26s-.01-12.84-.01-12.84h-6.02c-3.2,0-5.79,2.59-5.79,5.79v.85c-.19-.14-.39-.27-.59-.39-2.73-2.38-5.67-3.96-8.75-4.55-1.01-.21-2.02-.34-3.06-.34-5.43,0-10.43,3.03-14.47,8.15-8.94,10.61-14.97,30.53-14.97,53.36,0,26.4,8.06,48.9,19.38,57.59.55.42,1.1.81,1.66,1.16,2.75,1.74,5.68,2.67,8.7,2.67,6.82,0,13.09-4.75,18.11-12.72.75.96,1.7,1.76,2.8,2.31.12.06.23.12.35.17,1.04.47,2.18.73,3.39.73h.18v-32.56c.01-4.64.04-8.94.06-11.95,0-.28,0-.56,0-.82,0-1.09,1.22-3.58,2.42-5.92.53-1.04,1.06-2.04,1.47-2.89.52-1.05.88-1.86.86-2.17Z"/>
  <path d="M226.16,178.68c-.39-.99-.88-1.96-1.49-2.91h.03c-.37-.58-.77-1.15-1.22-1.71l-3.56-1.75-1.84-.91s.78,29.54-10.97,29.54c-1.19,0-2.24-.34-3.18-.96-.06-.04-.12-.08-.18-.12-8.18-5.79-7.37-33.43-7.37-45.97,0-22.41,2.34-34.87,11.78-34.87,1.92,0,3.49,1.14,4.76,2.95.61.87,1.16,1.89,1.64,3.02,3.51,8.11,3.95,21.6,3.95,21.6l1.92-1.62,1.05-.89,1.44-1.21s1.79-15.03,2.89-24.68c.19-1.64.35-3.11.49-4.34.18-1.63.3-2.82.34-3.31.24-3.06-1.24.89-4.66,2.71s-10.98-4.83-23.6-2c-12.62,2.83-18.78,27.82-18.78,51.8,0,21.27,4.34,33.56,10.32,40.08.58.63,1.17,1.21,1.78,1.73,2.18,1.88,4.52,3.11,6.91,3.81,2.15.75,4.83,1.34,8.06,1.42,10.14.27,14.68-5.71,17.59-11.22,1.22-2.31,5.3-11.65,1.9-20.22Z"/>
  <polygon points="287.38 118.81 289.11 116.28 291.09 113.39 292.58 111.23 287.38 111.23 272.31 111.23 267.1 111.23 272.31 119.02 272.31 157.95 259.55 153.8 258.1 153.33 255.22 152.39 255.22 118.81 256.94 116.28 258.93 113.39 260.42 111.23 255.22 111.23 240.15 111.23 234.95 111.23 240.15 119.02 240.15 202.77 234.95 210.36 238.99 210.84 240.15 210.98 242.16 211.21 255.22 212.77 261.47 213.52 255.53 202.76 255.22 163.78 272.31 169.35 272.3 170.57 272.29 172.99 272.09 207.08 267.1 215.08 270.85 215.89 272.31 216.21 273.7 216.53 290.87 220.45 291.86 219.14 287.38 207.29 287.38 118.81"/>
  <path d="M347.47,226.43l-13.62-106.4h.06l1.95-4.54.93-2.17.93-2.17h-27.65l3.18,8.88h.23l-13.92,94.51-3.91,5.15.57,1.49,1.79.43,3.23.77,1.64.39,10.15,2.42-3.57-8.63,3.09-23.44,15.28,3.96.21,1.66.21,1.66,2.79,22.34-3.63,6.67,2.85.92,2.85.91,19.64,6.3-5.25-11.11h0ZM318.93,183.88h0s-2.42-.52-2.42-.52l-2.42-.52,6.55-43.07,1.13,9.02,1.13,9.02,3.46,27.66-7.42-1.59Z"/>
  <path d="M41.55,108.25c-.46-.19-.93-.35-1.41-.5-.46-.14-.93-.26-1.4-.35-.16-.03-.32-.06-.48-.09-.85-.15-1.71-.24-2.58-.24-.61,0-1.2.05-1.8.12,2.24.57,4.43,1.61,6.55,3.11.27-.74.66-1.43,1.13-2.04Z"/>
  <path d="M83.65,189.67c-1.5,9.73-2.91,19.8-2.91,21.64.19.9,1.11,2.94,1.9,4.37l.43.78,2.85-.6s-1.98-3.59-2.29-5.57c-.23-1.42,1.61-13.89,2.65-20.76l-2.63.14Z"/>
  <polygon points="87.85 160.2 86 173.23 86.14 173.22 88.67 172.95 89.69 172.84 89.18 169.33 87.85 160.2"/>
  <path d="M56.59,145.34c-.5,2.19-1.44,4.23-2.72,6.02,2.82-1.88,4.89-4.79,5.66-8.2.22-.97.35-1.97.35-3.01h0s0-.04,0-.04v-20.22s-.01-12.84-.01-12.84h-2.87v34.49s.01.05.01.05c0,1.22-.15,2.49-.43,3.75Z"/>
  <path d="M25.83,137.19c.75-5.53,2.4-10.21,4.45-13.44-.91.23-2.36,1.38-3.84,3.97-1.67,2.93-2.92,6.97-3.51,11.36v.06c-1.58,10.15-2.38,20.89-2.38,31.89,0,5.23.21,10.41.64,15.37.78,9.17,2.23,17.18,4.19,23.16,2.04,6.2,4.06,8.41,4.97,8.76l.1.02s.07.01.09.02c.4-.01,1.08-.3,1.75-.98-3.89-5.23-6.95-17.15-8.23-32.12-.42-4.94-.65-10.19-.65-15.66h0c0-12.25.97-23.11,2.41-32.41Z"/>
  <path d="M202.59,152.46c0-14.13.93-24.3,3.99-29.88-1.65.49-3.32,2.02-4.65,6.44-1.51,5.05-2.21,12.96-2.21,24.88,0,.97,0,2.03-.01,3.17-.03,6.73-.07,15.94.82,24.1,1.26,11.59,3.76,14.97,5.14,15.97l.03.02.07.05c.43.28.85.41,1.34.41.55,0,1.04-.13,1.51-.39-6.75-7.73-6.04-32.93-6.04-44.74h0Z"/>
  <polygon points="317.92 197.97 315.35 197.31 312.88 216.11 315.69 222.92 319.22 223.77 315.66 215.13 317.92 197.97"/>
  <polygon points="320.32 164.13 317.88 180.23 319.64 180.61 320.4 180.77 322.46 181.21 321.5 173.55 320.32 164.13"/>
  <path d="M65.59,165.52h-2.91l.04,1.32h0c.04,1.04-.36,2.04-1.2,3.76-.3.61-.64,1.28-1.01,1.99-.16.31-.32.63-.48.95-1.51,2.96-1.96,4.11-2.06,4.56v.69c-.02,2.85-.05,7.23-.06,11.92v30.66c.84.29,1.74.46,2.69.46h.18v-32.56c.01-4.64.04-8.94.06-11.95v-.82c0-1.09,1.22-3.58,2.42-5.92.53-1.04,1.06-2.04,1.47-2.89.52-1.05.87-1.86.86-2.17Z"/>
  <path d="M144.02,115.47c-.21.19-.43.39-.64.59-.77.71-1.04,1.08-1.13,1.24v74.98c0,1.83.9,3.56,2.4,4.62.21.15.42.28.63.39.82.43,1.7.64,2.62.64.21,0,.42-.01.63-.04-2.08-1.65-3.42-4.19-3.42-7.06v-76.38c-.35.35-.72.68-1.09,1.02Z"/>
  <path d="M173.8,115.34v-.02c-.24.23-.49.45-.73.69-.46.45-.68.72-.78.86v75.29c0,3.19-.72,6.24-2.15,9.09-.6,1.2-1.33,2.35-2.17,3.41.03-.03.05-.05.08-.06.25-.21.5-.39.73-.61,1.9-1.53,3.47-3.47,4.57-5.66,1.15-2.29,1.79-4.86,1.79-7.59v-76.7c-.42.46-.89.88-1.35,1.3Z"/>
  <path d="M229.15,118.58c-1.09,9.54-2.88,24.54-2.89,24.69l-.08.68.48-.41,1.05-.89h0s1.44-1.21,1.44-1.21c0,0,1.61-13.5,2.71-23.12l-2.15-4.68c-.02.19-.05.38-.06.59-.14,1.23-.3,2.71-.49,4.36Z"/>
  <path d="M230.92,174.33h0c-.37-.57-.77-1.15-1.22-1.7l-4.03-1.19.43.52c.51.63,1,1.31,1.45,2.02.7,1.11,1.3,2.27,1.77,3.47,4.21,10.63-1.4,21.78-2.06,23.02-.86,1.62-1.91,3.38-3.25,5.08,2.99-2.18,4.97-5.19,6.5-8.08,1.22-2.31,5.3-11.65,1.9-20.22-.39-.99-.88-1.96-1.49-2.91Z"/>
  <polygon points="258.55 119.84 258.55 149.96 259.14 150.15 260.58 150.62 261.42 150.89 261.42 117.37 261.42 115.67 259.7 118.18 258.55 119.84"/>
  <polygon points="293.59 205.86 293.59 119.49 293.59 117.37 293.59 115.67 291.87 118.18 290.72 119.84 290.72 206.68 294.24 216 296.36 213.21 293.59 205.86"/>
  <polygon points="261.48 169.34 258.59 168.4 258.86 201.89 264.21 211.58 265.31 210.27 266.11 209.27 261.74 201.33 261.48 169.34"/>
  <polygon points="353.68 225 340.06 118.59 340.12 118.59 342.07 114.05 342.99 111.88 343.31 111.15 341.35 111.15 340.79 112.46 339.86 114.63 338.93 116.8 337.29 120.62 350.72 225.47 355.18 234.9 358.94 236.11 353.68 225"/>
  <path d="M124.17,206.3h.01c-1.3-1.37-2.74-3.04-3.36-4.2-1.24-2.33-13.03-80.47-13.23-83.63-.06-1,.21-2.2.61-3.4.35-1.03.79-2.04,1.2-2.89.13-.27.26-.52.37-.75h-1.53l-1.03,1.73s-.48.81-1.01,1.91c-.44.9-.79,1.75-1.05,2.51-.45,1.33-.45,1.95-.44,2.11.12,1.53,2.84,20.12,6.05,40.91,4.27,27.63,6.36,39.54,6.9,41.55.26.43.97,1.42,2.74,3.3,1.2,1.28,2.29,2.31,2.3,2.33l1.4,1.34,1.52-.21.97-.14s-1.13-1.08-2.43-2.45Z"/>
</svg>