<?xml version="1.0" encoding="UTF-8"?>
<svg id="Capa_1" data-name="Capa 1" xmlns="http://www.w3.org/2000/svg" viewBox="0 0 322.38 161.37">
  <path d="M0,0v161.37h322.38V0H0ZM82.21,106.83c0,17.18-11.53,27.65-30.6,27.65s-30.6-10.46-30.6-27.65v-10.46h26.61v13.64c0,3.92,1.05,5.23,3.57,5.23,2.3,0,3.35-1.31,3.35-5.23v-11.39c0-3.18-1.05-4.67-5.24-6.92l-11.11-5.78c-12.36-6.36-17.19-12.15-17.19-25.41v-6.72c0-16.62,11.11-26.89,30.18-26.89s30.18,10.27,30.18,26.89v7.1h-26.83v-9.9c0-3.36-.63-4.85-2.94-4.85s-2.94,1.49-2.94,4.85v7.66c0,3.16,1.05,4.85,5.03,6.9l11.11,5.79c12.57,6.54,17.39,12.32,17.39,25.58v9.9ZM147.42,106.64c0,17.18-11.74,27.83-31.03,27.83s-31.02-10.65-31.02-27.83v-51.92c0-17.18,11.95-27.83,31.02-27.83s31.03,10.65,31.03,27.83v51.92ZM207.93,134.47h-10.5v-53.79h-19.78v53.79h-10.49V26.89h10.49v45.68h19.78V26.89h10.5v107.58ZM251.88,134.47l-3.5-26.66h-16.44l-3.5,26.66h-10.14l15.23-107.58h13.82l15.22,107.58h-10.67ZM287.94,134.47h-10.5V35.01h-14.69v-8.11h39.89v8.11h-14.7v99.47ZM305.95,148.25c-3.77,0-6.78-2.61-6.78-5.94s3.01-5.87,6.78-5.87,6.74,2.61,6.74,5.87-2.93,5.94-6.74,5.94Z"/>
  <polygon points="239.99 41.71 232.99 99.7 247.34 99.7 240.33 41.71 239.99 41.71"/>
  <path d="M305.95,137.63c-2.93,0-5.1,2.11-5.1,4.68s2.17,4.69,5.14,4.69,5.02-2.07,5.02-4.65-2.12-4.72-5.06-4.72ZM307.51,145.39c-.2-.22-.32-.75-.52-1.43-.12-.64-.52-.93-1.36-.93h-.72v2.36h-1.53v-5.87c.6-.11,1.44-.18,2.53-.18,1.25,0,1.8.18,2.29.43.36.25.64.72.64,1.29,0,.64-.56,1.14-1.36,1.36v.07c.64.22,1,.64,1.2,1.43.2.89.32,1.25.48,1.47h-1.65Z"/>
  <path d="M305.79,140.31c-.4,0-.68.03-.84.07v1.68h.72c.84,0,1.53-.25,1.53-.86,0-.54-.44-.89-1.41-.89Z"/>
  <path d="M116.4,46.13c-2.51,0-3.35,1.31-3.35,5.23v58.64c0,3.92.84,5.23,3.35,5.23s3.35-1.31,3.35-5.23v-58.64c0-3.92-.84-5.23-3.35-5.23Z"/>
</svg>