<?xml version="1.0" encoding="UTF-8"?>
<svg id="Capa_1" data-name="Capa 1" xmlns="http://www.w3.org/2000/svg" viewBox="0 0 150 150">
  <defs>
    <style>
      .cls-1 {
        fill: #fffdf3;
      }
    </style>
  </defs>
  <path class="cls-1" d="M110.92,57.63c-9.07-2.49-20.51-1.16-26.83,6.39l-1.76,2.48v-8.79h-19.88v66.21h19.88v-36.18c0-6.8,4.21-13.08,11.26-13.62,9.34-.71,11.93,5.38,12.43,13.61v36.19s20.16,0,20.16,0l-.29-44.68c-1.01-9.99-4.53-18.75-14.97-21.62Z"/>
  <rect class="cls-1" x="29.11" y="57.71" width="20.47" height="66.21"/>
  <ellipse class="cls-1" cx="39.64" cy="36.62" rx="11.98" ry="12.01"/>
  <path class="cls-1" d="M134.59,0H15.41C6.9,0,0,6.9,0,15.41v119.18c0,8.51,6.9,15.41,15.41,15.41h119.18c8.51,0,15.41-6.9,15.41-15.41V15.41C150,6.9,143.1,0,134.59,0ZM142,134.59c0,4.09-3.32,7.41-7.41,7.41H15.41c-4.09,0-7.41-3.32-7.41-7.41V15.41c0-4.09,3.32-7.41,7.41-7.41h119.18c4.09,0,7.41,3.32,7.41,7.41v119.18Z"/>
</svg>