<?xml version="1.0" encoding="UTF-8"?>
<svg id="Capa_1" data-name="Capa 1" xmlns="http://www.w3.org/2000/svg" viewBox="0 0 150 150">
  <defs>
    <style>
      .cls-1 {
        fill: #fffdf3;
      }
    </style>
  </defs>
  <path class="cls-1" d="M13.46,136.25c-3.84,0-7.04-1.28-9.61-3.85-2.57-2.57-3.85-5.77-3.85-9.61V33.04c0-3.84,1.28-7.04,3.85-9.61,2.57-2.57,5.77-3.85,9.61-3.85h123.08c3.84,0,7.04,1.28,9.61,3.85s3.85,5.77,3.85,9.61v89.74c0,3.84-1.28,7.04-3.85,9.61s-5.77,3.85-9.61,3.85H13.46ZM75,78.87L8.33,35.28v87.5c0,1.5.48,2.73,1.44,3.69.96.96,2.19,1.44,3.69,1.44h123.08c1.5,0,2.73-.48,3.69-1.44.96-.96,1.44-2.19,1.44-3.69V35.28l-66.67,43.59ZM75,69.58l64.1-41.67H10.9l64.1,41.67ZM8.33,35.28v-7.37,94.87c0,1.5.48,2.73,1.44,3.69.96.96,2.19,1.44,3.69,1.44h-5.13V35.28Z"/>
</svg>