<?xml version="1.0" encoding="UTF-8"?>
<svg xmlns="http://www.w3.org/2000/svg" xmlns:xlink="http://www.w3.org/1999/xlink" viewBox="0 0 480.71 53.16">
  <defs>
    <style>
      .cls-1 {
        fill: none;
      }

      .cls-2 {
        fill: #fff;
      }

      .cls-3 {
        opacity: .78;
      }

      .cls-4 {
        opacity: .26;
      }

      .cls-5 {
        clip-path: url(#clippath);
      }
    </style>
    <clipPath id="clippath">
      <rect class="cls-1" x="-1399.12" y="-365.43" width="677.76" height="368.77"/>
    </clipPath>
  </defs>
  <g id="Capa_2" data-name="Capa 2">
    <g class="cls-3">
      <g class="cls-5">
        <image class="cls-4" width="5000" height="3333" transform="translate(228.72 685.61) rotate(-180) scale(.4)" xlink:href="../../../REDES ESTUDIO CRUZ/RECURSOS/network-turbulence-backgrounds-2023-11-27-04-58-07-utc/09.jpg"/>
      </g>
    </g>
  </g>
  <g id="Marcas">
    <g>
      <path class="cls-2" d="M476.54,9.6c-.12-.78-.52-1.26-1.28-1.5v-.04c1-.34,1.5-1.06,1.5-2.02,0-1.6-1.32-2.44-2.99-2.44h-4.07v8.4h2.18v-3.09h1.22c.84,0,1.22.4,1.32,1.12.14.82.08,1.82.32,1.96h2.12v-.14c-.28-.1-.16-1.16-.34-2.24ZM473.37,7.32h-1.48v-2.02h1.54c.78,0,1.14.42,1.14,1.04s-.4.98-1.2.98Z"/>
      <path class="cls-2" d="M473.05.1c-4.29,0-7.67,3.31-7.67,7.77s3.39,7.75,7.67,7.75,7.65-3.31,7.65-7.75-3.37-7.77-7.65-7.77ZM473.05,14.63c-3.71,0-6.49-2.89-6.49-6.75s2.79-6.75,6.49-6.75,6.45,2.87,6.45,6.75-2.77,6.75-6.45,6.75Z"/>
      <path class="cls-2" d="M26.22,9.08c7.77,0,12.2,5.01,13.22,10.53h11.26C50.26,8.93,40.23,0,26.22,0,10.39,0,0,11.04,0,26.58s10.39,26.58,26.22,26.58c14.02,0,24.04-8.93,24.47-19.61h-11.26c-1.02,5.52-5.45,10.53-13.22,10.53-8.5,0-14.45-6.1-14.45-17.5s5.96-17.5,14.45-17.5Z"/>
      <path class="cls-2" d="M69.57,22.8v-7.84h-10.68v37.47h11.18v-19.68c0-6.03,3.2-8.71,7.41-8.71,1.89,0,3.63,0,5.45.07v-9.22c-.58-.22-2.25-.51-3.27-.51-4.87,0-8.28,2.98-10.09,8.43Z"/>
      <path class="cls-2" d="M115.54,35.66c0,6.03-2.69,9.22-6.9,9.22-3.99,0-6.68-2.76-6.68-8.93V14.96h-11.18v23.31c0,9.8,5.3,14.89,14.09,14.89,5.08,0,9.15-2.4,11.18-6.83v6.1h10.68V14.96h-11.18v20.7Z"/>
      <polygon class="cls-2" points="166.02 21.35 166.02 14.96 135.66 14.96 135.66 22.66 152.66 22.66 134.94 46.04 134.94 52.43 166.74 52.43 166.74 44.74 148.3 44.74 166.02 21.35"/>
      <polygon class="cls-2" points="192.82 52.43 231.67 52.43 231.67 43.86 204.58 43.86 204.58 30.36 229.35 30.36 229.35 21.79 204.58 21.79 204.58 9.3 231.67 9.3 231.67 .73 192.82 .73 192.82 52.43"/>
      <path class="cls-2" d="M261.66,30.36l-8.86-2.25c-2.4-.65-3.7-1.74-3.7-3.49,0-1.89,1.96-3.49,5.74-3.49,4.14,0,6.1,1.52,6.9,4.43h9.59c0-6.54-5.16-11.33-16.34-11.33s-16.41,4.87-16.41,11.4c0,5.3,3.92,9.22,9.66,10.68l8.86,2.25c3.12.8,4.5,2.03,4.5,3.78,0,2.11-2.4,3.92-6.46,3.92-4.72,0-6.97-1.74-7.77-5.16h-9.8c0,7.04,5.81,12.06,17.43,12.06s17.36-5.08,17.36-11.76c0-5.96-4.94-9.59-10.68-11.04Z"/>
      <path class="cls-2" d="M294.27,5.08h-9.95v4.79c0,3.34-1.89,5.08-5.52,5.08h-1.82v7.62h6.39v18.59c0,8.5,3.34,11.69,12.56,11.69,2.83,0,5.16-.36,6.75-.94v-7.12c-.94.07-2.32.15-3.7.15-3.27,0-4.43-1.16-4.43-3.78v-18.59h8.13v-7.62h-8.42V5.08Z"/>
      <path class="cls-2" d="M334.87,35.66c0,6.03-2.69,9.22-6.9,9.22-3.99,0-6.68-2.76-6.68-8.93V14.96h-11.18v23.31c0,9.8,5.3,14.89,14.09,14.89,5.08,0,9.15-2.4,11.18-6.83v6.1h10.68V14.96h-11.18v20.7Z"/>
      <path class="cls-2" d="M380.98,20.41c-2.18-4.14-6.25-6.17-11.04-6.17-10.17,0-16.99,7.33-16.99,19.46s6.83,19.46,16.99,19.46c5.16,0,9.51-2.32,11.55-7.19v6.46h10.68V.73h-11.18v19.68ZM372.56,45.24c-5.23,0-8.5-3.92-8.5-11.55s3.27-11.55,8.5-11.55,8.42,3.92,8.42,11.55-3.27,11.55-8.42,11.55Z"/>
      <rect class="cls-2" x="401.9" y=".62" width="12.35" height="8.93"/>
      <rect class="cls-2" x="402.48" y="14.96" width="11.18" height="37.47"/>
      <path class="cls-2" d="M441.63,14.23c-12.49,0-19.61,8.35-19.61,19.46s7.12,19.46,19.61,19.46,19.61-8.35,19.61-19.46-7.19-19.46-19.61-19.46ZM441.63,45.24c-5.23,0-8.5-3.92-8.5-11.55s3.27-11.55,8.5-11.55,8.42,3.92,8.42,11.55-3.27,11.55-8.42,11.55Z"/>
    </g>
  </g>
</svg>