<?xml version="1.0" encoding="UTF-8"?>
<svg id="Marcas" xmlns="http://www.w3.org/2000/svg" viewBox="0 0 109.59 12.12">
  <defs>
    <style>
      .cls-1 {
        fill: #171917;
      }
    </style>
  </defs>
  <path class="cls-1" d="M108.64,2.19c-.03-.18-.12-.29-.29-.34h0c.23-.09.34-.25.34-.47,0-.37-.3-.56-.68-.56h-.93v1.91h.5v-.7h.28c.19,0,.28.09.3.26.03.19.02.42.07.45h.48v-.03c-.06-.02-.04-.26-.08-.51ZM107.92,1.67h-.34v-.46h.35c.18,0,.26.1.26.24s-.09.22-.27.22Z"/>
  <path class="cls-1" d="M107.85.02c-.98,0-1.75.75-1.75,1.77s.77,1.77,1.75,1.77,1.75-.75,1.75-1.77-.77-1.77-1.75-1.77ZM107.85,3.34c-.85,0-1.48-.66-1.48-1.54s.63-1.54,1.48-1.54,1.47.65,1.47,1.54-.63,1.54-1.47,1.54Z"/>
  <path class="cls-1" d="M5.98,2.07c1.77,0,2.78,1.14,3.01,2.4h2.57c-.1-2.43-2.38-4.47-5.58-4.47C2.37,0,0,2.52,0,6.06s2.37,6.06,5.98,6.06c3.2,0,5.48-2.04,5.58-4.47h-2.57c-.23,1.26-1.24,2.4-3.01,2.4-1.94,0-3.29-1.39-3.29-3.99s1.36-3.99,3.29-3.99Z"/>
  <path class="cls-1" d="M15.86,5.2v-1.79h-2.43v8.54h2.55v-4.49c0-1.37.73-1.99,1.69-1.99.43,0,.83,0,1.24.02v-2.1c-.13-.05-.51-.12-.75-.12-1.11,0-1.89.68-2.3,1.92Z"/>
  <path class="cls-1" d="M26.34,8.13c0,1.37-.61,2.1-1.57,2.1-.91,0-1.52-.63-1.52-2.04V3.41h-2.55v5.31c0,2.24,1.21,3.39,3.21,3.39,1.16,0,2.09-.55,2.55-1.56v1.39h2.43V3.41h-2.55v4.72Z"/>
  <polygon class="cls-1" points="37.85 4.87 37.85 3.41 30.93 3.41 30.93 5.17 34.8 5.17 30.76 10.5 30.76 11.95 38.01 11.95 38.01 10.2 33.81 10.2 37.85 4.87"/>
  <polygon class="cls-1" points="43.96 11.95 52.82 11.95 52.82 10 46.64 10 46.64 6.92 52.29 6.92 52.29 4.97 46.64 4.97 46.64 2.12 52.82 2.12 52.82 .17 43.96 .17 43.96 11.95"/>
  <path class="cls-1" d="M59.65,6.92l-2.02-.51c-.55-.15-.84-.4-.84-.79,0-.43.45-.79,1.31-.79.94,0,1.39.35,1.57,1.01h2.19c0-1.49-1.18-2.58-3.73-2.58s-3.74,1.11-3.74,2.6c0,1.21.89,2.1,2.2,2.43l2.02.51c.71.18,1.03.46,1.03.86,0,.48-.55.89-1.47.89-1.08,0-1.59-.4-1.77-1.18h-2.24c0,1.61,1.32,2.75,3.97,2.75s3.96-1.16,3.96-2.68c0-1.36-1.13-2.19-2.43-2.52Z"/>
  <path class="cls-1" d="M67.09,1.16h-2.27v1.09c0,.76-.43,1.16-1.26,1.16h-.41v1.74h1.46v4.24c0,1.94.76,2.67,2.86,2.67.65,0,1.18-.08,1.54-.22v-1.62c-.22.02-.53.03-.84.03-.75,0-1.01-.26-1.01-.86v-4.24h1.85v-1.74h-1.92V1.16Z"/>
  <path class="cls-1" d="M76.34,8.13c0,1.37-.61,2.1-1.57,2.1-.91,0-1.52-.63-1.52-2.04V3.41h-2.55v5.31c0,2.24,1.21,3.39,3.21,3.39,1.16,0,2.09-.55,2.55-1.56v1.39h2.43V3.41h-2.55v4.72Z"/>
  <path class="cls-1" d="M86.86,4.65c-.5-.94-1.42-1.41-2.52-1.41-2.32,0-3.87,1.67-3.87,4.44s1.56,4.44,3.87,4.44c1.18,0,2.17-.53,2.63-1.64v1.47h2.43V.17h-2.55v4.49ZM84.94,10.31c-1.19,0-1.94-.89-1.94-2.63s.75-2.63,1.94-2.63,1.92.89,1.92,2.63-.74,2.63-1.92,2.63Z"/>
  <rect class="cls-1" x="91.63" y=".14" width="2.81" height="2.03"/>
  <rect class="cls-1" x="91.76" y="3.41" width="2.55" height="8.54"/>
  <path class="cls-1" d="M100.68,3.25c-2.85,0-4.47,1.9-4.47,4.44s1.62,4.44,4.47,4.44,4.47-1.9,4.47-4.44-1.64-4.44-4.47-4.44ZM100.68,10.31c-1.19,0-1.94-.89-1.94-2.63s.75-2.63,1.94-2.63,1.92.89,1.92,2.63-.75,2.63-1.92,2.63Z"/>
</svg>