<svg width="914" height="237" viewBox="0 0 914 237" fill="none" xmlns="http://www.w3.org/2000/svg">
<rect width="914" height="237" rx="118.5" fill="black"/>
<path d="M144.879 168.487C141.863 153.356 139.205 136.142 136.896 116.837C135.844 125.112 133.392 142.331 129.543 168.487H96.8066L85 70H110.617L113.404 104.364L116.097 137.585C117.069 120.391 119.502 97.8658 123.386 70H150.768C151.132 72.8811 152.089 83.708 153.645 102.485L155.843 130.784L159.896 101.107C161.044 90.6324 162.382 80.2631 163.915 70H202.262L217.343 168.487H194.09C192.754 157.331 185.609 108.384 184.268 91.959C181.59 110.749 175.31 159.405 174.583 168.389L174.579 168.487H144.879Z" fill="white"/>
<path d="M300.09 111V79.2129H318.633V83.1421H304.02V93.1418H315.984V97.0711H304.02V111H300.09ZM330.956 111.662C328.616 111.662 326.57 111.147 324.819 110.117C323.082 109.072 321.728 107.623 320.757 105.768C319.786 103.899 319.3 101.721 319.3 99.2344C319.3 96.6296 319.779 94.378 320.735 92.4796C321.692 90.5665 323.024 89.0949 324.731 88.0647C326.452 87.0199 328.469 86.4974 330.779 86.4974C333.178 86.4974 335.216 87.0493 336.894 88.153C338.586 89.2567 339.852 90.8314 340.69 92.8769C341.544 94.9225 341.912 97.358 341.794 100.184H337.821V98.7708C337.777 95.8423 337.181 93.6569 336.033 92.2147C334.885 90.7578 333.178 90.0293 330.911 90.0293C328.483 90.0293 326.636 90.8093 325.371 92.3692C324.105 93.9292 323.472 96.166 323.472 99.0798C323.472 101.891 324.105 104.069 325.371 105.614C326.636 107.159 328.439 107.932 330.779 107.932C332.354 107.932 333.722 107.571 334.885 106.85C336.047 106.129 336.96 105.091 337.622 103.738L341.397 105.04C340.47 107.144 339.072 108.778 337.203 109.94C335.348 111.088 333.266 111.662 330.956 111.662ZM322.148 100.184V97.0269H339.763V100.184H322.148ZM351.73 111.662C349.949 111.662 348.456 111.338 347.249 110.691C346.057 110.029 345.152 109.16 344.534 108.086C343.93 107.012 343.629 105.835 343.629 104.554C343.629 103.303 343.864 102.222 344.335 101.309C344.821 100.382 345.498 99.617 346.366 99.0136C347.234 98.3955 348.272 97.9099 349.478 97.5567C350.612 97.2477 351.877 96.9828 353.275 96.762C354.688 96.5266 356.115 96.3132 357.558 96.1219C359 95.9306 360.346 95.7466 361.597 95.57L360.184 96.3868C360.229 94.2676 359.802 92.7003 358.904 91.6849C358.021 90.6695 356.491 90.1618 354.313 90.1618C352.87 90.1618 351.605 90.4929 350.516 91.1551C349.442 91.8027 348.684 92.8622 348.242 94.3338L344.512 93.2081C345.086 91.1183 346.197 89.4775 347.845 88.2855C349.493 87.0935 351.664 86.4974 354.357 86.4974C356.52 86.4974 358.374 86.8874 359.92 87.6674C361.479 88.4326 362.598 89.5952 363.275 91.1551C363.613 91.8909 363.827 92.693 363.915 93.5612C364.003 94.4148 364.047 95.3125 364.047 96.2543V111H360.56V105.283L361.376 105.813C360.479 107.74 359.221 109.197 357.602 110.183C355.998 111.169 354.04 111.662 351.73 111.662ZM352.326 108.373C353.739 108.373 354.96 108.123 355.99 107.623C357.035 107.108 357.874 106.438 358.507 105.614C359.14 104.775 359.552 103.863 359.743 102.877C359.964 102.141 360.081 101.324 360.096 100.426C360.126 99.514 360.14 98.8149 360.14 98.3293L361.509 98.9253C360.229 99.1019 358.97 99.2711 357.734 99.433C356.498 99.5949 355.328 99.7715 354.224 99.9628C353.121 100.139 352.127 100.353 351.244 100.603C350.597 100.809 349.986 101.074 349.412 101.398C348.853 101.721 348.397 102.141 348.044 102.656C347.705 103.156 347.536 103.782 347.536 104.532C347.536 105.18 347.698 105.798 348.021 106.386C348.36 106.975 348.875 107.453 349.567 107.821C350.273 108.189 351.193 108.373 352.326 108.373ZM381.773 111C380.36 111.28 378.962 111.39 377.579 111.331C376.21 111.287 374.989 111.015 373.915 110.514C372.84 109.999 372.024 109.205 371.464 108.13C370.994 107.188 370.736 106.239 370.692 105.283C370.662 104.311 370.648 103.215 370.648 101.994V80.5374H374.577V101.817C374.577 102.788 374.584 103.62 374.599 104.311C374.628 105.003 374.783 105.599 375.063 106.099C375.592 107.041 376.431 107.593 377.579 107.755C378.742 107.917 380.14 107.873 381.773 107.623V111ZM365.813 90.4046V87.1597H381.773V90.4046H365.813ZM394.339 111.618C392.809 111.618 391.492 111.375 390.388 110.89C389.299 110.404 388.394 109.756 387.673 108.947C386.952 108.138 386.385 107.24 385.973 106.254C385.561 105.268 385.267 104.26 385.09 103.23C384.928 102.2 384.847 101.236 384.847 100.338V87.1597H388.821V99.1019C388.821 100.22 388.924 101.302 389.13 102.347C389.336 103.392 389.682 104.334 390.167 105.172C390.668 106.011 391.33 106.673 392.154 107.159C392.993 107.645 394.038 107.888 395.289 107.888C396.275 107.888 397.172 107.718 397.982 107.38C398.791 107.041 399.483 106.541 400.057 105.879C400.631 105.202 401.072 104.348 401.381 103.318C401.69 102.288 401.845 101.089 401.845 99.72L404.427 100.515C404.427 102.81 404.008 104.79 403.169 106.453C402.345 108.116 401.175 109.396 399.659 110.294C398.158 111.177 396.385 111.618 394.339 111.618ZM402.286 111V104.621H401.845V87.1597H405.796V111H402.286ZM410.652 111V87.1597H414.162V92.9211L413.588 92.1706C413.867 91.4347 414.228 90.7578 414.67 90.1397C415.126 89.5216 415.633 89.0139 416.193 88.6166C416.811 88.1162 417.51 87.7336 418.29 87.4687C419.07 87.2038 419.864 87.0493 420.674 87.0052C421.483 86.9463 422.241 86.9978 422.947 87.1597V90.8461C422.123 90.6254 421.218 90.5665 420.232 90.6695C419.246 90.7725 418.334 91.1331 417.495 91.7511C416.73 92.2956 416.134 92.9579 415.707 93.7378C415.295 94.5178 415.008 95.364 414.846 96.2764C414.684 97.1741 414.603 98.0938 414.603 99.0357V111H410.652ZM435.697 111.662C433.357 111.662 431.311 111.147 429.56 110.117C427.824 109.072 426.47 107.623 425.498 105.768C424.527 103.899 424.041 101.721 424.041 99.2344C424.041 96.6296 424.52 94.378 425.476 92.4796C426.433 90.5665 427.765 89.0949 429.472 88.0647C431.194 87.0199 433.21 86.4974 435.52 86.4974C437.919 86.4974 439.957 87.0493 441.635 88.153C443.327 89.2567 444.593 90.8314 445.432 92.8769C446.285 94.9225 446.653 97.358 446.535 100.184H442.562V98.7708C442.518 95.8423 441.922 93.6569 440.774 92.2147C439.626 90.7578 437.919 90.0293 435.653 90.0293C433.224 90.0293 431.378 90.8093 430.112 92.3692C428.846 93.9292 428.214 96.166 428.214 99.0798C428.214 101.891 428.846 104.069 430.112 105.614C431.378 107.159 433.18 107.932 435.52 107.932C437.095 107.932 438.463 107.571 439.626 106.85C440.789 106.129 441.701 105.091 442.363 103.738L446.138 105.04C445.211 107.144 443.813 108.778 441.944 109.94C440.09 111.088 438.007 111.662 435.697 111.662ZM426.889 100.184V97.0269H444.504V100.184H426.889ZM459.485 111.662C457.263 111.662 455.357 111.11 453.768 110.007C452.178 108.888 450.95 107.38 450.081 105.481C449.228 103.583 448.801 101.442 448.801 99.0578C448.801 96.6737 449.228 94.5325 450.081 92.6341C450.95 90.7357 452.178 89.242 453.768 88.153C455.357 87.0493 457.255 86.4974 459.463 86.4974C461.714 86.4974 463.606 87.0419 465.136 88.1309C466.667 89.22 467.822 90.7136 468.602 92.612C469.396 94.5104 469.794 96.659 469.794 99.0578C469.794 101.427 469.396 103.568 468.602 105.481C467.822 107.38 466.667 108.888 465.136 110.007C463.606 111.11 461.722 111.662 459.485 111.662ZM459.971 108.064C461.575 108.064 462.892 107.681 463.922 106.916C464.952 106.136 465.71 105.069 466.196 103.715C466.696 102.347 466.946 100.794 466.946 99.0578C466.946 97.2918 466.696 95.7392 466.196 94.4001C465.71 93.0462 464.959 91.994 463.944 91.2434C462.929 90.4782 461.641 90.0956 460.081 90.0956C458.462 90.0956 457.123 90.4929 456.063 91.2876C455.019 92.0823 454.239 93.1565 453.724 94.5104C453.223 95.8643 452.973 97.3801 452.973 99.0578C452.973 100.75 453.231 102.281 453.746 103.649C454.261 105.003 455.033 106.077 456.063 106.872C457.108 107.667 458.411 108.064 459.971 108.064ZM466.946 111V93.4509H466.505V79.2129H470.456V111H466.946ZM492.984 111.662C490.615 111.662 488.569 111.125 486.848 110.051C485.14 108.977 483.823 107.49 482.896 105.592C481.969 103.693 481.506 101.515 481.506 99.0578C481.506 96.556 481.976 94.3633 482.918 92.4796C483.86 90.5959 485.192 89.1317 486.914 88.0868C488.636 87.0272 490.659 86.4974 492.984 86.4974C495.368 86.4974 497.421 87.0346 499.143 88.1089C500.865 89.1684 502.182 90.6474 503.094 92.5458C504.021 94.4295 504.485 96.6002 504.485 99.0578C504.485 101.545 504.021 103.738 503.094 105.636C502.167 107.52 500.843 108.999 499.121 110.073C497.399 111.132 495.354 111.662 492.984 111.662ZM492.984 107.932C495.457 107.932 497.296 107.108 498.503 105.459C499.71 103.811 500.313 101.677 500.313 99.0578C500.313 96.3647 499.702 94.2235 498.481 92.6341C497.259 91.03 495.427 90.228 492.984 90.228C491.321 90.228 489.953 90.6033 488.878 91.3538C487.804 92.1043 487.002 93.1418 486.472 94.4663C485.942 95.7908 485.678 97.3212 485.678 99.0578C485.678 101.736 486.296 103.885 487.532 105.503C488.768 107.122 490.585 107.932 492.984 107.932ZM524.996 111V99.0578C524.996 97.9246 524.893 96.8356 524.687 95.7908C524.496 94.7459 524.15 93.8114 523.649 92.9873C523.164 92.1485 522.501 91.4863 521.663 91.0006C520.839 90.515 519.794 90.2722 518.528 90.2722C517.542 90.2722 516.644 90.4414 515.835 90.7799C515.04 91.1036 514.356 91.604 513.782 92.2809C513.208 92.9579 512.759 93.8114 512.436 94.8416C512.126 95.857 511.972 97.0564 511.972 98.4397L509.389 97.645C509.389 95.3346 509.801 93.3552 510.625 91.707C511.464 90.0441 512.634 88.7711 514.135 87.8881C515.651 86.9904 517.432 86.5416 519.477 86.5416C521.022 86.5416 522.34 86.7844 523.429 87.27C524.518 87.7557 525.423 88.4032 526.144 89.2126C526.865 90.0073 527.431 90.905 527.843 91.9057C528.256 92.8917 528.542 93.8997 528.704 94.9299C528.881 95.9453 528.969 96.9092 528.969 97.8216V111H524.996ZM507.999 111V87.1597H511.53V93.5392H511.972V111H507.999ZM547.675 111L538.469 79.2129H542.575L549.639 104.356L556.681 79.235L560.809 79.2129L567.873 104.356L574.914 79.2129H579.042L569.837 111H565.908L558.756 86.078L551.604 111H547.675ZM589.181 111.662C586.841 111.662 584.795 111.147 583.044 110.117C581.308 109.072 579.954 107.623 578.983 105.768C578.011 103.899 577.526 101.721 577.526 99.2344C577.526 96.6296 578.004 94.378 578.96 92.4796C579.917 90.5665 581.249 89.0949 582.956 88.0647C584.678 87.0199 586.694 86.4974 589.004 86.4974C591.403 86.4974 593.441 87.0493 595.119 88.153C596.811 89.2567 598.077 90.8314 598.916 92.8769C599.769 94.9225 600.137 97.358 600.019 100.184H596.046V98.7708C596.002 95.8423 595.406 93.6569 594.258 92.2147C593.11 90.7578 591.403 90.0293 589.137 90.0293C586.709 90.0293 584.862 90.8093 583.596 92.3692C582.33 93.9292 581.698 96.166 581.698 99.0798C581.698 101.891 582.33 104.069 583.596 105.614C584.862 107.159 586.664 107.932 589.004 107.932C590.579 107.932 591.948 107.571 593.11 106.85C594.273 106.129 595.185 105.091 595.847 103.738L599.622 105.04C598.695 107.144 597.297 108.778 595.428 109.94C593.574 111.088 591.491 111.662 589.181 111.662ZM580.373 100.184V97.0269H597.989V100.184H580.373ZM603.61 111V79.2129H613.411C613.734 79.2129 614.301 79.2203 615.11 79.235C615.92 79.2497 616.692 79.3086 617.428 79.4116C619.886 79.7353 621.939 80.633 623.587 82.1046C625.25 83.5616 626.501 85.4158 627.34 87.6674C628.178 89.919 628.598 92.3987 628.598 95.1065C628.598 97.8142 628.178 100.294 627.34 102.546C626.501 104.797 625.25 106.659 623.587 108.13C621.939 109.587 619.886 110.478 617.428 110.801C616.692 110.89 615.912 110.948 615.088 110.978C614.279 110.993 613.72 111 613.411 111H603.61ZM607.649 107.247H613.411C613.97 107.247 614.595 107.233 615.287 107.203C615.979 107.159 616.582 107.093 617.097 107.005C618.834 106.681 620.239 105.952 621.313 104.819C622.388 103.686 623.175 102.273 623.675 100.581C624.176 98.8885 624.426 97.0637 624.426 95.1065C624.426 93.105 624.168 91.2582 623.653 89.5658C623.153 87.8734 622.365 86.468 621.291 85.3496C620.217 84.2311 618.819 83.5174 617.097 83.2084C616.582 83.1053 615.971 83.0391 615.265 83.0097C614.558 82.9803 613.94 82.9655 613.411 82.9655H607.649V107.247ZM632.777 82.9435V78.8818H636.706V82.9435H632.777ZM632.777 111V87.1597H636.706V111H632.777ZM642.005 111V87.1597H645.515V92.9211L644.941 92.1706C645.221 91.4347 645.581 90.7578 646.023 90.1397C646.479 89.5216 646.987 89.0139 647.546 88.6166C648.164 88.1162 648.863 87.7336 649.643 87.4687C650.423 87.2038 651.218 87.0493 652.027 87.0052C652.836 86.9463 653.594 86.9978 654.301 87.1597V90.8461C653.477 90.6254 652.571 90.5665 651.585 90.6695C650.599 90.7725 649.687 91.1331 648.848 91.7511C648.083 92.2956 647.487 92.9579 647.06 93.7378C646.648 94.5178 646.361 95.364 646.199 96.2764C646.037 97.1741 645.957 98.0938 645.957 99.0357V111H642.005ZM667.05 111.662C664.71 111.662 662.665 111.147 660.913 110.117C659.177 109.072 657.823 107.623 656.852 105.768C655.88 103.899 655.395 101.721 655.395 99.2344C655.395 96.6296 655.873 94.378 656.83 92.4796C657.786 90.5665 659.118 89.0949 660.825 88.0647C662.547 87.0199 664.563 86.4974 666.873 86.4974C669.272 86.4974 671.31 87.0493 672.988 88.153C674.68 89.2567 675.946 90.8314 676.785 92.8769C677.638 94.9225 678.006 97.358 677.888 100.184H673.915V98.7708C673.871 95.8423 673.275 93.6569 672.127 92.2147C670.979 90.7578 669.272 90.0293 667.006 90.0293C664.578 90.0293 662.731 90.8093 661.465 92.3692C660.2 93.9292 659.567 96.166 659.567 99.0798C659.567 101.891 660.2 104.069 661.465 105.614C662.731 107.159 664.533 107.932 666.873 107.932C668.448 107.932 669.817 107.571 670.979 106.85C672.142 106.129 673.054 105.091 673.716 103.738L677.491 105.04C676.564 107.144 675.166 108.778 673.297 109.94C671.443 111.088 669.36 111.662 667.05 111.662ZM658.242 100.184V97.0269H675.858V100.184H658.242ZM691.522 111.662C689.109 111.662 687.056 111.125 685.364 110.051C683.686 108.962 682.406 107.468 681.523 105.57C680.64 103.671 680.184 101.508 680.154 99.0798C680.184 96.5928 680.647 94.4074 681.545 92.5237C682.457 90.6254 683.76 89.1464 685.452 88.0868C687.144 87.0272 689.183 86.4974 691.567 86.4974C694.083 86.4974 696.246 87.1155 698.057 88.3517C699.881 89.5879 701.103 91.2802 701.721 93.4288L697.836 94.5987C697.335 93.2154 696.519 92.1411 695.386 91.3759C694.267 90.6106 692.979 90.228 691.522 90.228C689.889 90.228 688.542 90.6106 687.483 91.3759C686.423 92.1264 685.636 93.1713 685.121 94.5104C684.606 95.8349 684.341 97.358 684.326 99.0798C684.356 101.729 684.966 103.87 686.158 105.503C687.365 107.122 689.153 107.932 691.522 107.932C693.082 107.932 694.377 107.578 695.408 106.872C696.438 106.151 697.218 105.114 697.747 103.76L701.721 104.797C700.897 107.019 699.609 108.719 697.858 109.896C696.107 111.074 693.995 111.662 691.522 111.662ZM718.213 111C716.8 111.28 715.402 111.39 714.018 111.331C712.65 111.287 711.428 111.015 710.354 110.514C709.28 109.999 708.463 109.205 707.904 108.13C707.433 107.188 707.175 106.239 707.131 105.283C707.102 104.311 707.087 103.215 707.087 101.994V80.5374H711.016V101.817C711.016 102.788 711.024 103.62 711.038 104.311C711.068 105.003 711.222 105.599 711.502 106.099C712.032 107.041 712.871 107.593 714.018 107.755C715.181 107.917 716.579 107.873 718.213 107.623V111ZM702.253 90.4046V87.1597H718.213V90.4046H702.253ZM730.891 111.662C728.521 111.662 726.476 111.125 724.754 110.051C723.047 108.977 721.73 107.49 720.803 105.592C719.876 103.693 719.412 101.515 719.412 99.0578C719.412 96.556 719.883 94.3633 720.825 92.4796C721.767 90.5959 723.099 89.1317 724.82 88.0868C726.542 87.0272 728.566 86.4974 730.891 86.4974C733.275 86.4974 735.328 87.0346 737.05 88.1089C738.771 89.1684 740.088 90.6474 741.001 92.5458C741.928 94.4295 742.392 96.6002 742.392 99.0578C742.392 101.545 741.928 103.738 741.001 105.636C740.074 107.52 738.749 108.999 737.027 110.073C735.306 111.132 733.26 111.662 730.891 111.662ZM730.891 107.932C733.363 107.932 735.203 107.108 736.409 105.459C737.616 103.811 738.219 101.677 738.219 99.0578C738.219 96.3647 737.609 94.2235 736.387 92.6341C735.166 91.03 733.334 90.228 730.891 90.228C729.228 90.228 727.859 90.6033 726.785 91.3538C725.711 92.1043 724.909 93.1418 724.379 94.4663C723.849 95.7908 723.584 97.3212 723.584 99.0578C723.584 101.736 724.202 103.885 725.438 105.503C726.675 107.122 728.492 107.932 730.891 107.932ZM745.927 111V87.1597H749.437V92.9211L748.863 92.1706C749.143 91.4347 749.503 90.7578 749.945 90.1397C750.401 89.5216 750.909 89.0139 751.468 88.6166C752.086 88.1162 752.785 87.7336 753.565 87.4687C754.345 87.2038 755.14 87.0493 755.949 87.0052C756.758 86.9463 757.516 86.9978 758.223 87.1597V90.8461C757.399 90.6254 756.493 90.5665 755.507 90.6695C754.521 90.7725 753.609 91.1331 752.77 91.7511C752.005 92.2956 751.409 92.9579 750.982 93.7378C750.57 94.5178 750.283 95.364 750.121 96.2764C749.959 97.1741 749.879 98.0938 749.879 99.0357V111H745.927ZM763.952 121.596L768.566 109.057L768.632 112.766L758.213 87.1597H762.341L770.508 107.755H769.096L776.755 87.1597H780.751L767.771 121.596H763.952ZM790.145 98.7046V95.4596H819.283V98.7046H790.145ZM311.039 160.662C308.802 160.662 306.919 160.11 305.388 159.007C303.858 157.888 302.695 156.38 301.901 154.481C301.121 152.568 300.731 150.427 300.731 148.058C300.731 145.659 301.121 143.51 301.901 141.612C302.695 139.714 303.858 138.22 305.388 137.131C306.933 136.042 308.825 135.497 311.061 135.497C313.269 135.497 315.167 136.049 316.757 137.153C318.361 138.242 319.589 139.736 320.443 141.634C321.297 143.533 321.723 145.674 321.723 148.058C321.723 150.442 321.297 152.583 320.443 154.481C319.589 156.38 318.361 157.888 316.757 159.007C315.167 160.11 313.261 160.662 311.039 160.662ZM300.068 160V128.213H304.02V142.451H303.578V160H300.068ZM310.554 157.064C312.128 157.064 313.431 156.667 314.461 155.872C315.491 155.077 316.264 154.003 316.779 152.649C317.294 151.281 317.551 149.75 317.551 148.058C317.551 146.38 317.294 144.864 316.779 143.51C316.278 142.157 315.498 141.082 314.439 140.288C313.394 139.493 312.062 139.096 310.443 139.096C308.898 139.096 307.618 139.478 306.602 140.243C305.587 140.994 304.829 142.046 304.329 143.4C303.828 144.739 303.578 146.292 303.578 148.058C303.578 149.794 303.821 151.347 304.307 152.715C304.807 154.069 305.572 155.136 306.602 155.916C307.632 156.681 308.95 157.064 310.554 157.064ZM335.569 160.662C333.229 160.662 331.183 160.147 329.432 159.117C327.696 158.072 326.342 156.623 325.37 154.768C324.399 152.899 323.913 150.721 323.913 148.234C323.913 145.63 324.392 143.378 325.348 141.48C326.305 139.566 327.637 138.095 329.344 137.065C331.066 136.02 333.082 135.497 335.392 135.497C337.791 135.497 339.829 136.049 341.507 137.153C343.199 138.257 344.465 139.831 345.304 141.877C346.157 143.922 346.525 146.358 346.407 149.184H342.434V147.771C342.39 144.842 341.794 142.657 340.646 141.215C339.498 139.758 337.791 139.029 335.525 139.029C333.096 139.029 331.25 139.809 329.984 141.369C328.718 142.929 328.086 145.166 328.086 148.08C328.086 150.891 328.718 153.069 329.984 154.614C331.25 156.159 333.052 156.932 335.392 156.932C336.967 156.932 338.335 156.571 339.498 155.85C340.661 155.129 341.573 154.091 342.235 152.738L346.01 154.04C345.083 156.144 343.685 157.778 341.816 158.94C339.962 160.088 337.879 160.662 335.569 160.662ZM326.761 149.184V146.027H344.376V149.184H326.761ZM359.004 160.64C356.164 160.64 353.831 160.022 352.006 158.786C350.196 157.535 349.085 155.791 348.673 153.554L352.691 152.914C353.014 154.209 353.757 155.239 354.92 156.005C356.083 156.755 357.525 157.13 359.247 157.13C360.88 157.13 362.16 156.792 363.088 156.115C364.015 155.438 364.478 154.518 364.478 153.356C364.478 152.679 364.324 152.134 364.015 151.722C363.706 151.295 363.065 150.898 362.094 150.53C361.138 150.162 359.688 149.721 357.746 149.206C355.641 148.646 353.986 148.065 352.779 147.462C351.572 146.858 350.711 146.159 350.196 145.365C349.681 144.57 349.424 143.606 349.424 142.473C349.424 141.075 349.806 139.853 350.571 138.809C351.337 137.749 352.404 136.932 353.772 136.358C355.156 135.784 356.76 135.497 358.584 135.497C360.394 135.497 362.013 135.784 363.441 136.358C364.868 136.932 366.016 137.749 366.884 138.809C367.767 139.853 368.29 141.075 368.452 142.473L364.434 143.201C364.243 141.921 363.625 140.913 362.58 140.177C361.55 139.441 360.218 139.051 358.584 139.007C357.039 138.948 355.781 139.221 354.81 139.824C353.853 140.427 353.375 141.244 353.375 142.274C353.375 142.848 353.551 143.341 353.905 143.753C354.273 144.165 354.942 144.555 355.913 144.923C356.899 145.291 358.327 145.711 360.196 146.181C362.3 146.711 363.956 147.293 365.163 147.925C366.384 148.543 367.252 149.279 367.767 150.133C368.282 150.972 368.54 152.009 368.54 153.245C368.54 155.541 367.694 157.351 366.001 158.676C364.309 159.985 361.976 160.64 359.004 160.64ZM385.395 160C383.982 160.28 382.584 160.39 381.201 160.331C379.832 160.287 378.611 160.015 377.536 159.514C376.462 158.999 375.645 158.205 375.086 157.13C374.615 156.188 374.358 155.239 374.313 154.283C374.284 153.311 374.269 152.215 374.269 150.994V129.537H378.199V150.817C378.199 151.788 378.206 152.62 378.221 153.311C378.25 154.003 378.405 154.599 378.684 155.099C379.214 156.041 380.053 156.593 381.201 156.755C382.363 156.917 383.761 156.873 385.395 156.623V160ZM369.435 139.405V136.16H385.395V139.405H369.435ZM409.735 160C408.322 160.28 406.924 160.39 405.541 160.331C404.172 160.287 402.951 160.015 401.877 159.514C400.802 158.999 399.986 158.205 399.426 157.13C398.956 156.188 398.698 155.239 398.654 154.283C398.624 153.311 398.61 152.215 398.61 150.994V129.537H402.539V150.817C402.539 151.788 402.546 152.62 402.561 153.311C402.59 154.003 402.745 154.599 403.025 155.099C403.554 156.041 404.393 156.593 405.541 156.755C406.704 156.917 408.102 156.873 409.735 156.623V160ZM393.775 139.405V136.16H409.735V139.405H393.775ZM420.028 160.662C418.247 160.662 416.753 160.338 415.547 159.691C414.355 159.029 413.45 158.16 412.831 157.086C412.228 156.012 411.926 154.835 411.926 153.554C411.926 152.303 412.162 151.222 412.633 150.309C413.118 149.382 413.795 148.617 414.664 148.014C415.532 147.396 416.569 146.91 417.776 146.557C418.909 146.248 420.175 145.983 421.573 145.762C422.986 145.527 424.413 145.313 425.855 145.122C427.298 144.931 428.644 144.747 429.895 144.57L428.482 145.387C428.526 143.268 428.1 141.7 427.202 140.685C426.319 139.67 424.788 139.162 422.61 139.162C421.168 139.162 419.903 139.493 418.814 140.155C417.739 140.803 416.981 141.862 416.54 143.334L412.809 142.208C413.383 140.118 414.494 138.477 416.143 137.285C417.791 136.093 419.962 135.497 422.655 135.497C424.818 135.497 426.672 135.887 428.217 136.667C429.777 137.433 430.896 138.595 431.573 140.155C431.911 140.891 432.124 141.693 432.213 142.561C432.301 143.415 432.345 144.312 432.345 145.254V160H428.857V154.283L429.674 154.813C428.777 156.74 427.518 158.197 425.9 159.183C424.295 160.169 422.338 160.662 420.028 160.662ZM420.624 157.373C422.036 157.373 423.258 157.123 424.288 156.623C425.333 156.108 426.172 155.438 426.805 154.614C427.437 153.775 427.849 152.863 428.041 151.877C428.261 151.141 428.379 150.324 428.394 149.426C428.423 148.514 428.438 147.815 428.438 147.329L429.807 147.925C428.526 148.102 427.268 148.271 426.032 148.433C424.796 148.595 423.626 148.772 422.522 148.963C421.418 149.139 420.425 149.353 419.542 149.603C418.895 149.809 418.284 150.074 417.71 150.398C417.151 150.721 416.694 151.141 416.341 151.656C416.003 152.156 415.834 152.782 415.834 153.532C415.834 154.18 415.995 154.798 416.319 155.386C416.658 155.975 417.173 156.453 417.864 156.821C418.571 157.189 419.491 157.373 420.624 157.373ZM437.202 160V127.551H441.131V160H437.202ZM456.761 160.662C454.421 160.662 452.375 160.147 450.624 159.117C448.887 158.072 447.533 156.623 446.562 154.768C445.591 152.899 445.105 150.721 445.105 148.234C445.105 145.63 445.584 143.378 446.54 141.48C447.497 139.566 448.828 138.095 450.536 137.065C452.257 136.02 454.273 135.497 456.584 135.497C458.983 135.497 461.021 136.049 462.699 137.153C464.391 138.257 465.656 139.831 466.495 141.877C467.349 143.922 467.717 146.358 467.599 149.184H463.626V147.771C463.581 144.842 462.985 142.657 461.838 141.215C460.69 139.758 458.983 139.029 456.716 139.029C454.288 139.029 452.441 139.809 451.176 141.369C449.91 142.929 449.277 145.166 449.277 148.08C449.277 150.891 449.91 153.069 451.176 154.614C452.441 156.159 454.244 156.932 456.584 156.932C458.159 156.932 459.527 156.571 460.69 155.85C461.852 155.129 462.765 154.091 463.427 152.738L467.202 154.04C466.275 156.144 464.877 157.778 463.008 158.94C461.153 160.088 459.071 160.662 456.761 160.662ZM447.953 149.184V146.027H465.568V149.184H447.953ZM487.518 160V148.058C487.518 146.925 487.415 145.836 487.209 144.791C487.017 143.746 486.672 142.811 486.171 141.987C485.686 141.148 485.023 140.486 484.184 140.001C483.36 139.515 482.316 139.272 481.05 139.272C480.064 139.272 479.166 139.441 478.357 139.78C477.562 140.104 476.878 140.604 476.304 141.281C475.73 141.958 475.281 142.811 474.957 143.842C474.648 144.857 474.494 146.056 474.494 147.44L471.911 146.645C471.911 144.335 472.323 142.355 473.147 140.707C473.986 139.044 475.156 137.771 476.657 136.888C478.173 135.99 479.954 135.542 481.999 135.542C483.544 135.542 484.861 135.784 485.95 136.27C487.039 136.756 487.944 137.403 488.666 138.213C489.387 139.007 489.953 139.905 490.365 140.906C490.777 141.892 491.064 142.9 491.226 143.93C491.403 144.945 491.491 145.909 491.491 146.822V160H487.518ZM470.52 160V136.16H474.052V142.539H474.494V160H470.52ZM509.216 160C507.804 160.28 506.406 160.39 505.022 160.331C503.654 160.287 502.432 160.015 501.358 159.514C500.284 158.999 499.467 158.205 498.908 157.13C498.437 156.188 498.179 155.239 498.135 154.283C498.106 153.311 498.091 152.215 498.091 150.994V129.537H502.02V150.817C502.02 151.788 502.028 152.62 502.042 153.311C502.072 154.003 502.226 154.599 502.506 155.099C503.036 156.041 503.874 156.593 505.022 156.755C506.185 156.917 507.583 156.873 509.216 156.623V160ZM493.257 139.405V136.16H509.216V139.405H493.257ZM521.739 160.64C518.898 160.64 516.566 160.022 514.741 158.786C512.931 157.535 511.82 155.791 511.408 153.554L515.425 152.914C515.749 154.209 516.492 155.239 517.655 156.005C518.817 156.755 520.26 157.13 521.981 157.13C523.615 157.13 524.895 156.792 525.822 156.115C526.749 155.438 527.213 154.518 527.213 153.356C527.213 152.679 527.058 152.134 526.749 151.722C526.44 151.295 525.8 150.898 524.829 150.53C523.872 150.162 522.423 149.721 520.48 149.206C518.376 148.646 516.72 148.065 515.514 147.462C514.307 146.858 513.446 146.159 512.931 145.365C512.416 144.57 512.158 143.606 512.158 142.473C512.158 141.075 512.541 139.853 513.306 138.809C514.071 137.749 515.138 136.932 516.507 136.358C517.89 135.784 519.494 135.497 521.319 135.497C523.129 135.497 524.748 135.784 526.175 136.358C527.603 136.932 528.751 137.749 529.619 138.809C530.502 139.853 531.024 141.075 531.186 142.473L527.169 143.201C526.977 141.921 526.359 140.913 525.315 140.177C524.284 139.441 522.953 139.051 521.319 139.007C519.774 138.948 518.516 139.221 517.544 139.824C516.588 140.427 516.11 141.244 516.11 142.274C516.11 142.848 516.286 143.341 516.639 143.753C517.007 144.165 517.677 144.555 518.648 144.923C519.634 145.291 521.062 145.711 522.931 146.181C525.035 146.711 526.691 147.293 527.897 147.925C529.119 148.543 529.987 149.279 530.502 150.133C531.017 150.972 531.275 152.009 531.275 153.245C531.275 155.541 530.428 157.351 528.736 158.676C527.044 159.985 524.711 160.64 521.739 160.64ZM549.109 160.662C547.329 160.662 545.835 160.338 544.628 159.691C543.436 159.029 542.531 158.16 541.913 157.086C541.31 156.012 541.008 154.835 541.008 153.554C541.008 152.303 541.244 151.222 541.714 150.309C542.2 149.382 542.877 148.617 543.745 148.014C544.614 147.396 545.651 146.91 546.858 146.557C547.991 146.248 549.257 145.983 550.655 145.762C552.067 145.527 553.495 145.313 554.937 145.122C556.379 144.931 557.726 144.747 558.977 144.57L557.564 145.387C557.608 143.268 557.181 141.7 556.284 140.685C555.401 139.67 553.87 139.162 551.692 139.162C550.25 139.162 548.984 139.493 547.895 140.155C546.821 140.803 546.063 141.862 545.622 143.334L541.891 142.208C542.465 140.118 543.576 138.477 545.224 137.285C546.872 136.093 549.043 135.497 551.736 135.497C553.899 135.497 555.754 135.887 557.299 136.667C558.859 137.433 559.977 138.595 560.654 140.155C560.993 140.891 561.206 141.693 561.294 142.561C561.383 143.415 561.427 144.312 561.427 145.254V160H557.939V154.283L558.756 154.813C557.858 156.74 556.6 158.197 554.981 159.183C553.377 160.169 551.42 160.662 549.109 160.662ZM549.705 157.373C551.118 157.373 552.34 157.123 553.37 156.623C554.415 156.108 555.253 155.438 555.886 154.614C556.519 153.775 556.931 152.863 557.122 151.877C557.343 151.141 557.461 150.324 557.476 149.426C557.505 148.514 557.52 147.815 557.52 147.329L558.888 147.925C557.608 148.102 556.35 148.271 555.114 148.433C553.877 148.595 552.707 148.772 551.604 148.963C550.5 149.139 549.507 149.353 548.624 149.603C547.976 149.809 547.365 150.074 546.792 150.398C546.232 150.721 545.776 151.141 545.423 151.656C545.084 152.156 544.915 152.782 544.915 153.532C544.915 154.18 545.077 154.798 545.401 155.386C545.739 155.975 546.254 156.453 546.946 156.821C547.652 157.189 548.572 157.373 549.705 157.373ZM582.817 160V148.058C582.817 146.925 582.714 145.836 582.508 144.791C582.317 143.746 581.971 142.811 581.47 141.987C580.985 141.148 580.323 140.486 579.484 140.001C578.66 139.515 577.615 139.272 576.349 139.272C575.363 139.272 574.465 139.441 573.656 139.78C572.861 140.104 572.177 140.604 571.603 141.281C571.029 141.958 570.58 142.811 570.257 143.842C569.948 144.857 569.793 146.056 569.793 147.44L567.21 146.645C567.21 144.335 567.622 142.355 568.447 140.707C569.285 139.044 570.455 137.771 571.956 136.888C573.472 135.99 575.253 135.542 577.298 135.542C578.844 135.542 580.161 135.784 581.25 136.27C582.339 136.756 583.244 137.403 583.965 138.213C584.686 139.007 585.252 139.905 585.665 140.906C586.077 141.892 586.364 142.9 586.525 143.93C586.702 144.945 586.79 145.909 586.79 146.822V160H582.817ZM565.82 160V136.16H569.352V142.539H569.793V160H565.82ZM600.349 160.662C598.127 160.662 596.221 160.11 594.632 159.007C593.042 157.888 591.813 156.38 590.945 154.481C590.092 152.583 589.665 150.442 589.665 148.058C589.665 145.674 590.092 143.533 590.945 141.634C591.813 139.736 593.042 138.242 594.632 137.153C596.221 136.049 598.119 135.497 600.327 135.497C602.578 135.497 604.469 136.042 606 137.131C607.53 138.22 608.686 139.714 609.466 141.612C610.26 143.51 610.658 145.659 610.658 148.058C610.658 150.427 610.26 152.568 609.466 154.481C608.686 156.38 607.53 157.888 606 159.007C604.469 160.11 602.586 160.662 600.349 160.662ZM600.834 157.064C602.439 157.064 603.756 156.681 604.786 155.916C605.816 155.136 606.574 154.069 607.059 152.715C607.56 151.347 607.81 149.794 607.81 148.058C607.81 146.292 607.56 144.739 607.059 143.4C606.574 142.046 605.823 140.994 604.808 140.243C603.792 139.478 602.505 139.096 600.945 139.096C599.326 139.096 597.987 139.493 596.927 140.288C595.882 141.082 595.102 142.157 594.587 143.51C594.087 144.864 593.837 146.38 593.837 148.058C593.837 149.75 594.094 151.281 594.609 152.649C595.125 154.003 595.897 155.077 596.927 155.872C597.972 156.667 599.275 157.064 600.834 157.064ZM607.81 160V142.451H607.368V128.213H611.32V160H607.81ZM634.643 160.662C632.406 160.662 630.522 160.11 628.992 159.007C627.461 157.888 626.299 156.38 625.504 154.481C624.724 152.568 624.334 150.427 624.334 148.058C624.334 145.659 624.724 143.51 625.504 141.612C626.299 139.714 627.461 138.22 628.992 137.131C630.537 136.042 632.428 135.497 634.665 135.497C636.872 135.497 638.771 136.049 640.36 137.153C641.964 138.242 643.193 139.736 644.046 141.634C644.9 143.533 645.327 145.674 645.327 148.058C645.327 150.442 644.9 152.583 644.046 154.481C643.193 156.38 641.964 157.888 640.36 159.007C638.771 160.11 636.865 160.662 634.643 160.662ZM623.672 160V128.213H627.623V142.451H627.182V160H623.672ZM634.157 157.064C635.732 157.064 637.034 156.667 638.064 155.872C639.094 155.077 639.867 154.003 640.382 152.649C640.897 151.281 641.155 149.75 641.155 148.058C641.155 146.38 640.897 144.864 640.382 143.51C639.882 142.157 639.102 141.082 638.042 140.288C636.997 139.493 635.666 139.096 634.047 139.096C632.502 139.096 631.221 139.478 630.206 140.243C629.19 140.994 628.432 142.046 627.932 143.4C627.432 144.739 627.182 146.292 627.182 148.058C627.182 149.794 627.424 151.347 627.91 152.715C628.41 154.069 629.176 155.136 630.206 155.916C631.236 156.681 632.553 157.064 634.157 157.064ZM648.841 160V136.16H652.351V141.921L651.777 141.171C652.057 140.435 652.417 139.758 652.859 139.14C653.315 138.522 653.823 138.014 654.382 137.617C655 137.116 655.699 136.734 656.479 136.469C657.259 136.204 658.054 136.049 658.863 136.005C659.673 135.946 660.43 135.998 661.137 136.16V139.846C660.313 139.625 659.408 139.566 658.422 139.67C657.436 139.773 656.523 140.133 655.684 140.751C654.919 141.296 654.323 141.958 653.896 142.738C653.484 143.518 653.197 144.364 653.035 145.276C652.874 146.174 652.793 147.094 652.793 148.036V160H648.841ZM669.987 160.662C668.207 160.662 666.713 160.338 665.506 159.691C664.314 159.029 663.409 158.16 662.791 157.086C662.188 156.012 661.886 154.835 661.886 153.554C661.886 152.303 662.121 151.222 662.592 150.309C663.078 149.382 663.755 148.617 664.623 148.014C665.491 147.396 666.529 146.91 667.736 146.557C668.869 146.248 670.134 145.983 671.532 145.762C672.945 145.527 674.373 145.313 675.815 145.122C677.257 144.931 678.604 144.747 679.854 144.57L678.442 145.387C678.486 143.268 678.059 141.7 677.161 140.685C676.278 139.67 674.748 139.162 672.57 139.162C671.128 139.162 669.862 139.493 668.773 140.155C667.699 140.803 666.941 141.862 666.499 143.334L662.769 142.208C663.343 140.118 664.454 138.477 666.102 137.285C667.75 136.093 669.921 135.497 672.614 135.497C674.777 135.497 676.632 135.887 678.177 136.667C679.737 137.433 680.855 138.595 681.532 140.155C681.871 140.891 682.084 141.693 682.172 142.561C682.261 143.415 682.305 144.312 682.305 145.254V160H678.817V154.283L679.634 154.813C678.736 156.74 677.478 158.197 675.859 159.183C674.255 160.169 672.298 160.662 669.987 160.662ZM670.583 157.373C671.996 157.373 673.217 157.123 674.248 156.623C675.292 156.108 676.131 155.438 676.764 154.614C677.397 153.775 677.809 152.863 678 151.877C678.221 151.141 678.339 150.324 678.353 149.426C678.383 148.514 678.398 147.815 678.398 147.329L679.766 147.925C678.486 148.102 677.228 148.271 675.991 148.433C674.755 148.595 673.585 148.772 672.482 148.963C671.378 149.139 670.385 149.353 669.502 149.603C668.854 149.809 668.243 150.074 667.669 150.398C667.11 150.721 666.654 151.141 666.301 151.656C665.962 152.156 665.793 152.782 665.793 153.532C665.793 154.18 665.955 154.798 666.279 155.386C666.617 155.975 667.132 156.453 667.824 156.821C668.53 157.189 669.45 157.373 670.583 157.373ZM703.695 160V148.058C703.695 146.925 703.592 145.836 703.386 144.791C703.194 143.746 702.849 142.811 702.348 141.987C701.863 141.148 701.2 140.486 700.362 140.001C699.537 139.515 698.493 139.272 697.227 139.272C696.241 139.272 695.343 139.441 694.534 139.78C693.739 140.104 693.055 140.604 692.481 141.281C691.907 141.958 691.458 142.811 691.134 143.842C690.825 144.857 690.671 146.056 690.671 147.44L688.088 146.645C688.088 144.335 688.5 142.355 689.324 140.707C690.163 139.044 691.333 137.771 692.834 136.888C694.35 135.99 696.131 135.542 698.176 135.542C699.721 135.542 701.039 135.784 702.128 136.27C703.217 136.756 704.122 137.403 704.843 138.213C705.564 139.007 706.13 139.905 706.542 140.906C706.954 141.892 707.241 142.9 707.403 143.93C707.58 144.945 707.668 145.909 707.668 146.822V160H703.695ZM686.698 160V136.16H690.229V142.539H690.671V160H686.698ZM721.227 160.662C719.005 160.662 717.099 160.11 715.509 159.007C713.92 157.888 712.691 156.38 711.823 154.481C710.969 152.583 710.543 150.442 710.543 148.058C710.543 145.674 710.969 143.533 711.823 141.634C712.691 139.736 713.92 138.242 715.509 137.153C717.099 136.049 718.997 135.497 721.205 135.497C723.456 135.497 725.347 136.042 726.878 137.131C728.408 138.22 729.563 139.714 730.343 141.612C731.138 143.51 731.535 145.659 731.535 148.058C731.535 150.427 731.138 152.568 730.343 154.481C729.563 156.38 728.408 157.888 726.878 159.007C725.347 160.11 723.464 160.662 721.227 160.662ZM721.712 157.064C723.316 157.064 724.633 156.681 725.664 155.916C726.694 155.136 727.452 154.069 727.937 152.715C728.438 151.347 728.688 149.794 728.688 148.058C728.688 146.292 728.438 144.739 727.937 143.4C727.452 142.046 726.701 140.994 725.686 140.243C724.67 139.478 723.383 139.096 721.823 139.096C720.204 139.096 718.865 139.493 717.805 140.288C716.76 141.082 715.98 142.157 715.465 143.51C714.965 144.864 714.715 146.38 714.715 148.058C714.715 149.75 714.972 151.281 715.487 152.649C716.002 154.003 716.775 155.077 717.805 155.872C718.85 156.667 720.152 157.064 721.712 157.064ZM728.688 160V142.451H728.246V128.213H732.198V160H728.688ZM746.064 160.64C743.224 160.64 740.891 160.022 739.067 158.786C737.256 157.535 736.145 155.791 735.733 153.554L739.751 152.914C740.075 154.209 740.818 155.239 741.98 156.005C743.143 156.755 744.585 157.13 746.307 157.13C747.94 157.13 749.221 156.792 750.148 156.115C751.075 155.438 751.539 154.518 751.539 153.356C751.539 152.679 751.384 152.134 751.075 151.722C750.766 151.295 750.126 150.898 749.155 150.53C748.198 150.162 746.748 149.721 744.806 149.206C742.702 148.646 741.046 148.065 739.839 147.462C738.632 146.858 737.772 146.159 737.256 145.365C736.741 144.57 736.484 143.606 736.484 142.473C736.484 141.075 736.867 139.853 737.632 138.809C738.397 137.749 739.464 136.932 740.833 136.358C742.216 135.784 743.82 135.497 745.645 135.497C747.455 135.497 749.074 135.784 750.501 136.358C751.929 136.932 753.076 137.749 753.945 138.809C754.828 139.853 755.35 141.075 755.512 142.473L751.494 143.201C751.303 141.921 750.685 140.913 749.64 140.177C748.61 139.441 747.278 139.051 745.645 139.007C744.1 138.948 742.841 139.221 741.87 139.824C740.913 140.427 740.435 141.244 740.435 142.274C740.435 142.848 740.612 143.341 740.965 143.753C741.333 144.165 742.002 144.555 742.974 144.923C743.96 145.291 745.387 145.711 747.256 146.181C749.361 146.711 751.016 147.293 752.223 147.925C753.444 148.543 754.313 149.279 754.828 150.133C755.343 150.972 755.6 152.009 755.6 153.245C755.6 155.541 754.754 157.351 753.062 158.676C751.369 159.985 749.037 160.64 746.064 160.64Z" fill="white"/>
</svg>
