<svg width="173" height="129" viewBox="0 0 173 129" fill="none" xmlns="http://www.w3.org/2000/svg">
<path d="M78.2744 128.743C74.3314 108.963 70.8574 86.4615 67.8398 61.2256C66.4647 72.0428 63.258 94.551 58.2266 128.743H15.4336L0 0H33.4863L37.1299 44.9209L40.6494 88.3477C41.9203 65.8715 45.1007 36.4263 50.1777 0H85.9717C86.4474 3.76606 87.698 17.9191 89.7314 42.4648L92.6055 79.459L97.8975 40.7139C99.3981 27.0038 101.151 13.4323 103.157 0H153.284L173 128.743H142.603C140.856 114.16 131.517 50.1753 129.764 28.7051C126.263 53.271 118.052 116.888 117.104 128.619L117.099 128.743H78.2744Z" fill="white"/>
</svg>
